<svg width="1440" height="1475" viewBox="0 0 1440 1475" fill="none" xmlns="http://www.w3.org/2000/svg">
<path d="M103.23 1291.09C19.404 1282.84 -1.49218 1230.36 0.0811252 1205.16L0.0811252 0L1439.91 0V1205.16C1441.48 1230.36 1423.67 1282.84 1339.84 1291.09C1235.06 1301.41 1237.9 1337.5 1221.85 1366.72C1205.8 1395.94 1180.31 1425.16 1090.63 1401.95C1000.96 1378.75 913.165 1371.02 846.143 1426.02C792.525 1470.02 740.621 1475 721.537 1475C702.453 1475 650.55 1470.02 596.932 1426.02C529.909 1371.02 442.119 1378.75 352.44 1401.95C262.762 1425.16 237.275 1395.94 221.227 1366.72C205.179 1337.5 208.011 1301.41 103.23 1291.09Z" fill="#192BC2"/>
</svg>
