<svg width="1240" height="224" viewBox="0 0 1240 224" fill="none" xmlns="http://www.w3.org/2000/svg">
<g clip-path="url(#clip0_396_3767)">
<rect width="1240" height="224" rx="24" fill="url(#paint0_linear_396_3767)"/>
<path d="M1206 339C1139.83 339 1086 285.169 1086 219C1086 152.831 1139.83 99 1206 99C1272.17 99 1326 152.831 1326 219C1325.99 285.169 1272.16 339 1206 339ZM1206 103.033C1142.06 103.033 1090.03 155.056 1090.03 219C1090.03 282.944 1142.06 334.967 1206 334.967C1269.94 334.967 1321.97 282.944 1321.97 219C1321.97 155.056 1269.94 103.033 1206 103.033Z" fill="#192BC2"/>
<path d="M1206 325.89C1147.06 325.89 1099.11 277.938 1099.11 219C1099.11 160.062 1147.06 112.11 1206 112.11C1264.94 112.11 1312.89 160.062 1312.89 219C1312.88 277.938 1264.93 325.89 1206 325.89ZM1206 116.143C1149.29 116.143 1103.14 162.287 1103.14 219C1103.14 275.713 1149.29 321.857 1206 321.857C1262.71 321.857 1308.86 275.713 1308.86 219C1308.86 162.287 1262.71 116.143 1206 116.143Z" fill="#192BC2"/>
<path d="M1206 312.78C1154.29 312.78 1112.22 270.707 1112.22 219C1112.22 167.293 1154.29 125.22 1206 125.22C1257.71 125.22 1299.78 167.293 1299.78 219C1299.77 270.707 1257.71 312.78 1206 312.78ZM1206 129.253C1156.51 129.253 1116.25 169.518 1116.25 219C1116.25 268.494 1156.52 308.747 1206 308.747C1255.48 308.747 1295.75 268.482 1295.75 219C1295.75 169.518 1255.48 129.253 1206 129.253Z" fill="#192BC2"/>
<path d="M1206 299.67C1161.52 299.67 1125.33 263.488 1125.33 219C1125.33 174.525 1161.51 138.33 1206 138.33C1250.48 138.33 1286.67 174.512 1286.67 219C1286.66 263.488 1250.48 299.67 1206 299.67ZM1206 142.363C1163.74 142.363 1129.36 176.75 1129.36 219C1129.36 261.263 1163.75 295.637 1206 295.637C1248.25 295.637 1282.64 261.25 1282.64 219C1282.64 176.75 1248.25 142.363 1206 142.363Z" fill="#192BC2"/>
<path d="M1206 286.56C1168.74 286.56 1138.44 256.257 1138.44 219C1138.44 181.743 1168.74 151.44 1206 151.44C1243.26 151.44 1273.56 181.743 1273.56 219C1273.55 256.257 1243.24 286.56 1206 286.56ZM1206 155.473C1170.97 155.473 1142.47 183.968 1142.47 219C1142.47 254.032 1170.97 282.54 1206 282.54C1241.03 282.54 1269.53 254.044 1269.53 219C1269.53 183.968 1241.03 155.473 1206 155.473Z" fill="#192BC2"/>
<path d="M1206 273.45C1175.98 273.45 1151.55 249.025 1151.55 219C1151.55 188.975 1175.98 164.55 1206 164.55C1236.03 164.55 1260.45 188.975 1260.45 219C1260.45 249.025 1236.01 273.45 1206 273.45ZM1206 168.583C1178.2 168.583 1155.57 191.2 1155.57 219.013C1155.57 246.813 1178.19 269.442 1206 269.442C1233.81 269.442 1256.43 246.826 1256.43 219.013C1256.42 191.2 1233.8 168.583 1206 168.583Z" fill="#192BC2"/>
<path d="M22 140C-44.1694 140 -98 86.1694 -98 20C-98 -46.1694 -44.1694 -100 22 -100C88.1694 -100 142 -46.1694 142 20C141.987 86.1694 88.1567 140 22 140ZM22 -95.9671C-41.9444 -95.9671 -93.9671 -43.9444 -93.9671 20C-93.9671 83.9444 -41.9444 135.967 22 135.967C85.9444 135.967 137.967 83.9444 137.967 20C137.967 -43.9444 85.9444 -95.9671 22 -95.9671Z" fill="#5363E9"/>
<path d="M22.0004 126.89C-36.9377 126.89 -84.8896 78.9382 -84.8896 20.0001C-84.8896 -38.9379 -36.9377 -86.8899 22.0004 -86.8899C80.9384 -86.8899 128.89 -38.9379 128.89 20.0001C128.878 78.9382 80.9258 126.89 22.0004 126.89ZM22.0004 -82.857C-34.7127 -82.857 -80.8568 -36.7129 -80.8568 20.0001C-80.8568 76.7132 -34.7127 122.857 22.0004 122.857C78.7134 122.857 124.858 76.7132 124.858 20.0001C124.858 -36.7129 78.7134 -82.857 22.0004 -82.857Z" fill="#5363E9"/>
<path d="M22.0002 113.78C-29.7065 113.78 -71.7798 71.7067 -71.7798 20C-71.7798 -31.7067 -29.7065 -73.78 22.0002 -73.78C73.7069 -73.78 115.78 -31.7067 115.78 20C115.768 71.7067 73.7069 113.78 22.0002 113.78ZM22.0002 -69.7472C-27.4941 -69.7472 -67.747 -29.4817 -67.747 20C-67.747 69.4943 -27.4815 109.747 22.0002 109.747C71.4819 109.747 111.747 69.4817 111.747 20C111.747 -29.4817 71.4819 -69.7472 22.0002 -69.7472Z" fill="#5363E9"/>
<path d="M22.0001 100.67C-22.4752 100.67 -58.6699 64.4878 -58.6699 19.9999C-58.6699 -24.4755 -22.4879 -60.6702 22.0001 -60.6702C66.4755 -60.6702 102.67 -24.4881 102.67 19.9999C102.658 64.4878 66.4755 100.67 22.0001 100.67ZM22.0001 -56.6373C-20.2628 -56.6373 -54.637 -22.2505 -54.637 19.9999C-54.637 62.2628 -20.2502 96.637 22.0001 96.637C64.2504 96.637 98.6373 62.2502 98.6373 19.9999C98.6373 -22.2505 64.2504 -56.6373 22.0001 -56.6373Z" fill="#5363E9"/>
<path d="M22 87.5601C-15.2566 87.5601 -45.5601 57.2566 -45.5601 20C-45.5601 -17.2566 -15.2566 -47.5601 22 -47.5601C59.2566 -47.5601 89.5601 -17.2566 89.5601 20C89.5474 57.2566 59.244 87.5601 22 87.5601ZM22 -43.5272C-13.0316 -43.5272 -41.5272 -15.0316 -41.5272 20C-41.5272 55.0316 -13.0316 83.5398 22 83.5398C57.0316 83.5398 85.5272 55.0443 85.5272 20C85.5272 -15.0316 57.0316 -43.5272 22 -43.5272Z" fill="#5363E9"/>
<path d="M22.0003 74.4502C-8.025 74.4502 -32.4497 50.0254 -32.4497 20.0001C-32.4497 -10.0252 -8.025 -34.45 22.0003 -34.45C52.0256 -34.45 76.4504 -10.0252 76.4504 20.0001C76.4504 50.0254 52.0129 74.4502 22.0003 74.4502ZM22.0003 -30.4171C-5.79996 -30.4171 -28.4295 -7.80014 -28.4295 20.0128C-28.4295 47.813 -5.81261 70.4426 22.0003 70.4426C49.8132 70.4426 72.4301 47.8257 72.4301 20.0128C72.4175 -7.80014 49.8005 -30.4171 22.0003 -30.4171Z" fill="#5363E9"/>
</g>
<defs>
<linearGradient id="paint0_linear_396_3767" x1="0" y1="0" x2="1186.12" y2="388.494" gradientUnits="userSpaceOnUse">
<stop stop-color="#192BC2"/>
<stop offset="1" stop-color="#5363E9"/>
</linearGradient>
<clipPath id="clip0_396_3767">
<rect width="1240" height="224" rx="24" fill="white"/>
</clipPath>
</defs>
</svg>
