<svg width="320" height="160" viewBox="0 0 320 160" fill="none" xmlns="http://www.w3.org/2000/svg">
<path d="M319.264 87.1073L316.391 82.1082L311.898 82.7695L308.196 78.1079L310.107 73.4834L305.096 70.1583L301.352 73.9273L296.424 73.0671L294.43 67.2726L288.438 67.9062L288.1 72.97L283.635 75.2083L278.91 71.8648L274.116 75.3563L276.606 80.7162L273.756 85.0124L268.578 84.7349L267.222 91.1214L272.15 93.0175L272.576 98.382L267.486 101.319L269.929 106.868L275.218 106.045L278.721 110.087L276.87 115.127L281.714 118.545L285.495 114.457L290.742 115.877L292.375 121.287L298.206 120.894L298.955 116.034L303.957 113.167L308.048 116.427L313.221 112.575L310.597 108.043L313.147 103.478L318.394 103.862L320 97.9195L315.497 95.487L314.901 90.0716L319.264 87.1073ZM298.951 104.593C296.929 105.752 294.609 106.287 292.283 106.129C289.958 105.971 287.731 105.127 285.886 103.704C284.04 102.281 282.658 100.343 281.914 98.1353C281.17 95.9275 281.099 93.5488 281.707 91.3001C282.316 89.0514 283.579 87.0337 285.335 85.5021C287.091 83.9705 289.263 82.9937 291.575 82.6954C293.886 82.3971 296.235 82.7906 298.323 83.8262C300.411 84.8617 302.144 86.4928 303.305 88.5132C304.86 91.2228 305.275 94.4386 304.458 97.4537C303.642 100.469 301.661 103.037 298.951 104.593Z" fill="#F5F5F5"/>
<path d="M46.1898 146.112C55.0555 138.454 55.9439 125.852 54.4169 114.757C54.1624 112.908 54.1624 110.928 53.112 109.388C52.0617 107.848 49.873 106.951 48.2951 107.904C46.981 108.695 46.546 110.364 45.9121 111.77C45.0651 113.651 43.7032 115.254 41.9836 116.395C40.8592 117.13 39.434 117.657 38.1986 117.134C36.505 116.413 36.0886 114.221 35.885 112.371L34.9086 102.031C34.7282 100.181 34.5385 98.2987 33.7842 96.6015C33.03 94.9043 31.5863 93.4105 29.7771 93.1007C27.9678 92.7908 25.8995 94.0256 25.7144 95.8754C25.6357 96.6477 25.8717 97.4108 25.8995 98.1877C25.9272 98.9646 25.6589 99.8479 24.974 100.135C24.2892 100.421 23.4656 99.982 22.8548 99.4964C20.754 97.827 19.2132 95.5563 17.7649 93.2903C16.3165 91.0243 14.8821 88.7027 12.9387 86.8437C10.9953 84.9846 8.43643 83.6065 5.77116 83.7452C3.10589 83.884 0.454506 85.7939 0.0565666 88.4623C-0.341373 91.1306 1.44473 93.6186 3.31874 95.5563C6.09585 98.4332 9.27538 100.893 12.7582 102.858C13.3829 103.21 14.0585 103.594 14.3546 104.246C14.8821 105.434 13.841 106.78 12.6657 107.312C11.3331 107.909 9.82458 107.922 8.39941 108.237C6.97423 108.551 5.47964 109.351 5.07708 110.766C4.51256 112.737 6.29866 114.549 7.98759 115.687C11.3771 117.964 15.1338 119.641 19.0929 120.645C20.481 121.001 21.9802 121.292 23.1741 122.134C24.3679 122.975 25.2008 124.566 24.6733 125.935C24.1458 127.304 22.4892 127.9 21.0363 127.785C19.5833 127.669 18.2322 127.026 16.8209 126.656C14.1788 125.958 10.9166 126.471 9.51456 128.835C8.58912 130.388 8.70943 132.405 9.42665 134.07C10.1439 135.734 11.3932 137.103 12.7027 138.347C17.2651 142.704 22.8825 146.01 28.9812 147.444C35.0798 148.877 40.6047 148.868 46.2407 146.126" fill="#F5F5F5"/>
<path d="M47.1845 154.348C46.1372 149.24 44.6001 144.244 42.5943 139.43C40.1196 133.557 37.3093 127.832 34.1775 122.282C33.3538 120.802 32.541 119.342 31.7389 117.902C30.9384 116.464 30.1425 115.04 29.2772 113.694C27.611 111.116 25.8036 108.632 23.8634 106.253C22.0125 103.968 20.1987 101.864 18.4774 99.9127C16.756 97.9611 15.1041 96.1761 13.5401 94.6315C11.077 92.1455 8.42204 89.857 5.59986 87.7871C4.60039 87.0611 3.80914 86.52 3.28626 86.1593C3.02714 85.9882 2.82354 85.854 2.66622 85.7569C2.5992 85.7076 2.52798 85.6643 2.45337 85.6274C2.51147 85.6876 2.57674 85.7404 2.64771 85.7847L3.24925 86.2148C3.77675 86.594 4.55412 87.1397 5.56285 87.8981C8.35307 89.9958 10.9825 92.2991 13.4291 94.7887C14.9792 96.3564 16.6126 98.1507 18.3247 100.102C20.0367 102.054 21.8506 104.167 23.6783 106.452C25.6044 108.828 27.3993 111.307 29.0551 113.879C29.9112 115.215 30.7024 116.63 31.5076 118.069C32.3127 119.507 33.1178 120.973 33.9415 122.448C37.0663 127.99 39.8779 133.703 42.363 139.559C44.3685 144.351 45.9178 149.321 46.9902 154.404" fill="#E0E0E0"/>
<path d="M29.1755 113.694C29.2394 113.429 29.2735 113.157 29.2772 112.885C29.3234 112.367 29.3604 111.608 29.3974 110.674C29.4668 108.824 29.4761 106.23 29.4807 103.381C29.4853 100.532 29.5269 97.9611 29.6287 96.102C29.6749 95.1771 29.7212 94.4187 29.7581 93.8961C29.7895 93.6272 29.7895 93.3556 29.7581 93.0868C29.6792 93.3458 29.628 93.6124 29.6055 93.8822C29.5269 94.4002 29.4437 95.154 29.3697 96.0835C29.2032 97.9333 29.12 100.532 29.12 103.381C29.12 106.23 29.12 108.727 29.12 110.669C29.12 111.548 29.12 112.288 29.12 112.88C29.1102 113.152 29.1288 113.425 29.1755 113.694Z" fill="#E0E0E0"/>
<path d="M4.94751 111.701C5.26741 111.735 5.59007 111.735 5.90997 111.701C6.52538 111.701 7.41381 111.673 8.51508 111.701C10.7176 111.701 13.7577 111.835 17.1078 112.112C20.4579 112.39 23.4748 112.787 25.6496 113.13C26.7416 113.296 27.6208 113.449 28.227 113.555C28.5309 113.627 28.8406 113.672 29.1524 113.689C28.854 113.569 28.5438 113.481 28.227 113.426C27.6254 113.278 26.7509 113.083 25.6635 112.889C23.4887 112.482 20.4671 112.057 17.1078 111.77C14.2415 111.518 11.3643 111.414 8.48732 111.456C7.38142 111.456 6.48837 111.53 5.87295 111.58C5.56168 111.595 5.25214 111.635 4.94751 111.701Z" fill="#E0E0E0"/>
<path d="M42.2566 139.027C42.3134 138.931 42.3585 138.829 42.3908 138.722C42.4741 138.477 42.5805 138.181 42.7054 137.82C42.9784 137.034 43.344 135.892 43.7743 134.472C44.6442 131.632 45.7131 127.669 46.8375 123.285C47.9619 118.901 48.9984 114.933 49.8036 112.08C50.2015 110.693 50.5254 109.55 50.766 108.704C50.8724 108.334 50.9557 108.029 51.0251 107.779C51.0648 107.674 51.0867 107.563 51.0899 107.451C51.0357 107.549 50.9923 107.653 50.9604 107.761C50.8724 108.006 50.766 108.302 50.6411 108.662C50.3681 109.444 50.0025 110.591 49.5722 112.01C48.7069 114.85 47.6334 118.809 46.509 123.197C45.3846 127.586 44.3481 131.549 43.543 134.403C43.1496 135.79 42.8211 136.932 42.5805 137.779L42.326 138.703C42.2903 138.808 42.267 138.917 42.2566 139.027Z" fill="#E0E0E0"/>
<path d="M9.62085 132.09C9.72309 132.139 9.83238 132.172 9.94475 132.187L10.898 132.4L14.3915 133.149C17.3436 133.778 21.411 134.698 25.8993 135.72C30.3877 136.743 34.4735 137.621 37.4396 138.19C38.9203 138.477 40.1234 138.699 40.9563 138.833L41.9187 138.981C42.0295 139.005 42.1432 139.015 42.2565 139.009C42.1514 138.963 42.0411 138.93 41.928 138.911L41.0025 138.699L37.4673 137.968C34.5152 137.334 30.4479 136.419 25.9549 135.397C21.4619 134.375 17.4038 133.478 14.4378 132.923C12.9571 132.636 11.754 132.419 10.9211 132.284L9.95864 132.132C9.84793 132.105 9.73464 132.092 9.62085 132.09Z" fill="#E0E0E0"/>
<path d="M256.292 69.3351C256.765 69.0097 257.213 68.6512 257.634 68.2622C258.115 67.7941 258.522 67.2562 258.842 66.6667C259.627 65.2643 259.899 63.6322 259.61 62.0512C259.321 60.4703 258.49 59.0394 257.26 58.0049C256.755 57.5718 256.187 57.2192 255.575 56.9597C254.943 56.6777 254.27 56.4982 253.581 56.4279C252.125 56.2607 250.654 56.5638 249.384 57.2928C248.113 58.0218 247.109 59.1385 246.52 60.479C245.968 61.7258 245.796 63.1075 246.025 64.4515C246.236 65.6665 246.768 66.803 247.566 67.7442C248.202 68.4907 248.989 69.0945 249.875 69.5161C250.76 69.9377 251.725 70.1675 252.706 70.1906C253.378 70.2124 254.048 70.1329 254.696 69.9547C255.247 69.7905 255.784 69.5833 256.302 69.3351C256.302 69.3351 256.274 69.3628 256.209 69.3998L255.913 69.5617C255.757 69.6539 255.593 69.7313 255.423 69.7929C255.196 69.894 254.963 69.9775 254.724 70.0426C254.07 70.2411 253.389 70.3363 252.706 70.3247C251.7 70.3173 250.707 70.0947 249.794 69.672C248.881 69.2492 248.069 68.636 247.413 67.8737C246.585 66.909 246.03 65.74 245.807 64.4885C245.683 63.8143 245.662 63.1249 245.747 62.4445C245.819 61.7329 246.007 61.0378 246.302 60.3865C246.909 58.9973 247.947 57.8399 249.263 57.0855C250.579 56.331 252.102 56.0194 253.609 56.1967C255.008 56.3555 256.328 56.9252 257.403 57.8338C258.373 58.6574 259.105 59.7257 259.522 60.9276C259.847 61.8788 259.965 62.8881 259.871 63.8886C259.776 64.8891 259.469 65.8581 258.972 66.7314C258.637 67.3265 258.211 67.8649 257.708 68.3269C257.532 68.4965 257.341 68.6511 257.139 68.7894C256.996 68.9069 256.841 69.0092 256.676 69.0946L256.39 69.2657C256.334 69.3212 256.297 69.3397 256.292 69.3351Z" fill="#E0E0E0"/>
<path d="M268.365 58.9391L268.208 59.0547L267.745 59.3923L265.815 60.7241V60.6872C265.917 61.5612 266.042 62.6433 266.186 63.9243L266.158 63.8827L268.842 65.3256H268.883V65.3718C268.601 66.4355 268.282 67.6286 267.958 68.905V68.9651H267.902L264.784 68.7431L264.858 68.7015L263.275 71.4161V71.3329C263.761 72.1699 264.288 73.0902 264.834 74.0382L264.876 74.1076L264.811 74.1539L261.739 76.4661L261.683 76.5078L261.623 76.4615L259.189 74.5238H259.3L256.33 76.2349L256.381 76.1609C256.246 77.0535 256.094 78.0431 255.918 79.0513V79.1345H255.872L252.406 79.375H252.318L252.29 79.2917L251.318 76.0546L251.397 76.1332L248.278 75.2915L248.394 75.2591L246.145 77.687L246.076 77.7656L245.993 77.7055L243.11 75.6753L243.036 75.6198L243.068 75.5366C243.411 74.6117 243.781 73.5712 244.156 72.5399L244.179 72.6601L242.096 70.2554L242.203 70.297L239.061 70.7872H238.968L238.931 70.6993C238.469 69.6588 237.974 68.535 237.478 67.4113L237.432 67.3095L237.529 67.254L237.594 67.217C238.589 66.6482 239.584 66.0794 240.565 65.5106L240.505 65.6262C240.421 64.5533 240.338 63.4896 240.255 62.4352L240.333 62.537L237.363 61.4456L237.27 61.4086V61.3115C237.545 60.032 237.813 58.7664 238.075 57.5147V57.4176H238.177L241.254 57.5795L241.152 57.6349L242.851 55.0822V55.1932C242.346 54.111 241.856 53.052 241.37 52.0022L241.333 51.919L241.407 51.8681L244.257 49.7963L244.322 49.7501L244.387 49.7917L247.191 51.7849H247.085L249.736 50.4391L249.68 50.527C249.75 49.4911 249.819 48.4922 249.884 47.5118V47.4286H249.967L253.526 47.0586H253.604V47.1326L254.789 50.5779L254.719 50.5178L257.648 51.0357H257.57L259.8 48.802L259.846 48.7558L259.902 48.7882L262.877 50.7721L262.923 50.8045V50.86C262.493 51.8959 262.123 52.7838 261.781 53.6347V53.57L263.978 56.3447H263.932L266.607 55.9655H266.63V55.9886L267.902 58.25L268.208 58.8003C268.277 58.9206 268.305 58.9761 268.305 58.9761C268.305 58.9761 268.263 58.9159 268.189 58.7957C268.115 58.6755 268.009 58.4859 267.865 58.25L266.565 56.0256H266.602L263.932 56.4279H263.904V56.4048L261.688 53.6301V53.6023V53.5653C262.03 52.7375 262.391 51.845 262.817 50.7906L262.845 50.8739L259.86 48.9084H259.957C259.263 49.616 258.537 50.3513 257.736 51.1559L257.709 51.1883H257.662L254.77 50.6981H254.719V50.6472C254.335 49.5466 253.942 48.4043 253.526 47.202L253.627 47.2667L250.064 47.6459L250.157 47.5534C250.092 48.5338 250.027 49.5327 249.958 50.5686V50.6241L249.907 50.6519L247.256 52.0022L247.196 52.03L247.145 51.993L244.304 49.9767H244.433L241.587 52.0531L241.624 51.9144L243.105 55.1007L243.133 55.1608L243.096 55.2117L241.402 57.7691L241.365 57.8246H241.301L238.219 57.6627L238.339 57.5702C238.074 58.8188 237.807 60.0844 237.539 61.367L237.465 61.2282L240.394 62.3566L240.463 62.3844V62.4584C240.546 63.5128 240.63 64.5764 240.713 65.6493V65.7233L240.644 65.7649L237.673 67.4667L237.608 67.5084L237.659 67.3558L239.107 70.6438L238.982 70.5745L242.124 70.0889H242.189L242.235 70.1351C242.952 70.9629 243.66 71.7861 244.318 72.5399L244.364 72.5954V72.6601C243.984 73.6914 243.614 74.7134 243.272 75.6522L243.23 75.5181L246.108 77.5529H245.956L248.204 75.125L248.251 75.0741H248.32L251.439 75.9204H251.499V75.9806C251.832 77.0997 252.165 78.2003 252.466 79.2177L252.355 79.1391L255.821 78.9079L255.724 79.0004C255.881 77.9922 256.034 77.0026 256.186 76.11V76.0592L256.228 76.036L259.203 74.3342L259.259 74.3018L259.314 74.3435L261.744 76.2858H261.628L264.705 74.0012V74.1169C264.159 73.1919 263.631 72.267 263.155 71.4069L263.132 71.3653L263.155 71.3236L264.673 68.6136L264.7 68.572H264.747L267.865 68.8079L267.791 68.8587C268.138 67.5824 268.467 66.3939 268.758 65.3302L268.786 65.3996L266.116 63.9428V63.9151L265.774 60.6779V60.6548L267.713 59.3692L268.212 59.0408L268.365 58.9391Z" fill="#E0E0E0"/>
<path d="M306.493 155.523C306.493 155.593 240.579 155.644 159.288 155.644C77.9974 155.644 12.0691 155.593 12.0691 155.523C12.0691 155.454 77.9697 155.403 159.288 155.403C240.606 155.403 306.493 155.459 306.493 155.523Z" fill="#263238"/>
<path d="M294.052 91.8064L268.602 155.426H197.107L219.827 90.9323C219.907 90.7043 220.056 90.5067 220.253 90.3668C220.451 90.2269 220.686 90.1514 220.928 90.1508L292.964 90.197C293.156 90.1966 293.346 90.2434 293.515 90.3333C293.685 90.4231 293.83 90.5532 293.937 90.7122C294.044 90.8712 294.111 91.0542 294.131 91.245C294.151 91.4358 294.124 91.6286 294.052 91.8064Z" fill="#263238"/>
<path d="M290.114 93.6423L266.751 150.64C266.7 150.762 266.614 150.867 266.504 150.94C266.393 151.014 266.263 151.052 266.131 151.052H201.031C200.925 151.054 200.821 151.03 200.726 150.984C200.631 150.937 200.55 150.867 200.488 150.782C200.426 150.696 200.386 150.597 200.371 150.493C200.356 150.388 200.366 150.282 200.401 150.182L221.117 93.1845C221.164 93.0566 221.249 92.9462 221.361 92.8684C221.473 92.7906 221.606 92.7491 221.742 92.7498H289.512C289.618 92.7506 289.722 92.7772 289.816 92.8273C289.909 92.8775 289.989 92.9496 290.048 93.0375C290.107 93.1254 290.144 93.2265 290.156 93.3318C290.167 93.4372 290.153 93.5438 290.114 93.6423Z" fill="#455A64"/>
<path d="M268.588 155.528H267.954H171.463V151.052H265.951L268.588 155.528Z" fill="#263238"/>
<path d="M194.844 94.276C194.844 94.276 192.887 117.528 188.672 118.661C177.196 121.741 164.069 119.461 159.46 118.555C158.942 118.092 158.345 117.575 157.67 116.909C157.097 116.329 156.628 115.657 156.281 114.92C155.802 114.018 155.449 113.055 155.231 112.057C155.12 111.132 153.959 110.809 153.547 111.553C153.135 112.298 152.964 115.142 154.509 117.732C154.577 117.895 154.609 118.071 154.602 118.247C154.595 118.423 154.55 118.596 154.47 118.754C154.39 118.911 154.277 119.049 154.138 119.159C154 119.268 153.839 119.346 153.667 119.387C151.719 120.109 144.852 122.241 143.742 122.763C142.756 123.226 141.803 124.067 142.839 124.238C143.876 124.41 149.549 123.591 149.549 123.591C149.549 123.591 142.094 124.516 142.28 125.589C142.404 126.333 144.413 126.69 149.28 125.589C149.28 125.589 143.145 126.389 142.506 127.032C141.058 128.484 148.448 127.591 148.448 127.591C143.274 128.262 143.33 127.994 143.274 128.701C143.233 129.233 144.403 129.446 147.244 129.478C149.558 129.506 151.927 129.996 155.435 130.232C155.435 130.232 199.786 142.769 205.871 123.263C209.161 112.746 209.18 108.746 210.318 101.856" fill="#FFBE9D"/>
<path d="M151.552 127.263C151.552 127.392 149.993 127.665 148.027 127.869C146.06 128.072 144.459 128.137 144.454 128.003C144.45 127.869 146.023 127.601 147.98 127.397C149.938 127.194 151.534 127.134 151.552 127.263Z" fill="#A36957"/>
<path d="M151.506 125.251C151.506 125.381 149.859 125.765 147.805 126.107C145.75 126.449 144.029 126.625 144.006 126.5C143.982 126.375 145.648 125.986 147.707 125.64C149.766 125.293 151.483 125.122 151.506 125.251Z" fill="#A36957"/>
<path d="M151.441 123.161C151.464 123.29 149.896 123.679 147.938 124.03C145.981 124.382 144.371 124.562 144.348 124.437C144.325 124.312 145.893 123.915 147.85 123.563C149.808 123.212 151.418 123.031 151.441 123.161Z" fill="#A36957"/>
<path d="M252.402 133.964L255.285 150.746H210.313L212.035 137.705L252.402 133.964Z" fill="#263238"/>
<path d="M199.421 76.3235C199.421 76.3235 192.883 95.9455 193.304 96.727L207.69 100.061L199.421 76.3235Z" fill="#192BC2"/>
<path opacity="0.2" d="M199.421 76.3235C199.421 76.3235 192.883 95.9455 193.304 96.727L207.69 100.061L199.421 76.3235Z" fill="black"/>
<path d="M211.725 113.181L210.337 141.266L253.781 136.35L246.984 109.204C246.984 109.204 242.311 77.7293 233.792 74.2424C230.839 73.0968 227.822 72.1255 224.755 71.3335C219.328 69.794 213.645 69.3723 208.051 70.0941L207.176 70.2098C205.44 70.4007 203.793 71.075 202.422 72.1559C201.051 73.2368 200.011 74.6808 199.421 76.3234C199.421 76.3234 199.268 85.9887 202.239 92.3891L211.725 113.181Z" fill="#192BC2"/>
<path d="M222.011 150.215C221.946 150.215 221.849 147.935 221.798 145.128C221.747 142.32 221.757 140.041 221.798 140.041C221.84 140.041 221.965 142.325 222.016 145.128C222.066 147.93 222.094 150.215 222.011 150.215Z" fill="#455A64"/>
<path d="M224.408 141.298C224.408 141.298 224.454 141.224 224.597 141.174C224.727 141.137 224.863 141.132 224.995 141.158C225.127 141.184 225.251 141.241 225.357 141.324C225.463 141.406 225.548 141.513 225.605 141.635C225.662 141.757 225.689 141.89 225.685 142.025C225.68 142.228 225.613 142.426 225.493 142.591C225.373 142.756 225.206 142.881 225.014 142.949C224.821 143.004 224.617 143.005 224.425 142.951C224.232 142.897 224.058 142.791 223.922 142.644C223.814 142.527 223.735 142.387 223.689 142.235C223.643 142.083 223.633 141.922 223.658 141.766C223.755 141.229 224.084 141.049 224.088 141.076C223.954 141.292 223.866 141.533 223.829 141.784C223.818 141.925 223.84 142.067 223.895 142.198C223.95 142.328 224.035 142.444 224.144 142.535C224.253 142.625 224.382 142.688 224.521 142.719C224.659 142.749 224.803 142.746 224.94 142.709C225.084 142.655 225.21 142.562 225.303 142.441C225.396 142.319 225.453 142.173 225.467 142.02C225.475 141.894 225.448 141.768 225.388 141.657C225.329 141.546 225.239 141.454 225.13 141.391C224.91 141.269 224.651 141.236 224.408 141.298Z" fill="#455A64"/>
<path d="M253.12 144.045C253.067 144.097 253.008 144.142 252.944 144.18C252.776 144.305 252.602 144.421 252.421 144.526C251.758 144.926 251.053 145.253 250.32 145.502C247.888 146.353 245.245 146.385 242.793 145.595C240.341 144.804 238.215 143.233 236.739 141.123C236.292 140.494 235.914 139.82 235.61 139.111C235.495 138.861 235.435 138.649 235.384 138.524C235.333 138.399 235.319 138.316 235.328 138.311C235.337 138.306 235.462 138.584 235.694 139.069C236.525 140.777 237.734 142.273 239.229 143.444C241.416 145.176 244.155 146.06 246.942 145.932C248.073 145.889 249.193 145.69 250.269 145.34C250.996 145.108 251.7 144.807 252.37 144.443C252.611 144.295 252.862 144.162 253.12 144.045Z" fill="#455A64"/>
<path d="M218.041 88.805C217.883 88.9881 217.71 89.1568 217.523 89.3091C217.035 89.7503 216.517 90.1568 215.973 90.5254C215.161 91.096 214.225 91.4654 213.243 91.6029C212.029 91.6725 210.818 91.4288 209.726 90.8953C208.555 90.382 207.505 89.7854 206.487 89.4155C205.596 89.0533 204.63 88.9166 203.673 89.0178C203.03 89.0896 202.416 89.327 201.892 89.7068C201.531 89.9843 201.378 90.197 201.36 90.1693C201.385 90.1117 201.419 90.0585 201.462 90.0121C201.572 89.8694 201.698 89.7392 201.836 89.6236C202.357 89.2004 202.985 88.9299 203.65 88.842C204.635 88.7126 205.636 88.8352 206.561 89.1981C207.611 89.5635 208.671 90.16 209.823 90.6641C210.878 91.1843 212.049 91.4278 213.224 91.3717C214.177 91.2504 215.088 90.9084 215.885 90.3728C216.432 90.0193 216.961 89.6365 217.467 89.2259C217.647 89.0711 217.839 88.9304 218.041 88.805Z" fill="#FAFAFA"/>
<path d="M206.644 77.8218C206.414 78.1163 206.132 78.3657 205.811 78.5571C204.303 79.5807 202.458 79.9833 200.661 79.6809C200.289 79.641 199.928 79.5312 199.596 79.3571C199.596 79.3201 200.018 79.4358 200.684 79.5144C202.438 79.7128 204.208 79.3259 205.718 78.4137C206.297 78.0669 206.616 77.7894 206.644 77.8218Z" fill="#FAFAFA"/>
<path d="M245.924 104.279C245.83 104.371 245.729 104.456 245.623 104.533C245.313 104.755 244.98 104.941 244.628 105.088C243.306 105.566 241.883 105.695 240.496 105.463C239.545 105.321 238.603 105.126 237.674 104.88C236.611 104.593 235.528 104.384 234.435 104.256C233.234 104.153 232.026 104.241 230.853 104.515C229.586 104.819 228.348 105.23 227.151 105.745C224.685 106.767 222.353 107.881 220.049 108.358C218.011 108.783 215.903 108.73 213.89 108.201C212.542 107.864 211.217 107.439 209.924 106.929L208.869 106.508C208.746 106.463 208.627 106.409 208.513 106.346C208.641 106.374 208.766 106.413 208.888 106.462L209.957 106.841C211.256 107.316 212.581 107.714 213.927 108.034C215.917 108.531 217.995 108.568 220.002 108.14C222.27 107.678 224.583 106.55 227.059 105.518C228.264 105 229.512 104.587 230.788 104.284C231.986 104.008 233.22 103.923 234.444 104.034C235.538 104.171 236.621 104.389 237.683 104.686C238.597 104.936 239.524 105.14 240.459 105.296C241.821 105.539 243.223 105.438 244.536 105C245.025 104.816 245.491 104.573 245.924 104.279Z" fill="#FAFAFA"/>
<path d="M211.493 121.455C211.493 121.455 211.493 121.422 211.554 121.367L211.753 121.112C212.027 120.807 212.338 120.537 212.678 120.308C213.219 119.943 213.814 119.666 214.441 119.484C215.272 119.248 216.136 119.141 217 119.17C218.934 119.198 221.113 119.998 223.399 121.02C224.589 121.567 225.808 122.049 227.05 122.463C228.374 122.915 229.771 123.111 231.168 123.041C232.557 122.891 233.898 122.447 235.101 121.737C236.3 121.089 237.392 120.349 238.498 119.743C239.536 119.136 240.663 118.696 241.839 118.439C243.102 118.215 244.4 118.276 245.637 118.615C246.875 118.955 248.021 119.567 248.992 120.405C249.416 120.761 249.791 121.172 250.107 121.626C250.077 121.604 250.05 121.577 250.029 121.547C249.969 121.487 249.899 121.408 249.816 121.316C249.704 121.184 249.584 121.061 249.455 120.946C249.291 120.781 249.116 120.626 248.932 120.483C247.777 119.537 246.399 118.9 244.93 118.634C243.92 118.451 242.885 118.451 241.876 118.634C240.725 118.892 239.623 119.331 238.609 119.933C237.512 120.539 236.425 121.283 235.217 121.94C233.985 122.67 232.611 123.126 231.187 123.277C229.76 123.347 228.333 123.146 226.981 122.685C225.732 122.263 224.507 121.774 223.311 121.219C221.035 120.192 218.888 119.392 216.991 119.337C216.144 119.302 215.297 119.396 214.478 119.614C213.86 119.78 213.272 120.041 212.733 120.386C212.276 120.687 211.859 121.047 211.493 121.455Z" fill="#FAFAFA"/>
<path d="M250.732 136.29C250.514 135.764 250.239 135.263 249.913 134.796C248.961 133.561 247.642 132.658 246.146 132.216C245.128 131.889 244.059 131.747 242.99 131.795C241.762 131.853 240.547 132.072 239.377 132.447C238.078 132.86 236.81 133.364 235.582 133.955C234.296 134.551 232.982 135.222 231.594 135.828C230.257 136.438 228.862 136.91 227.429 137.238C226.077 137.506 224.696 137.596 223.32 137.506C220.996 137.314 218.712 136.782 216.541 135.929C214.691 135.231 213.238 134.542 212.233 134.08L211.091 133.525L210.794 133.372L210.697 133.312C210.736 133.318 210.774 133.33 210.808 133.349L211.109 133.478L212.275 133.996C213.284 134.459 214.746 135.092 216.602 135.772C218.759 136.593 221.023 137.102 223.325 137.284C224.679 137.369 226.039 137.276 227.369 137.007C228.801 136.687 230.196 136.223 231.534 135.62C232.922 135.018 234.227 134.352 235.522 133.77C236.76 133.177 238.039 132.673 239.349 132.262C240.538 131.887 241.772 131.672 243.018 131.624C244.117 131.583 245.214 131.74 246.257 132.086C247.776 132.552 249.105 133.494 250.047 134.773C250.29 135.124 250.494 135.501 250.653 135.897C250.695 136.026 250.732 136.128 250.76 136.211C250.753 136.238 250.743 136.265 250.732 136.29Z" fill="#FAFAFA"/>
<g opacity="0.2">
<path d="M217.619 140.336C222.029 140.16 226.444 138.69 229.817 135.846C234.444 131.952 236.716 125.838 237.22 119.817C237.725 113.796 236.651 107.793 235.582 101.828C231.453 107.609 228.097 113.906 225.601 120.557C223.963 124.923 222.524 129.69 218.897 132.618C217.601 133.663 216.055 134.445 215.042 135.763C214.029 137.081 213.811 139.254 215.158 140.234L216.352 140.623" fill="black"/>
</g>
<path d="M185.757 140.568C186.636 140.994 187.57 141.294 188.533 141.46C189.293 141.625 190.075 141.659 190.847 141.562C191.208 141.516 191.545 141.465 191.869 141.414C193.359 141.174 194.752 140.522 195.89 139.532C200.902 135.18 214.469 121.427 216.889 118.314C219.804 114.573 220.623 89.8411 220.623 89.8411L236.901 92.5048C236.901 92.5048 236.61 110.328 232.607 124.197C230.058 133.016 199.291 151.158 199.254 151.177C196.973 153.674 194.41 156.379 192.832 157.697C189.551 160.444 189.301 160.157 189.047 159.718C188.362 158.548 194.632 154.668 192.799 154.719C190.967 154.77 185.683 160.356 185.016 159.103C184.146 157.466 190.791 153.526 191.328 153.151C191.865 152.777 191.328 151.986 190.865 152.351C190.194 152.874 182.999 158.206 182.138 156.61C181.676 155.722 183.327 155.006 183.327 155.006C183.327 155.006 190.421 150.515 189.986 149.775C189.551 149.035 185.294 151.519 183.915 152.462C182.536 153.406 181.565 153.128 181.648 152.185C181.708 151.542 185.849 148.55 187.233 147.648C188.616 146.746 192.443 144.341 189.588 143.995C186.733 143.648 184.674 142.297 184.369 141.548C184.063 140.799 184.993 140.096 185.757 140.568Z" fill="#FFBE9D"/>
<path d="M226.754 73.7244C228.286 73.4105 229.873 73.487 231.368 73.9468C232.863 74.4067 234.219 75.2351 235.309 76.3558C237.206 78.3305 239.113 81.6371 238.951 86.8767C238.632 97.1016 237.826 100.588 237.826 100.588L217.768 99.8948L218.554 82.7146C218.554 82.7146 220.104 75.1257 226.754 73.7244Z" fill="#192BC2"/>
<path opacity="0.2" d="M226.754 73.7244C228.286 73.4105 229.873 73.487 231.368 73.9468C232.863 74.4067 234.219 75.2351 235.309 76.3558C237.206 78.3305 239.141 81.9053 238.979 87.1357C238.664 97.3605 237.826 100.588 237.826 100.588L217.768 99.8948L218.582 82.9782C218.582 82.9782 220.104 75.1257 226.754 73.7244Z" fill="black"/>
<path d="M238.585 94.632C238.585 94.6552 238.354 94.4286 237.91 94.1141C237.267 93.6852 236.555 93.3721 235.804 93.1892C234.692 92.9112 233.532 92.8718 232.403 93.0736C231.033 93.3953 229.703 93.8683 228.438 94.4841C227.154 95.1033 225.818 95.6063 224.445 95.987C223.305 96.2551 222.125 96.3115 220.965 96.1535C220.181 96.0512 219.424 95.8001 218.735 95.4136C218.549 95.3066 218.373 95.1844 218.207 95.0482C218.146 95.0062 218.09 94.9565 218.041 94.9003C218.041 94.8771 218.29 95.076 218.776 95.3304C219.471 95.6737 220.219 95.8958 220.988 95.987C222.127 96.1165 223.28 96.0429 224.394 95.7697C225.75 95.3814 227.071 94.877 228.341 94.2621C229.625 93.6414 230.975 93.1682 232.366 92.8516C233.525 92.6573 234.713 92.7172 235.846 93.0273C236.609 93.2308 237.327 93.5776 237.961 94.0493C238.127 94.1795 238.281 94.3234 238.423 94.4794C238.483 94.5245 238.537 94.5756 238.585 94.632Z" fill="#FAFAFA"/>
<path d="M237.766 80.1573C237.554 80.2692 237.332 80.3635 237.104 80.4394C236.892 80.5273 236.642 80.6151 236.309 80.7122C235.975 80.8094 235.638 80.9203 235.235 81.0082C234.294 81.2386 233.339 81.407 232.375 81.5123C231.193 81.6303 230.005 81.6735 228.817 81.6418C227.631 81.5957 226.45 81.4659 225.282 81.2533C224.329 81.0736 223.392 80.82 222.478 80.4949C222.124 80.3771 221.778 80.2381 221.441 80.0787C221.181 79.9719 220.927 79.8483 220.683 79.7087C220.465 79.6067 220.259 79.4827 220.067 79.3387C220.293 79.4166 220.513 79.5125 220.724 79.6255C220.974 79.7494 221.23 79.859 221.492 79.9538C221.832 80.0991 222.18 80.2257 222.533 80.333C223.441 80.6317 224.369 80.8666 225.31 81.036C226.468 81.2333 227.638 81.3554 228.813 81.4013C229.989 81.4341 231.166 81.397 232.338 81.2903C233.294 81.1918 234.242 81.0374 235.18 80.8279C235.587 80.7492 235.943 80.6567 236.258 80.5689C236.572 80.481 236.845 80.4116 237.063 80.3377C237.291 80.2553 237.527 80.1949 237.766 80.1573Z" fill="#FAFAFA"/>
<path d="M216.172 51.4757C216.144 51.7379 216.191 52.0025 216.309 52.2387C216.426 52.4748 216.608 52.6726 216.834 52.809C217.06 52.9454 217.32 53.0146 217.584 53.0086C217.847 53.0026 218.104 52.9217 218.323 52.7752C219.147 52.1832 219.064 50.9254 218.735 50.0005C218.406 49.0755 217.907 48.0489 218.175 47.0731C218.383 46.3286 218.999 45.7782 219.448 45.1493C219.842 44.5997 220.103 43.9663 220.212 43.2988C220.32 42.6312 220.272 41.9477 220.072 41.3017C219.853 40.662 219.463 40.0945 218.945 39.6607C218.426 39.227 217.798 38.9436 217.129 38.8414C215.764 38.6842 214.21 39.3362 213.09 38.5408C212.275 37.9674 212.053 36.8482 211.378 36.1129C210.332 34.9753 208.504 35.0539 207.019 35.4979C205.534 35.9418 204.071 36.6725 202.526 36.5337C201.24 36.4228 200.083 35.7152 198.824 35.3637C197.466 34.989 196.026 35.0462 194.702 35.5275C193.378 36.0087 192.238 36.8901 191.438 38.0491C190.639 39.2081 190.221 40.5871 190.241 41.9947C190.262 43.4022 190.721 44.7683 191.555 45.9031C192.126 46.7445 192.977 47.357 193.956 47.6327" fill="#263238"/>
<path d="M213.904 80.4901C211.899 80.8575 209.83 80.4154 208.151 79.2607C206.472 78.106 205.319 76.3329 204.946 74.3302C204.483 71.9485 204.132 69.9369 204.132 69.9369C204.132 69.9369 197.936 70.0293 196.83 64.0082C195.724 57.987 194.489 44.7608 194.489 44.7608L194.41 43.9607C200.888 39.7663 209.217 40.0669 216.047 43.6786L216.25 44.9226L220.17 72.0595C220.388 73.9965 219.862 75.9441 218.699 77.5089C217.537 79.0737 215.823 80.1392 213.904 80.4901Z" fill="#FFBE9D"/>
<path d="M207.139 59.4299L203.266 61.3075C203.619 61.6995 204.096 61.9591 204.617 62.0432C205.138 62.1273 205.672 62.0309 206.13 61.77C207.824 60.7895 207.139 59.4299 207.139 59.4299Z" fill="white"/>
<path d="M204.104 69.8537C206.9 69.4299 209.507 68.1857 211.595 66.2789C211.595 66.2789 210.475 70.9359 204.358 71.4168L204.104 69.8537Z" fill="#EB996E"/>
<path d="M216.541 48.983C216.666 48.9183 220.983 47.8824 221.127 53.0896C221.27 58.2969 215.958 56.7199 215.944 56.5719C215.93 56.4239 216.541 48.983 216.541 48.983Z" fill="#FFBE9D"/>
<path d="M217.509 54.699C217.532 54.699 217.601 54.7591 217.758 54.8285C217.977 54.9148 218.22 54.9148 218.439 54.8285C218.98 54.6111 219.42 53.7232 219.42 52.7844C219.42 52.337 219.322 51.8949 219.133 51.4896C219.078 51.3288 218.986 51.1834 218.864 51.0659C218.741 50.9483 218.592 50.862 218.429 50.8144C218.324 50.7901 218.214 50.8032 218.118 50.8513C218.022 50.8994 217.945 50.9796 217.902 51.078C217.832 51.226 217.869 51.3277 217.842 51.3369C217.814 51.3462 217.726 51.2537 217.763 51.0363C217.791 50.9064 217.861 50.7893 217.962 50.7034C218.102 50.5925 218.28 50.541 218.457 50.56C218.673 50.5955 218.876 50.6862 219.046 50.8231C219.216 50.96 219.348 51.1386 219.429 51.3416C219.663 51.7865 219.785 52.2817 219.785 52.7844C219.785 53.8342 219.267 54.8331 218.522 55.069C218.383 55.1143 218.236 55.1274 218.092 55.1074C217.948 55.0874 217.81 55.0347 217.689 54.9533C217.522 54.8239 217.49 54.7082 217.509 54.699Z" fill="#EB996E"/>
<path d="M193.443 47.4617C193.443 47.4617 197.343 48.7288 201.772 45.7044C204.682 43.7158 208.222 42.4672 209.11 42.9759C209.999 43.4846 210.61 46.6755 213.835 47.2027C213.835 47.2027 214.459 53.3719 216.879 52.8169C219.299 52.262 216.468 42.9666 216.468 42.9666L210.309 39.6924L203.599 39.3549L196.497 41.1446L192.739 44.1875L193.443 47.4617Z" fill="#263238"/>
<path d="M216.208 37.7501C215.286 37.9186 214.447 38.3908 213.825 39.0912C214.018 38.6355 214.356 38.2565 214.787 38.0138C215.219 37.7711 215.718 37.6783 216.208 37.7501Z" fill="#263238"/>
<path d="M213.358 35.7013C213.651 36.2924 213.794 36.9469 213.774 37.6066C213.783 38.0793 213.704 38.5496 213.543 38.994C213.491 39.1824 213.394 39.3553 213.26 39.498C213.411 38.8824 213.503 38.2536 213.533 37.6205C213.515 36.5661 213.302 35.7198 213.358 35.7013Z" fill="#263238"/>
<path d="M196.339 53.529C196.35 53.7641 196.453 53.9855 196.627 54.1448C196.8 54.3042 197.029 54.3887 197.265 54.3799C197.378 54.3824 197.49 54.3623 197.595 54.321C197.7 54.2796 197.796 54.2177 197.877 54.1389C197.958 54.0602 198.022 53.9661 198.067 53.8621C198.111 53.7582 198.134 53.6465 198.134 53.5336C198.125 53.3034 198.026 53.0861 197.858 52.928C197.69 52.7699 197.467 52.6835 197.237 52.6873C197.122 52.6804 197.007 52.697 196.898 52.7361C196.79 52.7753 196.691 52.8361 196.607 52.9149C196.522 52.9937 196.455 53.0888 196.409 53.1944C196.363 53.3 196.34 53.4138 196.339 53.529Z" fill="#263238"/>
<path d="M196.316 52.8491C196.431 52.9601 197.075 52.4283 198.028 52.3866C198.981 52.345 199.703 52.7844 199.8 52.6595C199.846 52.6086 199.726 52.4051 199.411 52.197C198.985 51.9334 198.487 51.8075 197.986 51.8363C197.491 51.8578 197.016 52.0378 196.63 52.3496C196.348 52.5855 196.26 52.7982 196.316 52.8491Z" fill="#263238"/>
<path d="M205.714 53.0389C205.734 53.2666 205.841 53.4777 206.014 53.6278C206.187 53.7778 206.411 53.8552 206.639 53.8435C206.752 53.8418 206.864 53.8174 206.968 53.7717C207.071 53.7261 207.165 53.6601 207.242 53.5778C207.32 53.4954 207.38 53.3983 207.42 53.2923C207.459 53.1862 207.477 53.0733 207.472 52.9602C207.452 52.7325 207.344 52.5214 207.172 52.3713C206.999 52.2213 206.775 52.1439 206.547 52.1556C206.433 52.1567 206.321 52.1807 206.217 52.2261C206.113 52.2715 206.02 52.3375 205.942 52.4199C205.864 52.5024 205.804 52.5998 205.765 52.7061C205.725 52.8125 205.708 52.9257 205.714 53.0389Z" fill="#263238"/>
<path d="M205.436 52.3497C205.557 52.4514 206.177 51.8872 207.125 51.804C208.074 51.7207 208.819 52.1184 208.911 51.9936C209.004 51.8687 208.823 51.7392 208.499 51.5311C208.06 51.2863 207.556 51.1829 207.056 51.2351C206.563 51.2842 206.099 51.4864 205.728 51.8132C205.473 52.0861 205.39 52.3034 205.436 52.3497Z" fill="#263238"/>
<path d="M202.692 59.7167C202.176 59.6094 201.649 59.5675 201.123 59.5918C200.878 59.5918 200.661 59.5641 200.587 59.4022C200.543 59.1534 200.575 58.8973 200.679 58.6669C200.85 58.0611 201.031 57.4229 201.216 56.7524C201.956 54.0331 202.465 51.8041 202.354 51.7717C202.243 51.7393 201.558 53.936 200.809 56.6506C200.633 57.3212 200.462 57.9594 200.304 58.5744C200.179 58.8809 200.168 59.2221 200.272 59.5363C200.316 59.6172 200.377 59.6874 200.452 59.7418C200.526 59.7961 200.612 59.8334 200.702 59.8508C200.84 59.8684 200.98 59.8684 201.119 59.8508C201.647 59.8748 202.176 59.8298 202.692 59.7167Z" fill="#263238"/>
<path d="M204.862 49.5149C204.983 49.7647 205.917 49.5519 207.042 49.5751C208.166 49.5982 209.101 49.8202 209.226 49.5751C209.281 49.4594 209.101 49.2328 208.712 49.0201C208.198 48.7603 207.632 48.6212 207.056 48.6132C206.481 48.6051 205.911 48.7285 205.39 48.9739C204.996 49.1773 204.811 49.3993 204.862 49.5149Z" fill="#263238"/>
<path d="M196.182 50.3011C196.371 50.4999 197.001 50.2132 197.787 50.1253C198.574 50.0374 199.254 50.1253 199.384 49.8895C199.439 49.7739 199.314 49.5657 199.004 49.39C198.589 49.1857 198.122 49.1083 197.663 49.1675C197.204 49.2268 196.772 49.42 196.422 49.723C196.182 49.9727 196.103 50.2039 196.182 50.3011Z" fill="#263238"/>
<path d="M28.3476 93.5633L53.1448 155.532H122.747L100.634 92.7308C100.557 92.5077 100.412 92.3143 100.219 92.1775C100.027 92.0407 99.7964 91.9674 99.5602 91.9678L29.4026 92.014C29.2181 92.015 29.0366 92.0608 28.8738 92.1475C28.7109 92.2342 28.5716 92.3591 28.4678 92.5116C28.364 92.664 28.2988 92.8394 28.2779 93.0226C28.2569 93.2058 28.2809 93.3913 28.3476 93.5633Z" fill="#263238"/>
<path d="M32.1652 95.2558L54.9357 150.75C54.9852 150.869 55.0689 150.97 55.176 151.041C55.2831 151.112 55.4088 151.149 55.5372 151.148H118.93C119.032 151.149 119.133 151.126 119.225 151.08C119.316 151.034 119.395 150.966 119.455 150.883C119.515 150.8 119.554 150.704 119.569 150.603C119.584 150.502 119.574 150.399 119.541 150.302L99.3661 94.8072C99.3191 94.6834 99.2355 94.5768 99.1264 94.5016C99.0172 94.4264 98.8878 94.3862 98.7553 94.3864H32.7668C32.662 94.3842 32.5584 94.408 32.4651 94.4556C32.3718 94.5033 32.2917 94.5733 32.2321 94.6595C32.1726 94.7456 32.1353 94.8451 32.1236 94.9492C32.1119 95.0533 32.1262 95.1586 32.1652 95.2558Z" fill="#455A64"/>
<path d="M53.145 155.528H53.7651H147.734V151.167H55.7177L53.145 155.528Z" fill="#263238"/>
<path d="M161.94 95.1771C161.94 95.1771 163.675 92.925 162.504 90.3306C161.333 87.7362 158.182 84.7811 158.182 84.7811C157.257 84.5453 158.478 79.3195 159.011 77.5853C159.543 75.8511 158.946 74.9123 157.997 75.273C157.354 75.532 155.6 80.7901 155.114 82.5105C154.851 83.4354 154.356 85.2852 153.754 86.3118C153.254 87.1489 152.681 87.4125 152.102 86.0991C150.83 83.2041 148.784 81.4468 147.938 81.3497C147.091 81.2526 146.647 82.455 147.373 83.1117C148.09 83.9011 148.696 84.7849 149.173 85.7384C149.59 86.4881 149.878 87.3026 150.025 88.1478C150.149 88.8785 150.237 89.5352 150.307 90.1179C150.465 91.571 150.453 93.0378 150.27 94.4881L132.788 115.067L128.985 101.134L128.633 100.061L113.632 105.638C113.169 105.753 116.871 116.667 119.184 123.447C119.753 125.107 120.67 126.626 121.874 127.902C123.078 129.178 124.542 130.182 126.167 130.846C128.719 131.891 131.549 132.048 134.202 131.294C136.855 130.539 139.178 128.916 140.798 126.684L159.459 99.6074L159.057 99.3346L159.436 99.5057L161.94 95.1771Z" fill="#B78876"/>
<path d="M159.598 86.1269C159.569 86.3018 159.52 86.4726 159.45 86.6356L158.955 87.9906L158.201 90.0069C158.075 90.422 157.882 90.814 157.631 91.1677C157.467 91.3618 157.239 91.4912 156.988 91.533C156.854 91.5505 156.718 91.5333 156.592 91.4831C156.467 91.4329 156.356 91.3514 156.271 91.2463C156.107 91.0474 156.013 90.8006 156.003 90.5434C155.997 90.3097 156.024 90.0763 156.081 89.8497C156.188 89.4196 156.299 89.0126 156.41 88.6242C156.637 87.8473 156.872 87.1628 157.09 86.594C157.307 86.0252 157.502 85.5673 157.645 85.2575C157.708 85.093 157.792 84.9374 157.895 84.795C157.858 84.968 157.804 85.1369 157.733 85.2991C157.617 85.6182 157.446 86.0807 157.27 86.6541C157.095 87.2276 156.854 87.9166 156.641 88.6889C156.535 89.0774 156.428 89.4843 156.331 89.9052C156.259 90.1005 156.235 90.3101 156.26 90.5167C156.285 90.7232 156.358 90.921 156.475 91.0937C156.533 91.1681 156.61 91.2263 156.697 91.2627C156.785 91.2992 156.88 91.3126 156.974 91.3018C157.168 91.2673 157.344 91.1678 157.474 91.0197C157.708 90.6859 157.89 90.3177 158.011 89.9283L158.816 87.949L159.38 86.6217C159.436 86.4498 159.509 86.284 159.598 86.1269Z" fill="#AA6550"/>
<path d="M161.366 88.157C161.345 88.3166 161.302 88.4724 161.236 88.6194C161.139 88.9015 160.986 89.3039 160.773 89.8033C160.561 90.3028 160.357 90.8947 160.089 91.5514C159.958 91.9235 159.715 92.2464 159.395 92.4763C159.212 92.6014 158.995 92.6661 158.774 92.6613C158.542 92.6496 158.322 92.5505 158.159 92.3838C158.012 92.2253 157.901 92.0361 157.836 91.8298C157.77 91.6235 157.751 91.4052 157.78 91.1907C157.821 90.816 157.897 90.446 158.006 90.0854C158.173 89.4787 158.38 88.8839 158.626 88.305C158.835 87.8148 159.029 87.4263 159.168 87.1581C159.23 87.0155 159.311 86.8817 159.408 86.7604C159.445 86.7604 159.163 87.3754 158.784 88.3697C158.563 88.9509 158.375 89.5437 158.219 90.1455C158.122 90.4939 158.054 90.8496 158.016 91.2092C157.991 91.3889 158.006 91.5718 158.06 91.7451C158.113 91.9184 158.204 92.078 158.326 92.2127C158.448 92.3297 158.608 92.4001 158.777 92.412C158.946 92.4238 159.113 92.3762 159.251 92.2775C159.533 92.0736 159.747 91.7901 159.866 91.4635L160.598 89.7386C160.806 89.2484 160.982 88.8553 161.107 88.5825C161.173 88.4292 161.26 88.286 161.366 88.157Z" fill="#AA6550"/>
<path d="M162.338 90.215C162.263 90.6645 162.145 91.1059 161.986 91.5329C161.861 91.9399 161.722 92.4116 161.523 92.9434C161.431 93.2547 161.22 93.5172 160.936 93.6741C160.85 93.7109 160.758 93.7299 160.665 93.7299C160.572 93.7299 160.48 93.7109 160.394 93.6741C160.222 93.6055 160.076 93.4841 159.978 93.3273C159.816 93.0293 159.751 92.6881 159.793 92.3515C159.828 91.5464 160.035 90.7582 160.399 90.0392C160.551 89.7398 160.732 89.4563 160.94 89.1929C161.088 89.0079 161.185 88.9155 161.199 88.9247C161.213 88.934 160.894 89.3548 160.552 90.1132C160.356 90.558 160.212 91.0234 160.121 91.5006C160.071 91.7802 160.04 92.063 160.029 92.3469C159.997 92.6348 160.05 92.9256 160.181 93.1839C160.241 93.2988 160.342 93.3872 160.463 93.4317C160.585 93.4762 160.719 93.4736 160.838 93.4244C161.063 93.2933 161.228 93.0815 161.301 92.8324C161.477 92.3284 161.644 91.8659 161.796 91.4451C161.941 91.0204 162.123 90.6089 162.338 90.215Z" fill="#AA6550"/>
<path d="M156.387 94.6777C156.346 94.6777 156.387 94.3123 156.341 93.7528C156.218 92.2457 155.513 90.8458 154.374 89.8496C153.939 89.4704 153.625 89.2901 153.643 89.2577C153.953 89.3485 154.239 89.5064 154.481 89.7201C155.098 90.1968 155.601 90.8055 155.953 91.5017C156.304 92.1979 156.495 92.9639 156.512 93.7435C156.536 94.0602 156.493 94.3783 156.387 94.6777Z" fill="#AA6550"/>
<path d="M59.2156 150.75L104.46 150.982L105.025 143.004L69.7286 127.309C66.6711 131.008 64.6412 135.447 63.8428 140.179L59.2156 150.75Z" fill="#263238"/>
<path d="M80.5795 135.397C80.4614 135.566 80.3248 135.721 80.1723 135.859C80.0073 136.037 79.8311 136.204 79.6448 136.359C79.4097 136.576 79.1625 136.78 78.9045 136.969C78.5993 137.21 78.2794 137.43 77.9467 137.631C77.5713 137.871 77.1836 138.092 76.7852 138.292C74.9505 139.219 72.9356 139.735 70.8809 139.804C70.4355 139.828 69.9891 139.828 69.5437 139.804C69.1561 139.786 68.7699 139.746 68.3869 139.684C68.0751 139.642 67.7661 139.582 67.4614 139.504C67.2227 139.459 66.9876 139.398 66.7581 139.319C66.5575 139.273 66.3633 139.203 66.1797 139.111C66.1797 139.06 67.0265 139.342 68.4285 139.517C68.7755 139.554 69.1596 139.601 69.5714 139.605C69.9832 139.61 70.4275 139.605 70.8902 139.605C72.9042 139.499 74.8762 138.988 76.6881 138.102C77.0999 137.89 77.4932 137.695 77.8449 137.473C78.1745 137.278 78.4942 137.067 78.8027 136.84C79.9456 136.007 80.5425 135.36 80.5795 135.397Z" fill="#455A64"/>
<path d="M92.8833 150.08C93.0323 149.557 93.2147 149.044 93.4293 148.545C93.8134 147.546 94.2946 146.274 94.8175 144.873C95.3403 143.471 95.854 142.209 96.2473 141.21C96.4255 140.695 96.642 140.194 96.8951 139.712C96.7723 140.243 96.6084 140.764 96.4046 141.27C96.0714 142.195 95.5948 143.522 95.0442 144.97C94.4936 146.417 93.9707 147.694 93.5728 148.619C93.3738 149.081 93.2072 149.451 93.0823 149.705C93.0328 149.838 92.9659 149.964 92.8833 150.08Z" fill="#455A64"/>
<path d="M93.1378 139.342C92.8781 139.463 92.6652 139.666 92.5317 139.92C92.4679 140.05 92.4382 140.194 92.4455 140.339C92.4528 140.484 92.4967 140.624 92.5733 140.747C92.6616 140.902 92.795 141.027 92.9558 141.104C93.1165 141.181 93.297 141.208 93.4732 141.18C93.6494 141.153 93.8131 141.072 93.9424 140.95C94.0718 140.827 94.1608 140.668 94.1975 140.493C94.2326 140.353 94.2315 140.206 94.1943 140.066C94.1571 139.926 94.0849 139.798 93.9846 139.693C93.7787 139.496 93.517 139.367 93.235 139.323C93.235 139.323 93.3183 139.277 93.4802 139.286C93.7148 139.309 93.935 139.41 94.1049 139.573C94.2382 139.694 94.3369 139.848 94.3906 140.019C94.4442 140.191 94.4511 140.374 94.4103 140.549C94.3689 140.77 94.2599 140.972 94.0984 141.129C93.9368 141.286 93.7306 141.388 93.5083 141.423C93.2859 141.457 93.0583 141.422 92.8569 141.322C92.6555 141.221 92.4901 141.061 92.3836 140.863C92.292 140.708 92.2437 140.532 92.2437 140.352C92.2437 140.172 92.292 139.996 92.3836 139.841C92.495 139.635 92.6727 139.472 92.888 139.379C93.0407 139.319 93.1332 139.328 93.1378 139.342Z" fill="#455A64"/>
<path d="M123.738 83.2505C123.738 83.2505 130.355 102.701 129.98 103.497L116.593 107.164L123.738 83.2505Z" fill="#192BC2"/>
<path opacity="0.2" d="M123.738 83.2505C123.738 83.2505 130.355 102.701 129.98 103.497L116.593 107.164L123.738 83.2505Z" fill="black"/>
<path d="M112.891 115.479L108.667 133.39L105.923 143.411L69.7148 127.309L81.2088 108.81C81.2088 108.81 87.5018 83.084 96.3814 78.33C102.836 74.8708 108.32 76.0732 109.139 76.0732L116.852 77.1415C117.023 77.1646 117.19 77.1923 117.356 77.2247C121.47 78.034 124.26 81.877 124.047 86.0576C123.881 89.4058 123.321 95.0709 121.475 99.3069C118.999 105 112.891 115.479 112.891 115.479Z" fill="#192BC2"/>
<path d="M107.265 139.393L107.001 139.272C106.743 139.153 106.492 139.017 106.251 138.865C105.321 138.284 104.509 137.535 103.854 136.655C102.802 135.261 102.184 133.588 102.078 131.845C102.011 130.753 102.223 129.661 102.693 128.673C102.949 128.131 103.307 127.644 103.748 127.239C104.221 126.811 104.804 126.524 105.432 126.412C105.95 126.359 106.473 126.409 106.972 126.559C107.47 126.709 107.934 126.956 108.337 127.286C108.74 127.615 109.073 128.021 109.319 128.48C109.564 128.938 109.717 129.441 109.768 129.959C109.825 130.71 109.688 131.463 109.37 132.146C109.042 132.863 108.558 133.498 107.955 134.005C107.352 134.513 106.644 134.881 105.881 135.083C104.257 135.491 102.541 135.327 101.023 134.62C99.4513 133.866 98.0765 132.758 97.0062 131.383C96.4409 130.691 95.9304 129.957 95.4793 129.186C95.0077 128.399 94.6554 127.547 94.4335 126.657C94.2074 125.747 94.1963 124.797 94.4011 123.882C94.6079 122.935 95.116 122.08 95.8494 121.445C96.2345 121.131 96.6788 120.899 97.1558 120.76C97.6327 120.622 98.1326 120.581 98.6258 120.64C99.125 120.695 99.6023 120.875 100.014 121.163C100.416 121.463 100.735 121.861 100.939 122.319C101.328 123.246 101.346 124.287 100.99 125.228C100.624 126.134 100.01 126.92 99.218 127.494C97.6957 128.549 95.9351 129.211 94.094 129.42C92.2528 129.63 90.3885 129.379 88.668 128.691C87.0625 128.003 85.6799 126.882 84.6747 125.454C83.7064 124.101 83.1605 122.492 83.1061 120.83C83.0844 120.031 83.2131 119.236 83.4856 118.485C83.7506 117.751 84.2095 117.102 84.8136 116.607C85.4107 116.14 86.1384 115.871 86.8958 115.835C87.2623 115.812 87.6298 115.862 87.9769 115.982C88.3239 116.102 88.6438 116.289 88.9179 116.533C89.4266 117.024 89.742 117.68 89.8063 118.383C89.8786 119.046 89.7799 119.716 89.5194 120.33C88.9827 121.452 88.0225 122.315 86.8495 122.73C85.8322 123.115 84.7536 123.312 83.666 123.313C81.9276 123.336 80.2046 122.986 78.6131 122.286C77.6126 121.848 76.6782 121.272 75.8368 120.575C75.5453 120.335 75.3371 120.141 75.2029 120.007C75.0687 119.872 74.9993 119.798 74.9993 119.798C74.9993 119.798 75.0779 119.859 75.2214 119.988C75.3648 120.118 75.573 120.307 75.8646 120.538C78.0822 122.295 80.8412 123.229 83.6706 123.179C84.7406 123.173 85.8004 122.972 86.7986 122.587C87.3383 122.372 87.841 122.074 88.2886 121.704C88.759 121.318 89.129 120.825 89.3667 120.266C89.6131 119.682 89.7055 119.045 89.6351 118.416C89.572 117.756 89.2749 117.141 88.7976 116.681C88.5405 116.456 88.2413 116.284 87.9174 116.174C87.5934 116.065 87.2509 116.02 86.9097 116.043C86.1919 116.076 85.5025 116.334 84.9385 116.779C84.3661 117.254 83.9315 117.873 83.6799 118.573C83.4188 119.299 83.2979 120.068 83.3236 120.839C83.3784 122.462 83.913 124.033 84.8598 125.353C85.8414 126.75 87.194 127.845 88.7652 128.516C90.4467 129.188 92.2687 129.432 94.068 129.227C95.8673 129.022 97.5876 128.374 99.0746 127.341C99.8308 126.794 100.418 126.046 100.768 125.181C101.103 124.301 101.086 123.326 100.722 122.458C100.534 122.033 100.237 121.666 99.8612 121.394C99.4797 121.138 99.0412 120.979 98.5841 120.931C98.1275 120.882 97.6655 120.923 97.2247 121.052C96.784 121.181 96.3732 121.397 96.016 121.685C95.3154 122.286 94.8284 123.097 94.6279 123.998C94.4287 124.88 94.4382 125.797 94.6556 126.675C95.0813 128.432 96.1039 129.954 97.1821 131.3C98.2293 132.648 99.5737 133.737 101.111 134.481C102.582 135.17 104.244 135.333 105.821 134.944C106.555 134.752 107.237 134.401 107.818 133.913C108.399 133.426 108.864 132.816 109.18 132.127C109.49 131.478 109.624 130.759 109.569 130.042C109.523 129.549 109.379 129.069 109.147 128.631C108.916 128.193 108.6 127.806 108.217 127.49C107.835 127.174 107.395 126.937 106.921 126.792C106.447 126.646 105.949 126.596 105.455 126.643C104.858 126.748 104.301 127.019 103.85 127.424C103.422 127.817 103.074 128.288 102.823 128.812C102.362 129.775 102.151 130.839 102.207 131.906C102.301 133.628 102.899 135.284 103.929 136.669C104.569 137.548 105.364 138.303 106.275 138.898C106.511 139.051 106.755 139.191 107.006 139.319L107.265 139.393Z" fill="#FAFAFA"/>
<path d="M118.129 104.843C118.129 104.843 118.097 104.81 118.041 104.741L117.796 104.436C117.497 104.03 117.238 103.596 117.024 103.141C116.249 101.434 116.044 99.5243 116.44 97.6929C116.697 96.42 117.286 95.2377 118.148 94.2661C118.406 94.0016 118.723 93.8019 119.073 93.6835C119.259 93.6238 119.455 93.6025 119.649 93.6208C119.843 93.6391 120.031 93.6966 120.202 93.7898C120.547 93.9862 120.822 94.2853 120.989 94.6454C121.149 95.01 121.232 95.4034 121.234 95.8015C121.22 97.458 120.64 99.06 119.592 100.343C119.048 101.025 118.385 101.601 117.634 102.045C116.859 102.513 115.976 102.774 115.071 102.803C114.153 102.811 113.264 102.482 112.572 101.878C111.904 101.305 111.399 100.564 111.11 99.7324C110.837 98.9381 110.704 98.1026 110.717 97.2629C110.702 96.4605 110.802 95.6601 111.013 94.8858C111.124 94.5072 111.303 94.1516 111.54 93.8361C111.776 93.513 112.122 93.2863 112.512 93.1979C112.896 93.1235 113.293 93.1944 113.627 93.3967C113.938 93.5904 114.203 93.8492 114.405 94.1552C114.593 94.4394 114.735 94.7515 114.826 95.0801C114.914 95.4011 114.963 95.7321 114.969 96.0651C114.982 96.6877 114.878 97.3072 114.664 97.8918C114.293 98.8944 113.683 99.7913 112.887 100.505C112.295 101.038 111.651 101.512 110.967 101.92C110.402 102.257 109.953 102.493 109.648 102.65L109.301 102.826C109.262 102.85 109.22 102.869 109.176 102.882L109.287 102.808L109.625 102.609C109.921 102.438 110.365 102.188 110.916 101.841C111.587 101.423 112.216 100.942 112.794 100.403C113.562 99.6972 114.148 98.8167 114.502 97.8363C114.703 97.2696 114.799 96.6709 114.784 96.0697C114.776 95.7562 114.727 95.4451 114.636 95.1448C114.553 94.8288 114.419 94.5287 114.238 94.2569C114.055 93.9749 113.81 93.7391 113.521 93.5679C113.234 93.3901 112.889 93.3289 112.558 93.3967C111.873 93.5355 111.438 94.2384 111.221 94.9413C111.024 95.696 110.931 96.4739 110.943 97.2536C110.935 98.0669 111.067 98.8756 111.332 99.6445C111.607 100.435 112.086 101.138 112.72 101.684C113.37 102.25 114.205 102.557 115.066 102.549C115.929 102.518 116.77 102.268 117.509 101.823C118.236 101.395 118.879 100.838 119.407 100.181C120.42 98.9403 120.984 97.3937 121.008 95.7923C121.008 95.4247 120.933 95.0609 120.785 94.724C120.64 94.4047 120.399 94.1382 120.096 93.9609C119.949 93.8815 119.788 93.832 119.622 93.8153C119.456 93.7986 119.288 93.8151 119.129 93.8638C118.814 93.975 118.529 94.157 118.296 94.3956C117.447 95.3395 116.86 96.489 116.593 97.73C116.36 98.7477 116.316 99.7995 116.464 100.833C116.571 101.615 116.783 102.378 117.093 103.104C117.301 103.557 117.544 103.993 117.819 104.408L118.046 104.727C118.111 104.806 118.134 104.838 118.129 104.843Z" fill="#FAFAFA"/>
<path d="M107.047 99.3995C107.047 99.3995 107.047 115.844 111.165 117.403C122.368 121.639 135.768 120.663 140.483 120.219C141.048 119.826 141.7 119.345 142.44 118.744L144 117.444C144 117.444 151.403 118.855 151.292 119.243C151.181 119.632 148.405 120.529 145.545 119.886C145.461 120.044 145.412 120.217 145.402 120.396C145.391 120.574 145.42 120.752 145.485 120.918C145.55 121.084 145.65 121.234 145.779 121.358C145.908 121.482 146.061 121.576 146.23 121.634C148.113 122.559 154.786 125.376 155.845 126.014C156.771 126.583 157.659 127.517 156.604 127.582C155.549 127.646 149.937 126.264 149.937 126.264C149.937 126.264 157.34 127.928 157.035 128.992C156.831 129.727 154.781 129.885 150.006 128.298C150.006 128.298 156.081 129.713 156.66 130.426C157.969 132.026 150.644 130.389 150.644 130.389C155.767 131.582 155.734 131.314 155.734 132.021C155.734 132.558 154.527 132.655 151.676 132.405C149.363 132.201 146.924 132.456 143.38 132.34C143.38 132.34 97.6214 140.484 93.4569 120.307C91.2081 109.426 91.606 105.411 91.1433 98.3821" fill="#B78876"/>
<path d="M147.54 129.746C147.507 129.871 149.067 130.301 151.019 130.708C152.972 131.115 154.569 131.327 154.592 131.198C154.615 131.068 153.055 130.638 151.117 130.236C149.178 129.834 147.595 129.616 147.54 129.746Z" fill="#AA6550"/>
<path d="M147.789 127.73C147.757 127.859 149.39 128.409 151.436 128.964C153.481 129.519 155.174 129.861 155.207 129.732C155.239 129.602 153.61 129.052 151.56 128.502C149.511 127.952 147.826 127.605 147.789 127.73Z" fill="#AA6550"/>
<path d="M148.058 125.639C148.021 125.769 149.557 126.314 151.487 126.865C153.416 127.415 155.012 127.757 155.049 127.628C155.086 127.498 153.55 126.953 151.621 126.402C149.691 125.852 148.099 125.514 148.058 125.639Z" fill="#AA6550"/>
<path d="M98.6072 83.3106C97.1251 83.1813 95.6349 83.4434 94.286 84.0708C92.9371 84.6982 91.7769 85.6688 90.9214 86.8854C89.3667 89.0589 87.9369 92.5551 88.6402 97.7392C90.0284 107.858 91.1343 111.234 91.1343 111.234L109.74 108.288L107.195 91.3157C107.195 91.3157 104.951 83.9488 98.6072 83.3106Z" fill="#192BC2"/>
<path opacity="0.2" d="M98.6072 83.3106C97.1251 83.1813 95.6349 83.4434 94.286 84.0708C92.9371 84.6982 91.7769 85.6688 90.9214 86.8854C89.3667 89.0589 87.9369 92.5551 88.6402 97.7392C90.0284 107.858 91.1343 111.234 91.1343 111.234L109.74 108.288L107.195 91.3157C107.195 91.3157 104.951 83.9488 98.6072 83.3106Z" fill="black"/>
<path d="M145.485 117.754C145.351 117.749 145.218 117.732 145.087 117.703C144.828 117.662 144.439 117.583 143.954 117.514C143.69 117.536 143.439 117.636 143.232 117.801C142.964 117.982 142.709 118.182 142.468 118.397C141.88 118.927 141.322 119.491 140.798 120.085C139.357 120.508 137.866 120.735 136.365 120.76C134.598 120.781 132.831 120.708 131.071 120.543C126.805 120.242 122.928 120.007 120.142 119.618C118.754 119.433 117.629 119.239 116.861 119.077C116.473 119.003 116.181 118.924 115.978 118.878C115.873 118.858 115.771 118.829 115.672 118.79C115.778 118.791 115.884 118.805 115.987 118.832L116.875 118.984C117.648 119.119 118.772 119.285 120.165 119.447C122.941 119.789 126.814 120.002 131.09 120.302C132.941 120.446 134.722 120.575 136.36 120.534C137.842 120.516 139.315 120.305 140.742 119.905L140.701 119.933C141.236 119.339 141.807 118.78 142.413 118.258C142.662 118.04 142.928 117.842 143.209 117.666C143.439 117.49 143.719 117.389 144.009 117.38C144.509 117.472 144.879 117.565 145.138 117.62C145.258 117.654 145.374 117.699 145.485 117.754Z" fill="#AA6550"/>
<path d="M108.463 98.8167C108.417 98.8365 108.369 98.8505 108.32 98.8584L107.889 98.9509L107.182 99.0202C106.856 99.0278 106.529 99.0139 106.205 98.9786C104.753 98.8153 103.383 98.2172 102.277 97.2629C101.794 96.8629 101.372 96.3957 101.023 95.8755C100.624 95.3067 100.331 94.6707 100.157 93.998C100.068 93.6353 100.038 93.2604 100.07 92.8881C100.098 92.4881 100.25 92.1067 100.504 91.7967C100.646 91.6424 100.818 91.5182 101.008 91.4316C101.199 91.345 101.406 91.2977 101.615 91.2926C102.036 91.2923 102.451 91.3955 102.823 91.5932C103.588 92.0126 104.204 92.6589 104.586 93.443C104.992 94.2544 105.175 95.1597 105.113 96.0651C105.059 97.0133 104.719 97.9227 104.137 98.6734C103.522 99.4525 102.719 100.063 101.804 100.449C100.889 100.835 99.8912 100.983 98.9035 100.879C97.9217 100.749 96.9783 100.414 96.1348 99.8952C95.2913 99.3765 94.5666 98.686 94.0079 97.8687C93.442 97.1112 93.0861 96.2179 92.976 95.279C92.925 94.8106 92.9788 94.3367 93.1334 93.8916C93.2904 93.4629 93.5474 93.0777 93.883 92.7678C94.2073 92.4558 94.6187 92.2494 95.0629 92.1759C95.4969 92.108 95.9413 92.181 96.3307 92.384C96.6953 92.5779 97.0133 92.8487 97.2626 93.1777C97.5119 93.5068 97.6865 93.8861 97.7744 94.2893C97.9459 95.0271 97.9459 95.7944 97.7744 96.5322C97.6189 97.2084 97.3514 97.854 96.9832 98.4422C96.4304 99.3307 95.6507 100.056 94.7245 100.544C93.7982 101.031 92.7587 101.264 91.7128 101.217C91.1473 101.199 90.5875 101.098 90.0516 100.916C89.8649 100.857 89.6837 100.781 89.5103 100.69C89.5103 100.69 89.7 100.764 90.0701 100.87C90.6035 101.029 91.1563 101.113 91.7128 101.12C92.5933 101.14 93.4674 100.965 94.2716 100.606C95.3343 100.125 96.2276 99.3358 96.8351 98.3404C97.1909 97.7712 97.4475 97.1457 97.594 96.4906C97.756 95.7814 97.756 95.0448 97.594 94.3356C97.5118 93.9621 97.3492 93.6109 97.1175 93.3066C96.8857 93.0024 96.5904 92.7522 96.2521 92.5736C95.9007 92.3914 95.5001 92.3265 95.1092 92.3886C94.7087 92.46 94.3384 92.6482 94.0449 92.9297C93.7384 93.2165 93.5038 93.5714 93.3601 93.9656C93.2216 94.3743 93.1727 94.8081 93.2166 95.2373C93.3307 96.135 93.6732 96.9885 94.2115 97.7161C94.7486 98.5067 95.4458 99.1758 96.2581 99.6801C97.0703 100.184 97.9794 100.513 98.9266 100.643C99.8735 100.744 100.83 100.603 101.708 100.234C102.586 99.8654 103.356 99.2808 103.947 98.5347C104.479 97.8267 104.802 96.9842 104.879 96.1024C104.957 95.2206 104.786 94.3347 104.387 93.5448C104.199 93.1746 103.961 92.8322 103.679 92.5274C103.402 92.2348 103.08 91.9881 102.726 91.7967C102.386 91.6118 102.006 91.5148 101.62 91.5146C101.438 91.5163 101.259 91.5553 101.094 91.6293C100.928 91.7033 100.779 91.8107 100.657 91.9447C100.427 92.2209 100.29 92.5621 100.264 92.9204C100.232 93.2721 100.257 93.6265 100.338 93.9702C100.503 94.6214 100.782 95.2383 101.162 95.7923C101.499 96.3089 101.907 96.7759 102.374 97.1797C102.787 97.5386 103.241 97.8489 103.725 98.1046C104.501 98.5199 105.346 98.7925 106.219 98.9092C106.967 98.9949 107.725 98.9637 108.463 98.8167Z" fill="#FAFAFA"/>
<path d="M98.6764 47.5166C98.3395 46.5662 97.744 45.7286 96.957 45.098C96.1699 44.4673 95.2224 44.0685 94.2211 43.9465C93.2197 43.8244 92.2041 43.984 91.2885 44.4071C90.3728 44.8303 89.5934 45.5003 89.0379 46.3419C88.3346 47.4056 88.0338 48.6542 87.5896 49.8797C87.1454 51.1052 86.4929 52.2937 85.3685 52.8995C84.0544 53.6117 82.3238 53.362 81.13 54.2869C79.7974 55.2812 79.7419 57.4778 80.8802 58.708C82.0184 59.9381 83.9387 60.2063 85.5074 59.5913C85.1283 60.5633 84.9141 61.5917 84.8734 62.6342C84.8579 63.157 84.9713 63.6756 85.2037 64.1441C85.4361 64.6127 85.7804 65.0169 86.2061 65.3211C86.6725 65.5707 87.1951 65.6966 87.7241 65.6869C88.253 65.6772 88.7707 65.5321 89.2276 65.2656C90.1381 64.7232 90.9196 63.9894 91.5181 63.1152C91.6679 63.8502 91.9252 64.5592 92.2816 65.2193C92.462 65.548 92.7112 65.8338 93.0123 66.0572C93.3133 66.2807 93.6591 66.4366 94.026 66.5142C94.4849 66.5538 94.9458 66.4674 95.3592 66.2645C95.7726 66.0616 96.1228 65.7498 96.372 65.3627C96.8594 64.5788 97.1499 63.6887 97.2188 62.7683C97.4866 60.5085 97.3392 58.2188 96.7838 56.0119C96.4368 54.5967 95.9463 53.1493 96.2193 51.7203C96.4923 50.2913 97.899 48.9455 99.2918 49.3802" fill="#263238"/>
<path d="M80.4363 57.2698C80.508 57.32 80.5878 57.3576 80.6723 57.3808C80.9065 57.4657 81.1461 57.5352 81.3895 57.5889C82.5168 57.8277 83.6854 57.7883 84.794 57.474C85.9027 57.1598 86.9179 56.5801 87.7519 55.7853C88.3415 55.2219 88.8326 54.5638 89.2048 53.8383C89.5834 53.056 89.8573 52.2273 90.0192 51.3735C90.1698 50.5452 90.3959 49.7326 90.6948 48.9456C90.9811 48.2336 91.4622 47.6166 92.0829 47.1651C92.6113 46.785 93.2159 46.524 93.855 46.4003C94.4942 46.2765 95.1525 46.2929 95.7847 46.4483C96.6465 46.6716 97.4407 47.1018 98.0983 47.7016C98.561 48.127 98.7739 48.423 98.8016 48.3999C98.8294 48.3767 98.7692 48.312 98.6767 48.1686C98.5385 47.9651 98.3837 47.7733 98.214 47.5952C97.5648 46.9336 96.7523 46.455 95.8587 46.2078C95.1856 46.0222 94.4798 45.9878 93.7918 46.1069C93.1038 46.2261 92.4507 46.4958 91.8793 46.8969C91.2027 47.381 90.6766 48.0463 90.3616 48.8161C90.047 49.6226 89.81 50.4573 89.6537 51.3087C89.4992 52.1309 89.2395 52.9298 88.8809 53.6857C88.4057 54.6186 87.7292 55.4344 86.9002 56.0742C86.0712 56.7139 85.1104 57.1618 84.0871 57.3854C83.2109 57.5724 82.3081 57.6006 81.4219 57.4686C80.7879 57.3484 80.4455 57.2374 80.4363 57.2698Z" fill="#455A64"/>
<path d="M92.638 65.8113C92.638 65.8113 92.7074 65.779 92.8231 65.6865C92.9984 65.555 93.1542 65.3993 93.2858 65.224C93.7567 64.5846 94.0417 63.8277 94.1094 63.0366C94.2129 61.8765 94.0791 60.7074 93.7161 59.6006C93.3644 58.3519 92.8231 57.0293 92.6148 55.5865C92.4038 54.2338 92.6722 52.85 93.3737 51.6741C93.9419 50.7098 94.7821 49.9344 95.7891 49.445C96.4713 49.1131 97.2082 48.9078 97.9639 48.8392C98.2455 48.8346 98.5266 48.8146 98.806 48.7791C98.53 48.6978 98.2414 48.668 97.9546 48.6913C97.1686 48.7052 96.3939 48.8799 95.678 49.2046C94.5979 49.6843 93.6893 50.4811 93.0729 51.4891C92.3107 52.734 92.0155 54.209 92.24 55.6512C92.4575 57.1634 93.0174 58.4907 93.3829 59.7116C93.7505 60.7749 93.9077 61.8995 93.8457 63.0227C93.81 63.7786 93.5771 64.512 93.1701 65.15C92.8508 65.5894 92.6102 65.7836 92.638 65.8113Z" fill="#455A64"/>
<path d="M123.533 57.0477C127.161 48.6634 122.187 43.5579 118.948 41.7266C117.018 40.6352 114.723 40.404 112.511 40.3392C110.321 40.2336 108.126 40.4344 105.992 40.9358C103.848 41.4435 101.892 42.5446 100.346 44.1129C97.695 46.9523 97.1073 51.1561 97.3387 55.0314C97.6255 59.6142 98.9464 64.0727 101.202 68.0727C101.452 68.6088 101.844 69.0662 102.336 69.3953C102.587 69.5492 102.886 69.605 103.175 69.5521C103.465 69.4992 103.725 69.3412 103.905 69.1086" fill="#263238"/>
<path d="M117.315 77.9833L117.18 73.5714C117.18 73.5714 122.34 72.7159 123.409 65.9872C123.941 62.639 123.774 57.1543 123.492 52.6685C123.432 51.7096 123.178 50.7728 122.746 49.9147C122.313 49.0567 121.711 48.2952 120.976 47.6762C120.241 47.0572 119.387 46.5936 118.468 46.3135C117.548 46.0333 116.581 45.9423 115.626 46.0461L103.951 47.2809C103.361 47.3422 102.816 47.6231 102.423 48.0677C102.031 48.5123 101.82 49.0882 101.832 49.681L103.382 78.5613C103.472 80.3395 104.243 82.0149 105.535 83.2408C106.827 84.4666 108.542 85.149 110.323 85.1467C111.258 85.1541 112.185 84.9725 113.048 84.6128C113.911 84.2532 114.693 83.7229 115.346 83.0539C115.999 82.3848 116.51 81.5908 116.848 80.7194C117.187 79.8481 117.345 78.9174 117.315 77.9833Z" fill="#B78876"/>
<path d="M122.326 56.4698C122.327 56.6949 122.241 56.9118 122.086 57.0748C121.931 57.2378 121.718 57.3342 121.493 57.3438C121.383 57.352 121.272 57.3381 121.168 57.3031C121.063 57.2681 120.966 57.2126 120.883 57.1399C120.8 57.0672 120.732 56.9787 120.683 56.8795C120.635 56.7803 120.607 56.6725 120.6 56.5622C120.599 56.3376 120.685 56.1212 120.84 55.959C120.996 55.7967 121.208 55.7012 121.433 55.6928C121.543 55.684 121.654 55.6972 121.758 55.7317C121.863 55.7662 121.96 55.8212 122.043 55.8936C122.126 55.966 122.194 56.0542 122.243 56.1531C122.291 56.2521 122.32 56.3597 122.326 56.4698Z" fill="#263238"/>
<path d="M122.303 55.5031C122.192 55.6141 121.54 55.1285 120.61 55.1331C119.68 55.1377 118.999 55.5956 118.902 55.4846C118.805 55.3736 118.958 55.2302 119.258 55.0221C119.665 54.7386 120.151 54.5898 120.647 54.5967C121.129 54.5956 121.599 54.7478 121.989 55.0314C122.257 55.2487 122.354 55.4522 122.303 55.5031Z" fill="#263238"/>
<path d="M113.016 56.7103C113.018 56.9354 112.932 57.1522 112.776 57.3153C112.621 57.4783 112.408 57.5747 112.183 57.5843C112.073 57.5925 111.962 57.5786 111.858 57.5436C111.753 57.5086 111.656 57.4531 111.573 57.3804C111.49 57.3077 111.422 57.2191 111.374 57.12C111.325 57.0208 111.297 56.913 111.29 56.8027C111.289 56.5781 111.375 56.3617 111.531 56.1994C111.686 56.0372 111.899 55.9417 112.123 55.9333C112.233 55.9252 112.343 55.9388 112.448 55.9735C112.552 56.0083 112.649 56.0633 112.732 56.1356C112.815 56.2078 112.883 56.2958 112.932 56.3945C112.98 56.4931 113.009 56.6004 113.016 56.7103Z" fill="#263238"/>
<path d="M113.169 55.6742C113.062 55.7852 112.405 55.3043 111.48 55.3043C110.554 55.3043 109.87 55.7667 109.768 55.6603C109.666 55.554 109.828 55.406 110.124 55.1979C110.531 54.916 111.017 54.7688 111.512 54.7771C111.995 54.7779 112.466 54.9299 112.859 55.2118C113.122 55.4199 113.22 55.6233 113.169 55.6742Z" fill="#263238"/>
<path d="M116.542 62.5601C117.031 62.4053 117.538 62.3136 118.051 62.2873C118.287 62.2642 118.513 62.2179 118.55 62.056C118.571 61.8112 118.516 61.5657 118.393 61.3531L117.69 59.5449C116.718 56.9737 116.01 54.8602 116.117 54.8232C116.223 54.7862 117.093 56.8396 118.069 59.4062C118.301 60.0444 118.532 60.6456 118.74 61.2236C118.887 61.5083 118.932 61.8351 118.865 62.1485C118.831 62.233 118.778 62.3084 118.71 62.3687C118.641 62.4289 118.56 62.4723 118.472 62.4954C118.341 62.5321 118.205 62.5508 118.069 62.5509C117.563 62.6167 117.05 62.6198 116.542 62.5601Z" fill="#263238"/>
<path d="M117.181 73.5482C114.011 73.596 110.891 72.7635 108.167 71.1434C108.167 71.1434 110.355 75.768 117.093 75.1344L117.181 73.5482Z" fill="#AA6550"/>
<path d="M116.13 64.7985C115.953 64.5755 115.722 64.4012 115.459 64.292C115.196 64.1828 114.91 64.1422 114.626 64.1742C114.422 64.1937 114.223 64.2541 114.041 64.3518C113.86 64.4495 113.7 64.5825 113.571 64.743C113.447 64.8974 113.374 65.0863 113.36 65.284C113.347 65.4817 113.395 65.6786 113.497 65.8482C113.648 66.0149 113.844 66.1333 114.061 66.1885C114.279 66.2436 114.508 66.233 114.719 66.1581C115.157 66.0008 115.559 65.7588 115.904 65.4459C116.01 65.373 116.101 65.2804 116.172 65.1731C116.206 65.1216 116.224 65.0613 116.224 64.9996C116.224 64.938 116.206 64.8777 116.172 64.8262" fill="#AA6550"/>
<path d="M113.816 63.1844C113.964 63.1844 113.969 64.1834 114.83 64.8955C115.69 65.6077 116.768 65.5014 116.778 65.6447C116.778 65.7048 116.537 65.8389 116.084 65.8528C115.492 65.8598 114.917 65.6584 114.459 65.284C114.019 64.9276 113.737 64.4128 113.673 63.8504C113.627 63.448 113.738 63.1844 113.816 63.1844Z" fill="#263238"/>
<path d="M113.585 54.0466C113.497 54.3009 112.567 54.1807 111.48 54.3148C110.392 54.4489 109.504 54.7402 109.36 54.5136C109.296 54.4073 109.448 54.1668 109.823 53.9263C110.295 53.621 110.833 53.4324 111.392 53.376C111.95 53.3071 112.517 53.3737 113.044 53.5702C113.423 53.7321 113.627 53.9356 113.585 54.0466Z" fill="#263238"/>
<path d="M121.96 52.8117C121.794 53.0245 121.155 52.8117 120.387 52.8117C119.619 52.8117 118.967 52.9505 118.814 52.7285C118.749 52.6221 118.851 52.414 119.138 52.2105C119.517 51.9653 119.964 51.8456 120.415 51.8683C120.866 51.8754 121.305 52.0224 121.669 52.2892C121.942 52.4926 122.03 52.71 121.96 52.8117Z" fill="#263238"/>
<path d="M123.492 52.6451C122.317 46.9106 120.716 49.1813 118.907 46.4436C116.288 49.0934 110.258 52.1456 106.58 52.7468C106.198 52.7752 105.828 52.8941 105.502 53.0937C104.937 53.5145 104.891 54.3284 104.891 55.036C104.964 57.0293 104.8 59.0242 104.4 60.9785C103.998 62.9446 102.994 64.7368 101.527 66.1072C99.3059 61.4317 99.0838 55.9933 100.079 50.9109C100.486 48.8345 101.171 46.6609 102.827 45.3614C104.012 44.4365 105.539 44.0388 107.029 43.7659C110.707 43.0908 114.599 42.9289 118.102 44.2284C121.604 45.5279 124.325 47.1557 124.792 50.8646" fill="#263238"/>
<path d="M98.0518 48.6173C98.2863 48.7833 98.5394 48.9214 98.806 49.0289C99.1042 49.1777 99.4137 49.3029 99.7314 49.4035L100.324 49.6116L101.009 49.7827C102.138 50.0508 103.291 50.2057 104.451 50.2452C107.3 50.3518 110.142 49.8798 112.803 48.8578C113.405 48.5896 113.988 48.3722 114.497 48.0809L115.237 47.6831L115.894 47.2623C116.27 47.0222 116.629 46.7565 116.968 46.4669L117.393 46.1247L117.717 45.7963C117.928 45.6037 118.119 45.3898 118.287 45.1581C118.226 45.0934 117.407 46.0091 115.746 47.0357L115.094 47.4288L114.353 47.7988C113.849 48.0762 113.271 48.2612 112.678 48.5294C111.365 49.0072 110.012 49.3662 108.634 49.6023C107.257 49.8223 105.864 49.9229 104.47 49.9029C103.328 49.8768 102.192 49.7483 101.073 49.5191C99.1669 49.1214 98.0841 48.5433 98.0518 48.6173Z" fill="#455A64"/>
<path d="M99.958 44.0851C100.131 44.262 100.326 44.4173 100.536 44.5475C100.772 44.7231 101.023 44.8778 101.286 45.01L101.772 45.2736L102.341 45.5141C104.449 46.3281 106.694 46.7285 108.953 46.6933C111.2 46.698 113.44 46.4482 115.63 45.9488C116.472 45.7592 117.143 45.5696 117.597 45.417C117.841 45.3589 118.076 45.2687 118.296 45.1487C118.296 45.0886 117.254 45.3707 115.579 45.6852C113.395 46.1024 111.177 46.313 108.953 46.3141C106.737 46.3457 104.532 45.9904 102.438 45.2643C101.592 44.9136 100.764 44.52 99.958 44.0851Z" fill="#455A64"/>
<path d="M120.646 42.6239C120.646 42.5823 120.415 42.536 120.054 42.6239C119.585 42.7623 119.168 43.0373 118.857 43.4138C118.545 43.7903 118.353 44.2511 118.305 44.7373C118.282 45.1073 118.37 45.3246 118.416 45.32C118.462 45.3154 118.481 44.4321 119.147 43.6552C119.813 42.8782 120.665 42.7302 120.646 42.6239Z" fill="#455A64"/>
<path d="M85.8685 49.8705C85.8197 49.7773 85.752 49.6954 85.6696 49.63C85.4357 49.4262 85.1451 49.2987 84.8367 49.2646C84.3509 49.2066 83.8601 49.3194 83.4485 49.5837C83.1664 49.7625 82.9402 50.0167 82.7954 50.3176C82.6506 50.6184 82.5932 50.9538 82.6295 51.2856C82.6738 51.6846 82.8145 52.0669 83.0394 52.3996C83.2642 52.7323 83.5666 53.0055 83.9205 53.1955C84.3408 53.3915 84.8065 53.4697 85.2678 53.4216C85.7291 53.3736 86.1687 53.2011 86.5395 52.9227C86.9503 52.6381 87.2828 52.2548 87.5066 51.8082C87.7197 51.3424 87.8407 50.8399 87.8629 50.3283C87.9323 49.3109 87.7564 48.2842 87.9415 47.2853C88.1379 46.3436 88.571 45.4673 89.2001 44.7391C89.8291 44.0109 90.6333 43.4548 91.5369 43.1232C92.2811 42.8688 93.0735 42.7865 93.8542 42.8827C94.6349 42.9788 95.3836 43.2508 96.0438 43.6782C96.9554 44.2474 97.692 45.0572 98.1723 46.0182C98.5054 46.7026 98.5748 47.1327 98.635 47.1235C98.6403 47.0189 98.6278 46.9141 98.598 46.8136C98.5384 46.5194 98.4468 46.2325 98.325 45.9581C97.8776 44.9355 97.141 44.0659 96.2057 43.4562C95.561 43.029 94.8373 42.735 94.0772 42.5914C93.1952 42.4307 92.2866 42.5008 91.4397 42.7949C90.4716 43.1366 89.6082 43.7222 88.9329 44.4951C88.2577 45.268 87.7935 46.202 87.5852 47.2067C87.3909 48.2981 87.5852 49.334 87.5112 50.2959C87.495 50.7592 87.3881 51.2148 87.1966 51.637C87.0053 52.0322 86.7172 52.3727 86.359 52.6267C86.0394 52.8727 85.6596 53.0286 85.2593 53.0782C84.8589 53.1278 84.4525 53.0693 84.0824 52.9088C83.7694 52.7455 83.5001 52.5095 83.2972 52.2206C83.0943 51.9317 82.9637 51.5984 82.9164 51.2486C82.8777 50.9617 82.9195 50.6696 83.0372 50.4051C83.1548 50.1405 83.3437 49.9138 83.5827 49.7502C83.9546 49.4924 84.4038 49.3699 84.8552 49.4034C85.233 49.4512 85.5869 49.6143 85.8685 49.8705Z" fill="#263238"/>
<path d="M103.549 52.9042C103.778 52.9573 104.013 52.976 104.248 52.9596C104.711 52.9596 105.354 52.9596 106.163 52.9596C108.282 52.9243 110.383 52.5624 112.392 51.8867C114.422 51.1812 116.195 49.8847 117.482 48.164C117.858 47.6403 118.162 47.0677 118.384 46.4621C118.477 46.2443 118.537 46.0135 118.56 45.7777C118.198 46.5595 117.765 47.3058 117.264 48.0067C115.958 49.6246 114.226 50.8452 112.262 51.5307C110.286 52.1912 108.23 52.5832 106.15 52.696C105.28 52.7176 104.411 52.7871 103.549 52.9042Z" fill="#263238"/>
<path d="M93.9941 69.3398C93.9941 69.3398 94.0173 69.6126 94.3134 69.978C94.5311 70.2308 94.7981 70.4366 95.098 70.5829C95.3979 70.7292 95.7245 70.8129 96.0579 70.8289C97.0557 70.8557 98.0242 70.4905 98.7555 69.8115C99.2172 69.4146 99.5114 68.8578 99.5792 68.253C99.6157 67.9164 99.5516 67.5764 99.3952 67.276C99.2387 66.9757 98.9969 66.7283 98.7 66.565C98.3797 66.4164 98.0139 66.399 97.681 66.5166C97.348 66.6341 97.0743 66.8773 96.9185 67.194C96.8567 67.3523 96.8308 67.5224 96.8428 67.692C96.8548 67.8616 96.9044 68.0263 96.9879 68.1744C97.1335 68.452 97.3659 68.6745 97.6496 68.808C98.16 69.0222 98.7332 69.0322 99.2506 68.8357C99.6889 68.6835 100.084 68.4281 100.403 68.0912C100.87 67.6186 101.171 67.0065 101.259 66.3477C101.308 66.1124 101.294 65.868 101.217 65.6401C101.185 65.6401 101.217 65.8945 101.115 66.3246C100.978 66.9272 100.666 67.4758 100.218 67.9015C99.9169 68.1947 99.5505 68.4119 99.1488 68.5351C98.7107 68.6908 98.23 68.6759 97.8023 68.4935C97.5869 68.3995 97.4131 68.2302 97.3135 68.0174C97.2139 67.8047 97.1952 67.5629 97.2609 67.3373C97.3811 67.1175 97.5798 66.951 97.8175 66.8713C98.0551 66.7915 98.3141 66.8044 98.5427 66.9073C98.7698 67.0398 98.9535 67.2352 99.0718 67.47C99.1901 67.7047 99.2377 67.9687 99.209 68.2299C99.1477 68.7435 98.9009 69.2172 98.5149 69.5618C97.854 70.191 96.9798 70.5478 96.0671 70.5607C95.4517 70.5508 94.8629 70.3078 94.4198 69.8809C94.1144 69.5664 94.0265 69.3259 93.9941 69.3398Z" fill="#263238"/>
<path d="M132.598 151.167C132.598 151.231 115.802 151.287 95.0857 151.287C74.3697 151.287 57.5684 151.231 57.5684 151.167C57.5684 151.102 74.3605 151.046 95.0857 151.046C115.811 151.046 132.598 151.102 132.598 151.167Z" fill="#455A64"/>
<path d="M34.3315 124.321C35.1363 124.452 35.9061 124.745 36.5948 125.181C37.2835 125.618 37.8767 126.189 38.3387 126.86C39.2552 128.209 39.8504 129.75 40.0785 131.364C40.606 134.463 39.7777 137.987 38.6394 140.914C35.4698 139.444 33.767 135.79 33.0313 133.843C31.8559 130.81 31.5783 124.594 34.3315 124.321Z" fill="#192BC2"/>
<path d="M43.0214 145.039C42.5996 144.232 42.3992 143.328 42.4406 142.418C42.4821 141.508 42.7639 140.625 43.2574 139.86C43.7639 139.104 44.4152 138.456 45.1737 137.954C45.9322 137.452 46.7828 137.104 47.6764 136.932C48.5 136.761 49.4347 136.747 50.0871 137.275C50.3783 137.54 50.5929 137.879 50.7085 138.256C50.8241 138.632 50.8364 139.033 50.7442 139.416C50.5518 140.18 50.1589 140.879 49.6059 141.441C47.8059 143.425 45.7052 145.039 43.0214 145.039Z" fill="#192BC2"/>
<path d="M42.4381 155.153C42.3874 154.942 42.3579 154.727 42.3502 154.51C42.304 154.048 42.2438 153.465 42.1698 152.758C41.9146 150.82 41.9755 148.854 42.3502 146.935C42.7571 145.01 43.669 143.227 44.9924 141.77C45.3991 141.338 45.8557 140.956 46.3528 140.632C46.4867 140.542 46.6258 140.46 46.7692 140.387C46.8166 140.357 46.868 140.333 46.9219 140.318C46.268 140.777 45.6619 141.3 45.1127 141.881C43.8515 143.336 42.9777 145.085 42.5723 146.968C42.0587 149.174 42.2484 151.25 42.3317 152.725C42.3826 153.465 42.4196 154.071 42.4381 154.487C42.4573 154.709 42.4573 154.932 42.4381 155.153Z" fill="#263238"/>
<path d="M34.9653 129.02C35.0076 129.103 35.0432 129.19 35.0718 129.279C35.1412 129.478 35.2337 129.741 35.3448 130.037C35.5715 130.698 35.8954 131.66 36.2702 132.854C37.0429 135.235 38.0656 138.537 39.1159 142.214C40.1663 145.89 41.0362 149.238 41.6331 151.666C41.9339 152.882 42.1653 153.868 42.318 154.552C42.392 154.876 42.4475 155.135 42.4892 155.338C42.5152 155.43 42.5307 155.525 42.5354 155.62C42.4995 155.533 42.4701 155.443 42.4475 155.352L42.2347 154.575C42.0496 153.868 41.7719 152.896 41.4758 151.708C40.8419 149.289 39.9442 145.95 38.8985 142.274C37.8527 138.597 36.8486 135.295 36.1221 132.9C35.7612 131.725 35.4697 130.763 35.2522 130.065C35.1597 129.75 35.0856 129.491 35.0255 129.293C34.994 129.205 34.9738 129.113 34.9653 129.02Z" fill="#263238"/>
<path d="M39.1667 148.11C38.336 146.381 37.1054 144.875 35.5765 143.716C34.0477 142.557 32.2646 141.779 30.375 141.446C29.4125 141.284 28.2326 141.34 27.719 142.167C27.2054 142.995 27.6912 144.082 28.2835 144.859C29.5515 146.455 31.2637 147.64 33.2045 148.266C35.1452 148.891 37.2278 148.929 39.1898 148.374" fill="#192BC2"/>
<path d="M31.6011 144.17C31.8036 144.178 32.005 144.204 32.2027 144.249C32.4381 144.285 32.6713 144.335 32.9014 144.397C33.1698 144.475 33.4844 144.531 33.8268 144.656C34.1933 144.773 34.5532 144.911 34.905 145.067C35.3101 145.238 35.7055 145.431 36.0895 145.645C36.9707 146.144 37.7933 146.74 38.5419 147.421C39.2754 148.116 39.9274 148.891 40.4854 149.733C40.7264 150.104 40.9458 150.489 41.1424 150.885C41.3195 151.224 41.474 151.575 41.6052 151.935C41.7233 152.228 41.8253 152.527 41.9105 152.832C41.9855 153.057 42.0458 153.287 42.091 153.521C42.1427 153.718 42.1768 153.919 42.1928 154.122C42.1419 154.122 41.9892 153.276 41.4571 151.995C41.3129 151.644 41.1492 151.301 40.9666 150.968C40.7669 150.583 40.546 150.209 40.3049 149.849C39.1996 148.188 37.7192 146.81 35.9831 145.826C35.607 145.607 35.2193 145.41 34.8217 145.234C34.4561 145.053 34.0952 144.928 33.7713 144.803C32.4526 144.346 31.5919 144.221 31.6011 144.17Z" fill="#263238"/>
<path d="M146.86 4.45292C143.33 4.21523 139.8 4.89244 136.609 6.41894C133.419 7.94545 130.677 10.2695 128.649 13.166C126.621 16.0626 125.376 19.4334 125.035 22.952C124.693 26.4707 125.266 30.0179 126.699 33.25C129.087 38.6469 133.714 42.8367 135.754 48.3862C137.143 52.1691 137.263 56.3404 138.693 60.1094C141.631 67.8602 150.603 72.79 158.724 71.1205C163.601 70.1216 167.978 67.074 172.957 66.7642C178.288 66.4312 184.358 69.1412 188.583 65.867C191.535 63.5779 192.035 59.1845 190.966 55.6097C189.897 52.035 187.593 48.9828 185.7 45.7641C183.808 42.5454 182.267 38.8272 182.97 35.16C183.604 31.8349 185.964 29.148 187.445 26.1005C188.841 23.2351 189.459 20.0526 189.234 16.8733C189.009 13.6939 187.951 10.6297 186.166 7.98875C184.38 5.34785 181.93 3.2234 179.062 1.82906C176.195 0.434716 173.01 -0.180348 169.829 0.0457214C165.591 0.346317 161.616 2.1129 157.539 3.28291C153.463 4.45292 151.422 4.61016 146.86 4.45292Z" fill="#F5F5F5"/>
<path d="M157.026 18.0445C157.026 18.0445 149.182 17.9659 146.485 24.7779C143.787 31.5898 146.878 34.8779 148.086 36.8803C149.293 38.8827 152.537 43.2391 152.565 47.3457L163.101 47.2763C163.647 43.6413 164.905 40.1495 166.803 37.0006C169.954 31.7563 169.579 27.9318 168.718 25.6473C167.858 23.3627 165.049 17.7069 157.026 18.0445Z" fill="#192BC2"/>
<path d="M159.418 46.9989L159.39 46.8324C159.39 46.7168 159.348 46.5595 159.316 46.3699C159.251 45.9352 159.163 45.3109 159.048 44.5201C158.83 42.9061 158.506 40.5615 158.303 37.648C158.252 36.9173 158.21 36.1543 158.187 35.3357C158.164 34.5172 158.145 33.7079 158.187 32.8477C158.223 31.9499 158.432 31.0675 158.802 30.2487C159.206 29.3686 159.919 28.6674 160.806 28.2787C161.283 28.0909 161.804 28.0447 162.306 28.1456C162.808 28.2465 163.271 28.4902 163.638 28.8475C163.828 29.0334 163.978 29.2559 164.08 29.5015C164.182 29.747 164.233 30.0107 164.23 30.2765C164.214 30.8173 164.022 31.3382 163.684 31.761C163.351 32.1921 162.917 32.535 162.421 32.7599C161.927 32.9904 161.406 33.1582 160.871 33.2593C159.785 33.4747 158.683 33.5923 157.576 33.6108C156.472 33.6408 155.366 33.5774 154.272 33.4212C153.733 33.3361 153.207 33.1806 152.708 32.9587C152.216 32.741 151.772 32.4264 151.404 32.0338C151.038 31.6451 150.783 31.1663 150.663 30.6464C150.553 30.1254 150.623 29.5825 150.862 29.1065C151.088 28.6334 151.48 28.2598 151.963 28.0567C152.203 27.9702 152.458 27.933 152.712 27.9473C152.967 27.9616 153.216 28.0271 153.444 28.1399C153.886 28.3573 154.264 28.6855 154.541 29.0926C154.798 29.4757 154.984 29.9017 155.091 30.3505C155.246 31.227 155.324 32.115 155.327 33.005C155.401 34.7207 155.471 36.3161 155.531 37.7775C155.651 40.6864 155.744 43.0449 155.813 44.682C155.841 45.4959 155.864 46.1248 155.883 46.5595C155.883 46.7723 155.883 46.9341 155.883 47.0497C155.883 47.1654 155.883 47.2162 155.883 47.2162V47.0497C155.883 46.9341 155.883 46.7723 155.855 46.5873C155.855 46.1526 155.795 45.519 155.753 44.7097C155.674 43.0726 155.563 40.7141 155.42 37.8053C155.355 36.3485 155.276 34.7484 155.198 33.0373C155.192 32.155 155.112 31.2747 154.957 30.406C154.862 29.9596 154.684 29.5346 154.434 29.1527C154.172 28.7672 153.813 28.4577 153.393 28.2555C153.183 28.1505 152.953 28.0893 152.719 28.0758C152.484 28.0623 152.249 28.0967 152.028 28.1769C151.582 28.3661 151.221 28.7137 151.015 29.1527C150.791 29.5969 150.725 30.1045 150.83 30.591C150.943 31.0886 151.187 31.5469 151.538 31.9182C152.283 32.6713 153.262 33.1504 154.314 33.2778C155.397 33.4344 156.492 33.4979 157.585 33.4674C158.681 33.4487 159.773 33.3326 160.848 33.1206C161.372 33.0218 161.881 32.8587 162.365 32.635C162.835 32.4251 163.248 32.1084 163.573 31.7101C163.888 31.314 164.067 30.828 164.087 30.3227C164.09 30.0768 164.043 29.8328 163.949 29.6055C163.856 29.3781 163.716 29.1722 163.541 29.0001C163.195 28.6641 162.76 28.4348 162.287 28.3396C161.814 28.2445 161.324 28.2875 160.875 28.4637C160.021 28.8369 159.333 29.5097 158.941 30.3551C158.579 31.1583 158.373 32.0231 158.335 32.9032C158.28 33.7541 158.303 34.5819 158.335 35.3774C158.367 36.1728 158.395 36.9358 158.437 37.6619C158.627 40.5754 158.937 42.9154 159.136 44.5386L159.372 46.3884C159.396 46.595 159.415 46.7568 159.427 46.874C159.426 46.9157 159.423 46.9574 159.418 46.9989Z" fill="#263238"/>
<path d="M152.561 47.1931L163.134 47.0266L163.249 53.7045L160.177 57.3671L156.123 57.5382L152.69 53.4409L152.561 47.1931Z" fill="#E0E0E0"/>
<path d="M160.177 57.367C159.902 57.0858 159.571 56.8643 159.207 56.7164C158.842 56.5684 158.451 56.497 158.058 56.5069C157.669 56.5309 157.29 56.6364 156.945 56.8165C156.599 56.9965 156.296 57.2471 156.054 57.552L160.177 57.367Z" fill="#455A64"/>
<path d="M162.967 53.1542C162.833 53.1154 162.704 53.061 162.583 52.9924C162.342 52.8768 161.986 52.7241 161.537 52.5623C159.171 51.7202 156.578 51.7745 154.249 52.7149C153.81 52.8953 153.458 53.0617 153.222 53.1774C153.101 53.2459 152.976 53.3061 152.847 53.3577C152.952 53.2663 153.067 53.1871 153.19 53.1219C153.517 52.9243 153.857 52.7497 154.208 52.5993C156.548 51.5839 159.194 51.5291 161.574 52.4467C161.929 52.5791 162.275 52.7335 162.611 52.9091C162.736 52.9808 162.855 53.0627 162.967 53.1542Z" fill="#263238"/>
<path d="M162.981 51.5355C162.849 51.4888 162.721 51.4331 162.597 51.369C162.356 51.258 162 51.1008 161.551 50.9435C160.377 50.5306 159.139 50.3302 157.895 50.3516C156.65 50.3793 155.419 50.6316 154.263 51.0961C153.8 51.2719 153.472 51.443 153.236 51.5586C153.118 51.633 152.993 51.6936 152.861 51.739C152.969 51.6513 153.083 51.5724 153.203 51.5031C153.532 51.3092 153.872 51.1362 154.221 50.9851C156.562 49.9698 159.208 49.9149 161.588 50.8325C161.944 50.961 162.291 51.1156 162.624 51.295C162.752 51.3607 162.872 51.4414 162.981 51.5355Z" fill="#263238"/>
<path d="M162.898 49.991C162.766 49.9505 162.639 49.8963 162.518 49.8291C162.273 49.7135 161.917 49.5609 161.468 49.399C160.294 48.9853 159.056 48.7848 157.812 48.8071C156.568 48.8393 155.34 49.0914 154.184 49.5516C153.722 49.732 153.393 49.8985 153.157 50.0141C153.036 50.0844 152.909 50.1447 152.778 50.1944C152.884 50.1024 153 50.0232 153.125 49.9586C153.451 49.7618 153.789 49.5873 154.138 49.436C156.48 48.4223 159.127 48.3675 161.509 49.2834C161.864 49.4158 162.21 49.5703 162.546 49.7459C162.67 49.8165 162.788 49.8986 162.898 49.991Z" fill="#263238"/>
<g opacity="0.2">
<path d="M151.296 36.8948C151.153 37.0566 150.787 37.0289 150.26 36.756C149.537 36.3456 148.906 35.7897 148.409 35.1236C147.649 34.1359 147.097 33.0049 146.785 31.7985C146.379 30.2868 146.342 28.6999 146.677 27.171C147.012 25.6421 147.709 24.2158 148.71 23.0118C149.495 22.044 150.47 21.2462 151.574 20.6672C152.301 20.269 153.103 20.0265 153.929 19.955C154.517 19.9273 154.855 20.0521 154.929 20.2602C155.063 20.7227 154.077 21.3424 152.902 22.5355C152.224 23.2108 151.626 23.9618 151.12 24.7738C150.525 25.725 150.093 26.7692 149.843 27.863C149.616 28.9611 149.571 30.0891 149.709 31.2019C149.832 32.1497 150.062 33.0805 150.394 33.9767C150.968 35.5536 151.602 36.5433 151.296 36.8948Z" fill="white"/>
</g>
<g opacity="0.2">
<path d="M154.674 40.6307C154.644 40.9159 154.531 41.1861 154.35 41.4084C154.168 41.6307 153.926 41.7956 153.653 41.8829C153.38 41.9703 153.087 41.9764 152.81 41.9005C152.533 41.8246 152.285 41.6699 152.094 41.4554C151.904 41.2408 151.78 40.9756 151.737 40.6919C151.695 40.4083 151.736 40.1184 151.855 39.8576C151.975 39.5968 152.168 39.3763 152.41 39.223C152.652 39.0696 152.934 38.9899 153.221 38.9937C153.63 39.021 154.012 39.2081 154.284 39.5145C154.555 39.8208 154.696 40.2218 154.674 40.6307Z" fill="white"/>
</g>
<path d="M144.379 20.514C144.352 20.5464 142.991 19.5891 141.381 18.3497C139.771 17.1103 138.457 16.0883 138.48 16.0374C138.503 15.9866 139.868 16.9623 141.478 18.2017C143.088 19.4411 144.407 20.477 144.379 20.514Z" fill="#263238"/>
<path d="M146.596 17.5774C146.139 17.1373 145.719 16.6592 145.342 16.1484C144.923 15.6732 144.544 15.1643 144.208 14.627C144.668 15.0664 145.089 15.5445 145.467 16.0559C145.887 16.5295 146.265 17.0385 146.596 17.5774Z" fill="#263238"/>
<path d="M151.422 16.9021C151.38 16.9021 150.844 15.4269 150.224 13.5771C149.604 11.7272 149.136 10.2104 149.178 10.1965C149.22 10.1826 149.756 11.6717 150.376 13.5216C150.996 15.3714 151.464 16.8882 151.422 16.9021Z" fill="#263238"/>
<path d="M157.349 15.6212C157.194 15.0708 157.089 14.5074 157.035 13.9379C156.929 13.3754 156.878 12.8039 156.882 12.2314C157.038 12.7818 157.144 13.3452 157.197 13.9148C157.303 14.4773 157.354 15.0488 157.349 15.6212Z" fill="#263238"/>
<path d="M163.166 17.6282C163.12 17.6282 163.568 15.857 164.165 13.6973C164.762 11.5376 165.285 9.79419 165.327 9.80807C165.368 9.82194 164.92 11.5793 164.323 13.7389C163.726 15.8986 163.208 17.6421 163.166 17.6282Z" fill="#263238"/>
<path d="M168.066 20.0469C168.349 19.4718 168.678 18.9212 169.052 18.4005C169.379 17.8507 169.753 17.3307 170.172 16.8467C169.889 17.4217 169.559 17.9724 169.186 18.493C168.859 19.0429 168.484 19.5628 168.066 20.0469Z" fill="#263238"/>
<path d="M175.821 19.0342C175.844 19.0712 174.484 20.0979 172.777 21.3465C171.069 22.5952 169.667 23.5478 169.639 23.5108C169.612 23.4738 170.977 22.4472 172.684 21.1985C174.391 19.9499 175.821 18.9972 175.821 19.0342Z" fill="#263238"/>
</svg>
