<svg width="96" height="40" viewBox="0 0 96 40" fill="none" xmlns="http://www.w3.org/2000/svg">
<path d="M9.38083 19.492C8.46034 19.098 7.73307 18.5563 7.19902 17.867C6.66496 17.1788 6.36645 16.4016 6.30566 15.5343H10.716C10.7778 15.9522 10.9711 16.2768 11.2967 16.5091C11.6213 16.7414 12.024 16.8575 12.5038 16.8575C12.875 16.8575 13.1692 16.7805 13.3863 16.6252C13.6034 16.4711 13.7108 16.2692 13.7108 16.0217C13.7108 15.6972 13.5328 15.4573 13.1768 15.302C12.8207 15.1479 12.2324 14.9764 11.4129 14.7919C10.4848 14.6062 9.71082 14.3978 9.0921 14.1655C8.47337 13.9332 7.93497 13.5544 7.47907 13.028C7.02208 12.5026 6.79413 11.7905 6.79413 10.8928C6.79413 10.1189 7.00254 9.41873 7.42045 8.79241C7.83836 8.16608 8.45275 7.66677 9.26577 7.29553C10.0777 6.9243 11.0568 6.73868 12.202 6.73868C13.904 6.73868 15.2424 7.15659 16.2183 7.99241C17.193 8.82823 17.7575 9.92673 17.9127 11.2879H13.8042C13.7271 10.87 13.5447 10.5487 13.2593 10.3251C12.9727 10.1015 12.5895 9.98861 12.1108 9.98861C11.7396 9.98861 11.4563 10.0581 11.2641 10.1981C11.0709 10.337 10.9732 10.5313 10.9732 10.7778C10.9732 11.0871 11.1513 11.3227 11.5073 11.4855C11.8633 11.6483 12.4354 11.8144 13.2245 11.9848C14.1678 12.1867 14.9537 12.4103 15.58 12.6578C16.2063 12.9053 16.7556 13.3037 17.2278 13.8529C17.7 14.4022 17.9355 15.149 17.9355 16.0923C17.9355 16.851 17.7152 17.5316 17.2745 18.1351C16.8337 18.7387 16.2063 19.2141 15.3944 19.5626C14.5825 19.911 13.6262 20.0847 12.5276 20.0847C11.3499 20.0836 10.3013 19.886 9.38083 19.492Z" fill="#192BC2"/>
<path d="M20.0223 9.87028C20.5792 8.86512 21.3575 8.09117 22.355 7.54952C23.3537 7.00786 24.4945 6.73758 25.7787 6.73758C27.434 6.73758 28.8267 7.19023 29.9567 8.09552C31.0867 9.00081 31.8139 10.2654 32.1385 11.8904H27.3103C27.0313 11.0393 26.4896 10.6138 25.6853 10.6138C25.1133 10.6138 24.6606 10.8505 24.3274 11.3216C23.9941 11.7938 23.828 12.4863 23.828 13.3992C23.828 14.3121 23.9941 15.0089 24.3274 15.4876C24.6595 15.9674 25.1122 16.2073 25.6853 16.2073C26.5059 16.2073 27.0476 15.7818 27.3103 14.9308H32.1385C31.8139 16.5406 31.0856 17.8008 29.9567 18.7137C28.8267 19.6266 27.434 20.0836 25.7787 20.0836C24.4945 20.0836 23.3537 19.8133 22.355 19.2716C21.3575 18.73 20.5792 17.9571 20.0223 16.9509C19.4655 15.9457 19.1865 14.7615 19.1865 13.4003C19.1865 12.0532 19.4655 10.8765 20.0223 9.87028Z" fill="#192BC2"/>
<path d="M45.8913 8.28113C46.7651 9.27869 47.2026 10.629 47.2026 12.3311V19.9208H42.6533V12.9346C42.6533 12.1921 42.4601 11.6081 42.0737 11.1826C41.6862 10.7571 41.1684 10.5444 40.5182 10.5444C39.8376 10.5444 39.3035 10.7571 38.9171 11.1826C38.5296 11.6081 38.3364 12.1921 38.3364 12.9346V19.9208H33.7871V2.74518H38.3364V8.75658C38.7391 8.16824 39.284 7.69281 39.9722 7.32917C40.6604 6.96554 41.4539 6.78426 42.3516 6.78426C43.8376 6.78426 45.0164 7.28249 45.8913 8.28113Z" fill="#192BC2"/>
<path d="M52.041 19.2716C51.0119 18.73 50.2032 17.9571 49.6149 16.9509C49.0266 15.9457 48.7324 14.7615 48.7324 13.4003C48.7324 12.0543 49.0309 10.8776 49.6269 9.87246C50.2228 8.8673 51.0347 8.09335 52.0638 7.5517C53.0928 7.01004 54.2575 6.73976 55.5568 6.73976C56.8573 6.73976 58.0209 7.01113 59.0499 7.5517C60.079 8.09335 60.892 8.8673 61.4868 9.87246C62.0828 10.8787 62.3813 12.0543 62.3813 13.4003C62.3813 14.7463 62.0828 15.9262 61.4868 16.94C60.8909 17.9539 60.0746 18.7311 59.038 19.2727C58.0013 19.8144 56.8323 20.0847 55.533 20.0847C54.2347 20.0836 53.07 19.8133 52.041 19.2716ZM57.1243 15.4301C57.5498 14.9579 57.7625 14.2817 57.7625 13.3992C57.7625 12.5167 57.5498 11.8437 57.1243 11.3802C56.6988 10.9156 56.1756 10.6844 55.5579 10.6844C54.9392 10.6844 54.4203 10.9167 54.0024 11.3802C53.5845 11.8448 53.3761 12.5178 53.3761 13.3992C53.3761 14.2969 53.5769 14.9775 53.9796 15.4421C54.3813 15.9067 54.9001 16.1379 55.5351 16.1379C56.1691 16.1379 56.6988 15.9023 57.1243 15.4301Z" fill="#192BC2"/>
<path d="M68.5561 2.74518V19.9208H64.0068V2.74518H68.5561Z" fill="#192BC2"/>
<path d="M70.9113 9.87028C71.3987 8.86512 72.063 8.09117 72.9075 7.54952C73.7509 7.00786 74.6909 6.73758 75.7276 6.73758C76.6253 6.73758 77.3992 6.9156 78.0483 7.27163C78.6985 7.62767 79.2011 8.10746 79.5572 8.71098V6.9004H84.1064V19.9218H79.5572V18.1113C79.2011 18.7148 78.6942 19.1946 78.0364 19.5506C77.3786 19.9066 76.609 20.0847 75.7276 20.0847C74.6909 20.0847 73.7509 19.8144 72.9075 19.2727C72.0641 18.7311 71.3987 17.9539 70.9113 16.94C70.4239 15.9262 70.1797 14.7463 70.1797 13.4003C70.1808 12.0532 70.4239 10.8765 70.9113 9.87028ZM78.8733 11.4258C78.4163 10.946 77.8551 10.7061 77.1908 10.7061C76.5102 10.7061 75.9447 10.9427 75.4964 11.4138C75.047 11.886 74.8234 12.5471 74.8234 13.3981C74.8234 14.2339 75.047 14.895 75.4964 15.3824C75.9447 15.8697 76.5102 16.1129 77.1908 16.1129C77.8562 16.1129 78.4174 15.873 78.8733 15.3932C79.3292 14.9134 79.5582 14.248 79.5582 13.397C79.5572 12.5634 79.3292 11.9056 78.8733 11.4258Z" fill="#192BC2"/>
<path d="M92.8801 7.43337C93.6074 7.00027 94.389 6.78317 95.2248 6.78317V11.6342H93.9483C92.9572 11.6342 92.2223 11.8285 91.7426 12.2149C91.2628 12.6024 91.0229 13.2754 91.0229 14.2339V19.9208H86.4736V6.89932H91.0229V9.19728C91.5341 8.45481 92.1529 7.86757 92.8801 7.43337Z" fill="#192BC2"/>
<path d="M33.8261 26.8125L30.5067 39.8339H25.4006L23.5901 31.9425L21.71 39.8339H16.6267L13.3301 26.8125H17.8565L19.3187 35.4475L21.2454 26.8125H26.1192L28.1154 35.4703L29.5548 26.8125H33.8261Z" fill="#192BC2"/>
<path d="M35.2541 24.9444C34.7667 24.5036 34.5225 23.9501 34.5225 23.2847C34.5225 22.6041 34.7656 22.0396 35.2541 21.5902C35.7415 21.1419 36.3873 20.9172 37.1917 20.9172C37.9808 20.9172 38.6191 21.1419 39.1064 21.5902C39.5938 22.0396 39.837 22.6041 39.837 23.2847C39.837 23.9501 39.5938 24.5036 39.1064 24.9444C38.6191 25.3851 37.9808 25.6054 37.1917 25.6054C36.3873 25.6065 35.7415 25.3861 35.2541 24.9444ZM39.444 26.8125V39.8339H34.8948V26.8125H39.444Z" fill="#192BC2"/>
<path d="M49.4933 35.9577V39.8339H47.5199C44.1929 39.8339 42.5299 38.1861 42.5299 34.8895V30.5965H40.9277V26.8136H42.5299L42.6526 19.7004L47.2018 19.6635L47.103 26.8136H49.4705V30.5965H47.103V34.9601C47.103 35.3161 47.1845 35.5712 47.3462 35.7265C47.509 35.8817 47.7826 35.9587 48.1701 35.9587H49.4933V35.9577Z" fill="#192BC2"/>
<path d="M63.4548 28.1943C64.3286 29.1919 64.766 30.5422 64.766 32.2442V39.8339H60.2168V32.8478C60.2168 32.1053 60.0236 31.5213 59.6371 31.0958C59.2496 30.6703 58.7319 30.4575 58.0817 30.4575C57.4011 30.4575 56.867 30.6703 56.4806 31.0958C56.0931 31.5213 55.8998 32.1053 55.8998 32.8478V39.8339H51.3506V22.6583H55.8998V28.6697C56.3025 28.0814 56.8475 27.606 57.5357 27.2423C58.2239 26.8787 59.0173 26.6974 59.915 26.6974C61.4 26.6974 62.5799 27.1957 63.4548 28.1943Z" fill="#192BC2"/>
<path d="M71.4961 23.4714V32.965C71.4961 33.8475 71.7012 34.5281 72.1115 35.0079C72.5219 35.4876 73.1438 35.7275 73.9797 35.7275C74.8155 35.7275 75.4451 35.4844 75.8717 34.997C76.2972 34.5096 76.5099 33.8323 76.5099 32.9661V23.4724H81.0592V32.9661C81.0592 34.4673 80.7422 35.7482 80.1072 36.8076C79.4722 37.8681 78.6103 38.6648 77.5194 39.1989C76.4285 39.733 75.2182 40 73.8874 40C72.5566 40 71.3691 39.733 70.3248 39.1989C69.2806 38.6648 68.46 37.8724 67.8641 36.8195C67.2681 35.7677 66.9707 34.4836 66.9707 32.9672V23.4735H71.4961V23.4714Z" fill="#F18F01"/>
<path d="M85.7364 39.4051C84.8159 39.0111 84.0886 38.4695 83.5546 37.7802C83.0205 37.092 82.722 36.3148 82.6602 35.4475H87.0705C87.1323 35.8654 87.3256 36.1899 87.6512 36.4222C87.9758 36.6545 88.3785 36.7707 88.8583 36.7707C89.2295 36.7707 89.5237 36.6936 89.7407 36.5384C89.9568 36.3842 90.0653 36.1823 90.0653 35.9349C90.0653 35.6103 89.8873 35.3704 89.5313 35.2152C89.1752 35.061 88.5869 34.8895 87.7673 34.705C86.8393 34.5194 86.0653 34.311 85.4466 34.0787C84.8279 33.8464 84.2895 33.4676 83.8336 32.9411C83.3766 32.4157 83.1486 31.7037 83.1486 30.806C83.1486 30.032 83.357 29.3319 83.7749 28.7056C84.1929 28.0792 84.8072 27.5799 85.6203 27.2087C86.4333 26.8374 87.4113 26.6518 88.5565 26.6518C90.2585 26.6518 91.5969 27.0697 92.5717 27.9056C93.5464 28.7414 94.1109 29.8399 94.2661 31.2011H90.1576C90.0805 30.7832 89.8981 30.4619 89.6127 30.2383C89.3261 30.0146 88.944 29.9018 88.4642 29.9018C88.093 29.9018 87.8108 29.9712 87.6175 30.1102C87.4243 30.2491 87.3277 30.4434 87.3277 30.6898C87.3277 30.9992 87.5057 31.2347 87.8618 31.3975C88.2178 31.5604 88.7899 31.7265 89.5801 31.8969C90.5234 32.0988 91.3093 32.3224 91.9356 32.5699C92.5619 32.8174 93.1112 33.2157 93.5834 33.765C94.0555 34.3142 94.2922 35.061 94.2922 36.0043C94.2922 36.7631 94.0718 37.4437 93.6311 38.0472C93.1904 38.6507 92.563 39.1262 91.7511 39.4746C90.9391 39.8231 89.9828 39.9967 88.8843 39.9967C87.7055 39.9967 86.6569 39.7992 85.7364 39.4051Z" fill="#F18F01"/>
<path d="M0 9.1365L5.34165 0L15.8556 0.0835842L12.927 2.98073C12.927 2.98073 9.81927 3.02958 7.48982 5.15821C7.48982 5.15821 9.97666 3.53433 12.8651 3.55495L14.3164 6.36744C7.13813 5.34491 6.108 9.22442 6.27083 11.1826L4.3441 7.93813L0 9.1365Z" fill="#192BC2"/>
</svg>
