<svg width="96" height="40" viewBox="0 0 96 40" fill="none" xmlns="http://www.w3.org/2000/svg">
<path d="M9.37986 19.4921C8.45937 19.0981 7.7321 18.5564 7.19804 17.8671C6.66398 17.1789 6.36547 16.4017 6.30469 15.5344H10.715C10.7769 15.9523 10.9701 16.2769 11.2957 16.5092C11.6203 16.7415 12.023 16.8576 12.5028 16.8576C12.874 16.8576 13.1682 16.7806 13.3853 16.6253C13.6024 16.4712 13.7098 16.2693 13.7098 16.0218C13.7098 15.6972 13.5318 15.4574 13.1758 15.3021C12.8197 15.148 12.2314 14.9765 11.4119 14.792C10.4838 14.6063 9.70984 14.3979 9.09112 14.1656C8.47239 13.9333 7.934 13.5545 7.47809 13.028C7.02111 12.5027 6.79315 11.7906 6.79315 10.8929C6.79315 10.119 7.00157 9.41882 7.41948 8.7925C7.83739 8.16618 8.45177 7.66686 9.2648 7.29562C10.0767 6.92439 11.0558 6.73877 12.201 6.73877C13.9031 6.73877 15.2415 7.15668 16.2173 7.9925C17.1921 8.82832 17.7565 9.92683 17.9117 11.288H13.8032C13.7261 10.8701 13.5438 10.5488 13.2583 10.3252C12.9717 10.1016 12.5885 9.9887 12.1098 9.9887C11.7386 9.9887 11.4553 10.0582 11.2632 10.1982C11.07 10.3371 10.9723 10.5314 10.9723 10.7778C10.9723 11.0872 11.1503 11.3228 11.5063 11.4856C11.8624 11.6484 12.4344 11.8145 13.2235 11.9849C14.1668 12.1868 14.9527 12.4104 15.579 12.6579C16.2054 12.9054 16.7546 13.3038 17.2268 13.853C17.699 14.4023 17.9345 15.1491 17.9345 16.0924C17.9345 16.8511 17.7142 17.5317 17.2735 18.1352C16.8328 18.7388 16.2054 19.2142 15.3934 19.5626C14.5815 19.9111 13.6252 20.0848 12.5267 20.0848C11.35 20.0837 10.3014 19.8872 9.37986 19.4921Z" fill="#FAFAFF"/>
<path d="M20.0214 9.87147C20.5782 8.86631 21.3565 8.09236 22.3541 7.55071C23.3527 7.00905 24.4936 6.73877 25.7777 6.73877C27.433 6.73877 28.8257 7.19141 29.9557 8.09671C31.0857 9.002 31.813 10.2666 32.1375 11.8916H27.3093C27.0303 11.0405 26.4887 10.615 25.6843 10.615C25.1123 10.615 24.6596 10.8517 24.3264 11.3228C23.9931 11.7949 23.8271 12.4875 23.8271 13.4004C23.8271 14.3133 23.9931 15.0101 24.3264 15.4888C24.6585 15.9686 25.1112 16.2085 25.6843 16.2085C26.5049 16.2085 27.0466 15.783 27.3093 14.932H32.1375C31.813 16.5418 31.0846 17.802 29.9557 18.7149C28.8257 19.6278 27.433 20.0848 25.7777 20.0848C24.4936 20.0848 23.3527 19.8145 22.3541 19.2728C21.3565 18.7312 20.5782 17.9583 20.0214 16.9521C19.4645 15.9469 19.1855 14.7626 19.1855 13.4015C19.1866 12.0533 19.4656 10.8777 20.0214 9.87147Z" fill="#FAFAFF"/>
<path d="M45.8913 8.28096C46.7651 9.27852 47.2026 10.6289 47.2026 12.3309V19.9206H42.6533V12.9344C42.6533 12.192 42.4601 11.608 42.0737 11.1825C41.6862 10.7569 41.1684 10.5442 40.5182 10.5442C39.8376 10.5442 39.3035 10.7569 38.9171 11.1825C38.5296 11.608 38.3364 12.192 38.3364 12.9344V19.9206H33.7871V2.74609H38.3364V8.75749C38.7391 8.16916 39.284 7.69372 39.9722 7.33008C40.6604 6.96645 41.4539 6.78517 42.3516 6.78517C43.8365 6.78408 45.0164 7.28341 45.8913 8.28096Z" fill="#FAFAFF"/>
<path d="M52.041 19.2716C51.0119 18.73 50.2032 17.9571 49.6149 16.9509C49.0266 15.9457 48.7324 14.7615 48.7324 13.4003C48.7324 12.0543 49.0309 10.8776 49.6269 9.87245C50.2228 8.86729 51.0347 8.09334 52.0638 7.55169C53.0928 7.01003 54.2575 6.73975 55.5568 6.73975C56.8572 6.73975 58.0209 7.01112 59.0499 7.55169C60.079 8.09334 60.892 8.86729 61.4868 9.87245C62.0828 10.8787 62.3813 12.0543 62.3813 13.4003C62.3813 14.7463 62.0828 15.9262 61.4868 16.94C60.8909 17.9539 60.0746 18.7311 59.038 19.2727C58.0013 19.8144 56.8323 20.0847 55.533 20.0847C54.2336 20.0836 53.0689 19.8133 52.041 19.2716ZM57.1243 15.4301C57.5498 14.9579 57.7625 14.2817 57.7625 13.3992C57.7625 12.5167 57.5498 11.8437 57.1243 11.3802C56.6988 10.9156 56.1756 10.6844 55.5579 10.6844C54.9392 10.6844 54.4203 10.9167 54.0024 11.3802C53.5845 11.8448 53.3761 12.5178 53.3761 13.3992C53.3761 14.2969 53.5769 14.9775 53.9796 15.4421C54.3813 15.9066 54.9001 16.1378 55.5351 16.1378C56.168 16.1378 56.6977 15.9023 57.1243 15.4301Z" fill="#FAFAFF"/>
<path d="M68.5561 2.74609V19.9217H64.0068V2.74609H68.5561Z" fill="#FAFAFF"/>
<path d="M70.9113 9.87147C71.3987 8.86631 72.063 8.09236 72.9075 7.55071C73.7509 7.00905 74.6909 6.73877 75.7276 6.73877C76.6253 6.73877 77.3992 6.91679 78.0483 7.27283C78.6985 7.62886 79.2011 8.10865 79.5572 8.71217V6.90051H84.1064V19.9219H79.5572V18.1114C79.2011 18.7149 78.6942 19.1947 78.0364 19.5507C77.3786 19.9067 76.609 20.0848 75.7276 20.0848C74.6909 20.0848 73.7509 19.8145 72.9075 19.2728C72.0641 18.7312 71.3987 17.954 70.9113 16.9401C70.4239 15.9263 70.1797 14.7464 70.1797 13.4004C70.1797 12.0533 70.4239 10.8777 70.9113 9.87147ZM78.8722 11.427C78.4152 10.9472 77.854 10.7073 77.1897 10.7073C76.5091 10.7073 75.9436 10.9439 75.4953 11.415C75.0459 11.8872 74.8223 12.5483 74.8223 13.3993C74.8223 14.2351 75.0459 14.8962 75.4953 15.3835C75.9436 15.8709 76.5091 16.1141 77.1897 16.1141C77.8551 16.1141 78.4163 15.8742 78.8722 15.3944C79.3281 14.9146 79.5572 14.2492 79.5572 13.3982C79.5572 12.5645 79.3281 11.9067 78.8722 11.427Z" fill="#FAFAFF"/>
<path d="M92.8801 7.43438C93.6074 7.00128 94.389 6.78418 95.2248 6.78418V11.6352H93.9483C92.9572 11.6352 92.2223 11.8295 91.7426 12.2159C91.2628 12.6034 91.0229 13.2764 91.0229 14.2349V19.9218H86.4736V6.90033H91.0229V9.19829C91.5331 8.45582 92.1518 7.86749 92.8801 7.43438Z" fill="#FAFAFF"/>
<path d="M33.826 26.814L30.5077 39.8354H25.4016L23.591 31.9439L21.711 39.8354H16.6277L13.3311 26.814H17.8575L19.3197 35.449L21.2464 26.814H26.1202L28.1164 35.4718L29.5557 26.814H33.826Z" fill="#FAFAFF"/>
<path d="M35.2541 24.9456C34.7667 24.5049 34.5225 23.9513 34.5225 23.2859C34.5225 22.6053 34.7656 22.0408 35.2541 21.5915C35.7415 21.1432 36.3873 20.9185 37.1917 20.9185C37.9808 20.9185 38.6191 21.1432 39.1065 21.5915C39.5938 22.0408 39.837 22.6053 39.837 23.2859C39.837 23.9513 39.5938 24.5049 39.1065 24.9456C38.6191 25.3863 37.9808 25.6067 37.1917 25.6067C36.3884 25.6067 35.7415 25.3863 35.2541 24.9456ZM39.444 26.8137V39.8351H34.8948V26.8137H39.444Z" fill="#FAFAFF"/>
<path d="M49.4942 35.9589V39.8352H47.5208C44.1938 39.8352 42.5309 38.1874 42.5309 34.8908V30.5967H40.9287V26.8127H42.5309L42.6535 19.6995L47.2028 19.6626L47.104 26.8127H49.4714V30.5967H47.104V34.9603C47.104 35.3163 47.1854 35.5714 47.3472 35.7266C47.51 35.8819 47.7835 35.9589 48.171 35.9589H49.4942Z" fill="#FAFAFF"/>
<path d="M63.4548 28.1946C64.3286 29.1922 64.7661 30.5425 64.7661 32.2446V39.8343H60.2168V32.8481C60.2168 32.1056 60.0236 31.5216 59.6372 31.0961C59.2496 30.6706 58.7319 30.4579 58.0817 30.4579C57.4011 30.4579 56.867 30.6706 56.4806 31.0961C56.0931 31.5216 55.8998 32.1056 55.8998 32.8481V39.8343H51.3506V22.6587H55.8998V28.6701C56.3026 28.0818 56.8475 27.6063 57.5357 27.2427C58.2239 26.879 59.0173 26.6978 59.915 26.6978C61.4011 26.6978 62.581 27.1971 63.4548 28.1946Z" fill="#FAFAFF"/>
<path d="M71.4971 23.4717V32.9653C71.4971 33.8478 71.7022 34.5284 72.1125 35.0082C72.5228 35.488 73.1448 35.7279 73.9806 35.7279C74.8165 35.7279 75.446 35.4847 75.8726 34.9973C76.2981 34.5099 76.5109 33.8326 76.5109 32.9664V23.4728H81.0601V32.9664C81.0601 34.4676 80.7432 35.7485 80.1082 36.8079C79.4732 37.8684 78.6113 38.6652 77.5204 39.1992C76.4295 39.7333 75.2192 40.0003 73.8884 40.0003C72.5576 40.0003 71.3701 39.7333 70.3258 39.1992C69.2816 38.6652 68.461 37.8728 67.865 36.8198C67.2691 35.768 66.9717 34.4839 66.9717 32.9675V23.4739H71.4971V23.4717Z" fill="#FAFAFF"/>
<path d="M85.7364 39.4052C84.8159 39.0111 84.0886 38.4695 83.5546 37.7802C83.0205 37.092 82.722 36.3148 82.6602 35.4475H87.0705C87.1323 35.8654 87.3256 36.19 87.6512 36.4223C87.9758 36.6546 88.3785 36.7707 88.8583 36.7707C89.2295 36.7707 89.5237 36.6936 89.7407 36.5384C89.9568 36.3843 90.0653 36.1824 90.0653 35.9349C90.0653 35.6103 89.8873 35.3704 89.5313 35.2152C89.1752 35.0611 88.5869 34.8896 87.7673 34.705C86.8393 34.5194 86.0653 34.311 85.4466 34.0787C84.8279 33.8464 84.2895 33.4676 83.8336 32.9411C83.3766 32.4158 83.1486 31.7037 83.1486 30.806C83.1486 30.032 83.357 29.3319 83.7749 28.7056C84.1929 28.0793 84.8072 27.5799 85.6203 27.2087C86.4333 26.8375 87.4113 26.6519 88.5565 26.6519C90.2585 26.6519 91.5969 27.0698 92.5717 27.9056C93.5464 28.7414 94.1109 29.8399 94.2661 31.2011H90.1576C90.0805 30.7832 89.8981 30.4619 89.6127 30.2383C89.3261 30.0147 88.944 29.9018 88.4642 29.9018C88.093 29.9018 87.8108 29.9713 87.6175 30.1113C87.4243 30.2502 87.3277 30.4445 87.3277 30.6909C87.3277 31.0003 87.5057 31.2358 87.8618 31.3987C88.2178 31.5615 88.7899 31.7276 89.5801 31.898C90.5234 32.0999 91.3093 32.3235 91.9356 32.571C92.5619 32.8185 93.1112 33.2168 93.5834 33.7661C94.0555 34.3154 94.2922 35.0622 94.2922 36.0055C94.2922 36.7642 94.0718 37.4448 93.6311 38.0483C93.1904 38.6519 92.563 39.1273 91.7511 39.4757C90.9391 39.8242 89.9828 39.9979 88.8843 39.9979C87.7055 39.9968 86.6569 39.8003 85.7364 39.4052Z" fill="#FAFAFF"/>
<path d="M0 9.1365L5.34057 0L15.8545 0.0835821L12.9259 2.98073C12.9259 2.98073 9.81818 3.02958 7.48874 5.15821C7.48874 5.15821 9.97558 3.53433 12.864 3.55495L14.3153 6.36743C7.13704 5.34491 6.10692 9.22334 6.26974 11.1815L4.34301 7.93704L0 9.1365Z" fill="#FAFAFF"/>
</svg>
