<svg width="182" height="160" viewBox="0 0 182 160" fill="none" xmlns="http://www.w3.org/2000/svg">
<path d="M35.9212 152.566C44.5069 146.573 46.4575 135.448 46.1157 125.445C46.0574 123.779 46.2407 122.017 45.4488 120.551C44.657 119.085 42.7981 118.085 41.281 118.789C40.0307 119.372 39.5014 120.817 38.8053 122.009C37.8802 123.603 36.5218 124.903 34.8876 125.757C33.8248 126.307 32.5119 126.644 31.4616 126.065C30.0195 125.274 29.8487 123.283 29.8612 121.621C29.8778 118.528 29.8959 115.434 29.9153 112.338C29.9153 110.672 29.9153 108.985 29.4152 107.407C28.9151 105.828 27.7481 104.371 26.1768 103.925C24.6055 103.479 22.6425 104.396 22.3091 106.007C22.1673 106.682 22.3091 107.386 22.259 108.09C22.209 108.794 21.8923 109.543 21.2379 109.756C20.5836 109.968 19.9084 109.481 19.4124 108.993C17.6994 107.328 16.5366 105.158 15.4488 103.009C14.361 100.86 13.3065 98.6647 11.7478 96.8364C10.189 95.008 8.0384 93.5586 5.66273 93.4254C3.28707 93.2921 0.74469 94.7581 0.144522 97.0904C-0.455646 99.4227 0.907236 101.805 2.39515 103.7C4.61487 106.502 7.22881 108.968 10.1557 111.022C10.6766 111.397 11.2476 111.796 11.4477 112.413C11.8061 113.516 10.7558 114.616 9.66385 114.983C8.4135 115.399 7.08396 115.266 5.78777 115.399C4.49157 115.532 3.07034 116.161 2.5827 117.365C1.89918 119.077 3.32041 120.838 4.73747 121.992C7.53757 124.322 10.7182 126.154 14.1401 127.406C15.3654 127.856 16.6408 128.239 17.6369 129.105C18.633 129.972 17.0909 133 16.4949 134.17C15.8989 135.34 16.4949 134.17 15.2154 133.932C13.9359 133.695 12.7897 133 11.5685 132.541C9.28874 131.679 6.33792 131.838 4.87501 133.791C3.91641 135.086 3.82889 136.894 4.31652 138.439C4.80416 139.984 5.78777 141.313 6.81722 142.541C10.4766 146.831 15.1529 150.284 20.4585 152.12C25.7642 153.957 30.6614 154.453 35.9254 152.537" fill="#EBEBEB"/>
<path d="M36.0544 159.979C35.5886 155.343 34.6801 150.761 33.3412 146.298C31.6787 140.85 29.7055 135.502 27.4312 130.28L25.664 126.157C25.0805 124.807 24.5054 123.466 23.8594 122.192C22.6194 119.748 21.2446 117.374 19.7416 115.083C18.3162 112.884 16.8866 110.847 15.5362 108.952C14.1858 107.057 12.8813 105.324 11.631 103.788C9.66483 101.359 7.50885 99.0904 5.18332 97.003C4.34975 96.2617 3.7079 95.7078 3.26195 95.3371L2.7493 94.9206C2.69329 94.8684 2.63181 94.8223 2.56592 94.7832C2.61402 94.8419 2.66854 94.8949 2.72846 94.9415L3.22027 95.3829C3.63705 95.7661 4.29557 96.3325 5.10413 97.0863C7.38649 99.2072 9.50818 101.494 11.4517 103.929C12.7021 105.47 13.9524 107.211 15.3153 109.106C16.6782 111.001 18.0786 113.042 19.4831 115.241C20.9783 117.524 22.3474 119.888 23.5843 122.321C24.2261 123.57 24.7971 124.916 25.3765 126.273L27.1395 130.388C29.4169 135.603 31.3998 140.941 33.0786 146.377C34.4262 150.821 35.3528 155.382 35.8461 160" fill="#E0E0E0"/>
<path d="M23.773 122.183C23.8539 121.954 23.9084 121.717 23.9356 121.475C24.0231 121.017 24.1273 120.351 24.244 119.522C24.4774 117.856 24.7233 115.574 24.9859 113.046C25.2484 110.518 25.5277 108.248 25.7861 106.582C25.9153 105.749 26.0236 105.095 26.107 104.633C26.1646 104.397 26.1953 104.155 26.1987 103.912C26.1056 104.136 26.0357 104.37 25.9903 104.608C25.8736 105.062 25.7277 105.724 25.5735 106.545C25.2609 108.185 24.9442 110.476 24.6858 113.008C24.4274 115.541 24.2023 117.769 24.0272 119.493C23.9439 120.272 23.873 120.926 23.8189 121.455C23.7764 121.695 23.761 121.94 23.773 122.183Z" fill="#E0E0E0"/>
<path d="M2.41138 118.194C2.68543 118.254 2.96447 118.289 3.24494 118.298C3.7951 118.343 4.58699 118.41 5.56643 118.527C7.52114 118.735 10.2136 119.122 13.1644 119.676C16.1152 120.23 18.7659 120.859 20.6665 121.367C21.6209 121.613 22.3878 121.829 22.9171 121.979C23.1879 122.074 23.467 122.142 23.7507 122.183C23.4948 122.051 23.2268 121.944 22.9504 121.863C22.4295 121.679 21.6709 121.446 20.7248 121.155C18.8285 120.592 16.1777 119.939 13.2227 119.372C10.2677 118.806 7.55448 118.464 5.58727 118.306C4.60366 118.223 3.80343 118.189 3.25328 118.177C2.97271 118.157 2.69096 118.163 2.41138 118.194Z" fill="#E0E0E0"/>
<path d="M33.0776 145.902C33.0776 145.902 33.1402 145.819 33.2277 145.644L33.5903 144.869C33.907 144.199 34.3363 143.204 34.8406 141.992C35.8701 139.547 37.1871 136.123 38.5917 132.329C39.9962 128.535 41.2799 125.099 42.2552 122.638L43.4222 119.722C43.5472 119.406 43.6514 119.143 43.7348 118.927C43.7778 118.837 43.8086 118.742 43.8265 118.644C43.767 118.723 43.718 118.81 43.6806 118.902L43.3138 119.672C43.0012 120.347 42.572 121.338 42.0635 122.554C41.034 124.999 39.717 128.423 38.3124 132.221C36.9079 136.019 35.6283 139.447 34.6489 141.908C34.1696 143.108 33.7778 144.091 33.4819 144.824C33.3569 145.14 33.2527 145.403 33.1693 145.619C33.1287 145.71 33.098 145.805 33.0776 145.902Z" fill="#E0E0E0"/>
<path d="M4.69287 136.76C4.78115 136.813 4.87663 136.852 4.97628 136.877L5.80985 137.156L8.85237 138.139C11.4156 138.972 14.9499 140.159 18.8552 141.471C22.7604 142.783 26.2989 143.949 28.8871 144.728C30.1792 145.119 31.2253 145.423 31.9547 145.619L32.7882 145.84C32.8836 145.873 32.9833 145.891 33.0841 145.894C32.9966 145.843 32.9027 145.804 32.8049 145.777L31.9713 145.502L28.933 144.52C26.3656 143.687 22.8354 142.5 18.9302 141.188C15.0249 139.876 11.4864 138.71 8.90655 137.931C7.61452 137.539 6.56423 137.235 5.83486 137.04L5.00129 136.819C4.90092 136.788 4.7975 136.769 4.69287 136.76Z" fill="#E0E0E0"/>
<path d="M141.109 6.78467L118.169 62.764L159.352 79.2901L181.941 23.6772L141.109 6.78467Z" fill="#E6E6E6"/>
<path d="M141.11 6.78467L181.955 23.6314H182.001L181.98 23.6772C175.636 39.3036 167.834 58.5326 159.403 79.2984L159.382 79.3525H159.323L159.023 79.2318L118.145 62.8182H118.095L118.116 62.7682L141.11 6.78467L118.22 62.7849L118.191 62.7141L159.073 79.1151L159.373 79.2359L159.294 79.2692C167.734 58.5076 175.549 39.2869 181.896 23.6564L181.921 23.7188L141.11 6.78467Z" fill="#E6E6E6"/>
<path d="M138.105 1.44116L115.166 57.4205L156.348 73.9507L178.938 18.3337L138.105 1.44116Z" fill="#FAFAFA"/>
<path d="M138.108 1.44116L178.953 18.2879H178.999V18.3337L156.401 73.9715L156.38 74.0299L156.326 74.0049L156.026 73.8841L115.143 57.4747L115.093 57.4539L115.114 57.3997L138.108 1.44116L115.214 57.4372L115.185 57.3664L156.067 73.7716L156.367 73.8883L156.292 73.9216C164.728 53.1599 172.547 33.9393 178.89 18.3087L178.915 18.3753L138.108 1.44116Z" fill="#EBEBEB"/>
<path d="M169.104 26.8424C169.066 26.9382 161.927 24.2436 153.158 20.8242C144.389 17.4049 137.32 14.577 137.341 14.4729C137.362 14.3688 144.518 17.0717 153.287 20.4911C162.056 23.9104 169.141 26.7508 169.104 26.8424Z" fill="#E0E0E0"/>
<path d="M167.528 31.9652C167.49 32.0568 160.351 29.3622 151.582 25.947C142.812 22.5319 135.744 19.6998 135.765 19.5915C135.786 19.4832 142.942 22.1945 151.711 25.6138C160.48 29.0332 167.561 31.8736 167.528 31.9652Z" fill="#E0E0E0"/>
<path d="M162.201 47.4833C162.168 47.5749 155.024 44.8803 146.255 41.4651C137.486 38.0499 130.417 35.2179 130.442 35.1096C130.467 35.0013 137.615 37.7126 146.389 41.1277C155.162 44.5429 162.239 47.3916 162.201 47.4833Z" fill="#E0E0E0"/>
<path d="M159.688 52.7267C159.654 52.8183 152.511 50.1237 143.742 46.7085C134.972 43.2934 127.904 40.4613 127.929 40.353C127.954 40.2447 135.102 42.9518 143.875 46.3712C152.648 49.7905 159.725 52.6309 159.688 52.7267Z" fill="#E0E0E0"/>
<path d="M157.602 58.0204C157.564 58.112 150.425 55.4174 141.656 52.0022C132.886 48.5871 125.818 45.755 125.843 45.6467C125.868 45.5384 133.016 48.2497 141.789 51.6649C150.562 55.08 157.639 57.9287 157.602 58.0204Z" fill="#E0E0E0"/>
<path d="M155.514 63.3138C155.476 63.4055 148.337 60.7108 139.568 57.2957C130.799 53.8805 123.73 51.0484 123.755 50.9401C123.78 50.8319 130.928 53.5432 139.701 56.9583C148.474 60.3735 155.551 63.2222 155.514 63.3138Z" fill="#E0E0E0"/>
<path d="M142.86 21.3823C142.756 21.5989 142.331 22.5818 142.331 22.5818L159.707 29.6245L160.236 28.1335L142.86 21.3823Z" fill="#EBEBEB"/>
<path d="M134.11 23.5605C134.002 23.7771 133.364 25.1099 133.364 25.1099L165.936 37.5044L166.736 35.8051L134.11 23.5605Z" fill="#EBEBEB"/>
<path d="M132.219 28.8333L131.478 30.3659L164.045 42.7604L164.845 41.0612L132.219 28.8333Z" fill="#EBEBEB"/>
<path d="M130.581 34.364C130.547 34.4431 129.997 36.0299 129.997 36.0299L146.297 42.2772L147.214 40.3655L130.581 34.364Z" fill="#EBEBEB"/>
<path d="M173.169 159.325C173.169 159.388 134.475 159.434 86.7613 159.434C39.048 159.434 0.341309 159.388 0.341309 159.325C0.341309 159.263 39.0271 159.217 86.7613 159.217C134.495 159.217 173.169 159.267 173.169 159.325Z" fill="#263238"/>
<path d="M26.8026 4.87277C26.2441 23.7019 24.6061 94.4789 24.1727 113.362C24.1435 114.6 24.6057 115.8 25.4584 116.699C26.3111 117.598 27.4851 118.123 28.724 118.16L106.346 120.53C106.965 120.549 107.582 120.445 108.161 120.225C108.74 120.004 109.269 119.671 109.719 119.246C110.169 118.82 110.53 118.309 110.782 117.743C111.033 117.178 111.17 116.568 111.185 115.949L112.393 61.2478L118.966 61.1395C119.743 61.1266 120.485 60.8114 121.034 60.2608C121.582 59.7103 121.895 58.9677 121.904 58.1908L122.408 14.1228C122.416 13.3344 122.112 12.5749 121.561 12.01C121.011 11.4451 120.259 11.1207 119.47 11.1075L113.518 10.9909L113.564 6.73028C113.578 5.49842 113.103 4.3112 112.245 3.42732C111.386 2.54343 110.212 2.03454 108.98 2.01154L31.5456 0.345607C30.3181 0.325363 29.132 0.789138 28.2443 1.63648C27.3566 2.48383 26.8386 3.64653 26.8026 4.87277Z" fill="#192BC2"/>
<path opacity="0.4" d="M26.8026 4.87277C26.2441 23.7019 24.6061 94.4789 24.1727 113.362C24.1435 114.6 24.6057 115.8 25.4584 116.699C26.3111 117.598 27.4851 118.123 28.724 118.16L106.346 120.53C106.965 120.549 107.582 120.445 108.161 120.225C108.74 120.004 109.269 119.671 109.719 119.246C110.169 118.82 110.53 118.309 110.782 117.743C111.033 117.178 111.17 116.568 111.185 115.949L112.393 61.2478L118.966 61.1395C119.743 61.1266 120.485 60.8114 121.034 60.2608C121.582 59.7103 121.895 58.9677 121.904 58.1908L122.408 14.1228C122.416 13.3344 122.112 12.5749 121.561 12.01C121.011 11.4451 120.259 11.1207 119.47 11.1075L113.518 10.9909L113.564 6.73028C113.578 5.49842 113.103 4.3112 112.245 3.42732C111.386 2.54343 110.212 2.03454 108.98 2.01154L31.5456 0.345607C30.3181 0.325363 29.132 0.789138 28.2443 1.63648C27.3566 2.48383 26.8386 3.64653 26.8026 4.87277Z" fill="black"/>
<path d="M32.7008 5.68091L25.853 114.662L105.838 119.139L112.294 10.9786L32.7008 5.68091Z" fill="#E0E0E0"/>
<path d="M23.0854 3.31523L23.6189 112.513L103.725 111.58L102.858 3.23193L23.0854 3.31523Z" fill="#EBEBEB"/>
<path d="M12.5991 10.8284L27.72 118.976L106.984 107.365L91.6462 0.104004L12.5991 10.8284Z" fill="#FAFAFA"/>
<path d="M12.5991 10.8285L91.6337 0H91.7212V0.0874609C96.0349 30.22 101.345 67.2994 107.076 107.344V107.452H106.967L106.392 107.536L27.7325 119.076H27.6325V118.976C18.7467 54.9923 12.7325 11.6782 12.6283 10.816L27.845 118.952L27.7325 118.864L106.417 107.332L106.996 107.244L106.905 107.369C101.186 67.3202 95.8891 30.2408 91.5879 0.104121L91.6879 0.179088L12.5991 10.8285Z" fill="#263238"/>
<path d="M86.6652 35.8882C86.6944 36.0672 73.1072 38.3454 56.3192 40.9817C39.5312 43.6181 25.894 45.6047 25.894 45.4298C25.894 45.2548 39.452 42.9725 56.24 40.3362C73.0281 37.6999 86.636 35.7132 86.6652 35.8882Z" fill="#263238"/>
<path d="M92.4718 64.9338C92.4968 65.1087 78.9097 67.391 62.1259 70.0232C45.342 72.6554 31.7007 74.6503 31.7007 74.4712C31.7007 74.2921 45.2545 72.014 62.0467 69.3818C78.8389 66.7496 92.4427 64.7505 92.4718 64.9338Z" fill="#263238"/>
<path d="M93.3175 75.3874C93.3425 75.5665 79.7554 77.8446 62.9716 80.4768C46.1877 83.109 32.5464 85.1039 32.5464 84.9248C32.5464 84.7457 46.1002 82.4676 62.8924 79.8354C79.6846 77.2033 93.2884 75.2083 93.3175 75.3874Z" fill="#263238"/>
<path d="M83.5819 12.9444C83.5819 13.1068 74.4627 14.527 63.2012 16.1179C51.9397 17.7089 42.7788 18.8667 42.7788 18.7043C42.7788 18.5419 51.898 17.1175 63.1637 15.5307C74.4293 13.9439 83.5735 12.7819 83.5819 12.9444Z" fill="#263238"/>
<path d="M84.8709 18.7335C84.8709 18.8959 75.7517 20.3203 64.4902 21.9071C53.2288 23.4939 44.0679 24.6558 44.0679 24.4934C44.0679 24.331 53.1829 22.9108 64.4486 21.3198C75.7142 19.7289 84.8668 18.571 84.8709 18.7335Z" fill="#263238"/>
<path d="M86.4279 24.8431C86.4279 25.0097 77.3087 26.4299 66.043 28.0209C54.7774 29.6118 45.6457 30.7655 45.6207 30.6031C45.5956 30.4406 54.7524 29.0204 66.0055 27.4503C77.2587 25.8802 86.4279 24.6807 86.4279 24.8431Z" fill="#263238"/>
<path d="M94.8722 85.5412C94.9014 85.7161 81.3143 87.9984 64.5262 90.6306C47.7382 93.2628 34.1011 95.2577 34.1011 95.0786C34.1011 94.8996 47.659 92.6214 64.4471 89.9892C81.2351 87.3571 94.8431 85.3621 94.8722 85.5412Z" fill="#263238"/>
<path d="M96.4322 95.695C96.4613 95.8699 82.8742 98.1523 66.0903 100.784C49.3065 103.417 35.6652 105.412 35.6402 105.232C35.6152 105.053 49.1981 102.775 65.9903 100.143C82.7825 97.5109 96.403 95.5159 96.4322 95.695Z" fill="#263238"/>
<path d="M38.5659 41.7774C38.5993 42.1939 38.8285 44.1347 38.8285 44.1347L72.3337 39.3369L71.8127 36.5339L38.5659 41.7774Z" fill="#192BC2"/>
<path d="M26.894 53.1224C26.9316 53.5389 27.1441 56.2169 27.1441 56.2169L89.2156 45.9756L88.9197 42.6021L26.894 53.1224Z" fill="#192BC2"/>
<path d="M28.7417 63.0596C28.7792 63.4761 28.9918 66.1583 28.9918 66.1583L91.0633 55.917L90.7674 52.5393L28.7417 63.0596Z" fill="#192BC2"/>
<path d="M31.2222 73.1759C31.2222 73.33 31.8307 76.3203 31.8307 76.3203L62.9352 71.2642L62.6268 67.4451L31.2222 73.1759Z" fill="#192BC2"/>
<path d="M22.187 18.1129L24.9711 38.1874L43.2637 35.626L40.7714 15.614L22.187 18.1129Z" fill="#263238"/>
<path d="M22.187 18.1129L24.9711 38.1874L43.2637 35.626L40.7714 15.614L22.187 18.1129Z" fill="#192BC2"/>
<mask id="mask0_351_1013" style="mask-type:luminance" maskUnits="userSpaceOnUse" x="22" y="15" width="22" height="24">
<path d="M22.187 18.1129L24.9711 38.1874L43.2637 35.626L40.7714 15.614L22.187 18.1129Z" fill="white"/>
</mask>
<g mask="url(#mask0_351_1013)">
<path d="M31.3044 34.7387L36.8309 33.2477C36.7434 32.5855 36.2224 30.0699 36.2224 30.0699C36.2224 30.0699 38.4855 29.2744 38.0771 26.9421C37.6686 24.6098 36.2724 19.3455 36.2724 19.3455C34.8456 19.0278 33.3599 19.0957 31.9681 19.5422C30.5762 19.9887 29.3286 20.7978 28.3535 21.886L28.0576 22.2151L31.3044 34.7387Z" fill="#FFBE9D"/>
<path d="M36.4688 23.4437C36.4259 23.4225 36.388 23.3925 36.3575 23.3557C36.327 23.319 36.3045 23.2762 36.2916 23.2302C36.2786 23.1841 36.2755 23.1359 36.2823 23.0886C36.2892 23.0413 36.3059 22.996 36.3314 22.9555C36.3569 22.9151 36.3906 22.8805 36.4303 22.8539C36.4701 22.8273 36.5149 22.8093 36.562 22.8012C36.6091 22.793 36.6574 22.7948 36.7038 22.8065C36.7501 22.8182 36.7935 22.8395 36.8311 22.869C36.8699 22.892 36.9037 22.9226 36.9304 22.959C36.9571 22.9953 36.9763 23.0366 36.9868 23.0805C36.9973 23.1244 36.9989 23.1699 36.9914 23.2144C36.984 23.2589 36.9677 23.3015 36.9436 23.3396C36.8941 23.4159 36.8165 23.4697 36.7276 23.4892C36.6387 23.5087 36.5457 23.4923 36.4688 23.4437Z" fill="#263238"/>
<path d="M36.9344 22.8065C36.9052 22.8565 36.6429 22.7232 36.3222 22.7815C36.0015 22.8398 35.8016 23.0481 35.7599 23.0148C35.7183 22.9815 35.7599 22.919 35.8474 22.8232C35.964 22.6971 36.1193 22.6135 36.2888 22.5858C36.4574 22.558 36.6304 22.5827 36.7845 22.6566C36.9011 22.7191 36.9469 22.7857 36.9344 22.8065Z" fill="#263238"/>
<path d="M33.2918 23.777C33.334 23.7927 33.3727 23.8167 33.4056 23.8474C33.4386 23.8782 33.4651 23.9151 33.4837 23.9561C33.5022 23.9972 33.5125 24.0415 33.5139 24.0865C33.5153 24.1315 33.5078 24.1764 33.4917 24.2185C33.4756 24.2606 33.4513 24.2991 33.4203 24.3318C33.3893 24.3646 33.3521 24.3909 33.3109 24.4093C33.2698 24.4276 33.2254 24.4377 33.1803 24.4389C33.1352 24.4401 33.0903 24.4324 33.0482 24.4163C33.0061 24.4002 32.9676 24.3759 32.9348 24.3449C32.9021 24.3139 32.8758 24.2767 32.8574 24.2355C32.839 24.1943 32.829 24.1499 32.8278 24.1048C32.8266 24.0597 32.8342 24.0149 32.8504 23.9728C32.883 23.8883 32.9478 23.8202 33.0306 23.7835C33.1134 23.7468 33.2073 23.7444 33.2918 23.777Z" fill="#263238"/>
<path d="M33.4949 23.7394C33.4658 23.7852 33.2034 23.652 32.8869 23.7103C32.5703 23.7686 32.3621 23.981 32.3205 23.9435C32.2788 23.906 32.3205 23.8519 32.4079 23.7519C32.5292 23.6316 32.6846 23.5514 32.853 23.5224C33.0213 23.4933 33.1946 23.5168 33.3492 23.5895C33.47 23.652 33.5199 23.7019 33.4949 23.7394Z" fill="#263238"/>
<path d="M35.2842 26.1426C35.4368 26.0461 35.6044 25.9757 35.7802 25.9343C35.8635 25.9094 35.9261 25.8802 35.9261 25.8344C35.9114 25.7496 35.8739 25.6705 35.8177 25.6053L35.4426 25.0014C35.1024 24.4948 34.8121 23.9564 34.5757 23.3938C34.9698 23.8602 35.3135 24.367 35.601 24.9056L35.9636 25.5179C36.0383 25.6143 36.078 25.7333 36.0761 25.8552C36.0707 25.8901 36.0569 25.9231 36.0358 25.9514C36.0148 25.9797 35.9871 26.0024 35.9552 26.0176C35.9115 26.0385 35.8653 26.0539 35.8177 26.0634C35.6456 26.1197 35.4652 26.1465 35.2842 26.1426Z" fill="#263238"/>
<path d="M34.3292 26.6923C33.9583 26.5549 35.342 27.0088 35.9964 26.8547C35.9189 27.043 35.7799 27.1994 35.602 27.2985C35.4241 27.3976 35.2179 27.4335 35.0169 27.4003C34.2417 27.2754 34.3292 26.6923 34.3292 26.6923Z" fill="white"/>
<path d="M36.2099 30.0367C35.1386 30.2584 34.0255 30.1554 33.0132 29.741C33.0132 29.741 34.0426 31.2819 36.3474 30.6364L36.2099 30.0367Z" fill="#EB996E"/>
<path d="M28.4419 24.4641C28.3877 24.4641 26.683 24.6599 27.3291 26.5465C27.9751 28.4332 29.6881 27.1712 29.6755 27.1171C29.663 27.063 28.4419 24.4641 28.4419 24.4641Z" fill="#FFBE9D"/>
<path d="M28.8619 26.6673C28.8619 26.6673 28.8369 26.7006 28.7869 26.7464C28.7192 26.8058 28.6313 26.8371 28.5412 26.8339C28.3163 26.8339 28.0373 26.5673 27.9123 26.2258C27.8526 26.0635 27.8298 25.8899 27.8457 25.7177C27.8439 25.652 27.8577 25.5868 27.8859 25.5274C27.9141 25.4681 27.956 25.4163 28.0081 25.3762C28.0425 25.353 28.084 25.3428 28.1252 25.3474C28.1664 25.352 28.2046 25.371 28.233 25.4012C28.2788 25.447 28.2788 25.4886 28.2913 25.4886C28.3038 25.4886 28.3205 25.4428 28.2913 25.3679C28.2639 25.325 28.2228 25.2927 28.1747 25.2762C28.1431 25.2629 28.1091 25.2561 28.0748 25.2561C28.0404 25.2561 28.0065 25.2629 27.9748 25.2762C27.9017 25.3189 27.8407 25.3796 27.7977 25.4525C27.7547 25.5254 27.7311 25.6081 27.7291 25.6927C27.7029 25.8852 27.7244 26.0811 27.7916 26.2633C27.8396 26.437 27.938 26.5927 28.0744 26.7105C28.2108 26.8284 28.379 26.9032 28.5579 26.9255C28.6137 26.9231 28.6683 26.908 28.7173 26.8813C28.7664 26.8546 28.8088 26.817 28.8411 26.7714C28.8744 26.7131 28.8702 26.6673 28.8619 26.6673Z" fill="#EB996E"/>
<path d="M36.2395 19.279C35.9353 20.9907 33.7388 22.0527 32.0467 22.465C32.7094 21.6321 32.2468 21.8611 32.6469 21.2822C31.5436 22.6655 29.9778 23.6046 28.2373 23.9269C28.0321 23.5571 27.9033 23.1499 27.8588 22.7294C27.8143 22.3089 27.8549 21.8837 27.9781 21.4792C28.1014 21.0747 28.3048 20.6991 28.5763 20.3748C28.8478 20.0505 29.1819 19.784 29.5585 19.5913C30.0545 19.3373 30.6046 19.2165 31.1173 18.9957C31.5341 18.8083 31.9508 18.5459 32.3926 18.3918C33.7263 17.9337 35.8811 17.1424 36.2395 19.279Z" fill="#263238"/>
<path d="M29.1193 22.8691C29.0735 23.1107 29.0777 25.8428 29.0777 25.8428L28.0073 23.4064L29.1193 22.8691Z" fill="#263238"/>
<path d="M20.3511 44.4636L24.9815 37.6458C25.8617 36.2938 27.0482 35.168 28.445 34.3598C29.1844 33.926 29.9875 33.6112 30.8248 33.4269C32.8813 33.6772 34.9651 33.289 36.7932 32.3148C38.4598 32.1868 40.1361 32.346 41.7487 32.7855L50.9179 34.6513L49.5926 42.6894L44.7496 42.0272L45.7999 49.1574L48.684 59.5694L31.0291 63.0512L29.462 53.4013L28.1783 46.4502L26.0943 49.4073L20.3511 44.4636Z" fill="#455A64"/>
</g>
<path d="M120.477 157.876L120.457 154.044L127.634 153.961L127.725 159.563L127.279 159.596C125.3 159.729 117.206 160.137 115.876 159.75C114.396 159.321 120.477 157.876 120.477 157.876Z" fill="#192BC2"/>
<path d="M125.122 159.538C125.221 158.932 125.54 158.383 126.018 157.997C126.486 157.614 127.081 157.421 127.685 157.455L127.71 159.459L125.122 159.538Z" fill="#192BC2"/>
<path d="M117.505 158.688C117.505 158.688 115.375 159.329 115.646 159.679C115.917 160.029 124.115 159.925 127.733 159.563V159.4L118.172 159.604C118.172 159.604 117.926 158.7 117.505 158.688Z" fill="#192BC2"/>
<path d="M127.825 159.396H127.7L127.345 159.425L126.045 159.496C124.941 159.55 123.419 159.604 121.735 159.625C120.052 159.646 118.53 159.625 117.426 159.625L116.121 159.588H115.767H115.642H116.121H117.43C118.53 159.588 120.052 159.588 121.735 159.588C123.419 159.588 124.941 159.517 126.041 159.48L127.345 159.438H127.7L127.825 159.396Z" fill="#263238"/>
<path d="M118.154 159.717C118.096 159.501 118.012 159.293 117.904 159.096C117.774 158.916 117.623 158.751 117.455 158.605C117.681 158.684 117.868 158.847 117.979 159.059C118.115 159.25 118.177 159.483 118.154 159.717Z" fill="#263238"/>
<path d="M120.258 158.613C120.237 158.613 120.137 158.505 120.029 158.342C119.952 158.249 119.898 158.139 119.871 158.022C119.891 158.022 119.996 158.13 120.1 158.297C120.204 158.463 120.279 158.601 120.258 158.613Z" fill="#263238"/>
<path d="M120.838 158.301C120.838 158.301 120.705 158.242 120.58 158.134C120.455 158.026 120.368 157.922 120.384 157.905C120.401 157.888 120.513 157.959 120.638 158.072C120.763 158.184 120.851 158.284 120.838 158.301Z" fill="#263238"/>
<path d="M121.198 157.618C121.079 157.665 120.951 157.684 120.823 157.672C120.697 157.687 120.57 157.675 120.448 157.639C120.567 157.591 120.696 157.573 120.823 157.584C120.949 157.57 121.077 157.581 121.198 157.618Z" fill="#263238"/>
<path d="M121.318 157.139C121.196 157.223 121.051 157.268 120.902 157.268C120.761 157.293 120.616 157.274 120.485 157.214C120.623 157.19 120.762 157.179 120.902 157.181C121.039 157.155 121.179 157.142 121.318 157.139Z" fill="#263238"/>
<path d="M120.008 157.993C119.855 158.018 119.699 158.018 119.546 157.993C119.38 157.972 119.215 157.937 119.055 157.888C118.956 157.862 118.861 157.824 118.772 157.776C118.716 157.745 118.675 157.694 118.655 157.634C118.648 157.6 118.651 157.565 118.664 157.532C118.676 157.5 118.698 157.472 118.726 157.451C118.9 157.361 119.1 157.335 119.291 157.377C119.482 157.42 119.652 157.529 119.771 157.684C119.844 157.773 119.896 157.877 119.925 157.988C119.934 158.029 119.934 158.072 119.925 158.113C119.875 157.972 119.802 157.84 119.709 157.722C119.602 157.604 119.465 157.518 119.313 157.472C119.223 157.443 119.128 157.432 119.034 157.44C118.939 157.448 118.847 157.474 118.763 157.518C118.688 157.572 118.722 157.659 118.801 157.705C118.884 157.75 118.972 157.786 119.063 157.813C119.218 157.866 119.377 157.905 119.538 157.93C119.834 157.98 120.008 157.98 120.008 157.993Z" fill="#263238"/>
<path d="M119.888 158.018C119.833 157.92 119.812 157.807 119.83 157.697C119.844 157.576 119.887 157.46 119.955 157.359C119.993 157.291 120.047 157.232 120.113 157.19C120.18 157.148 120.256 157.123 120.334 157.118C120.381 157.127 120.423 157.154 120.45 157.194C120.478 157.234 120.488 157.283 120.48 157.33C120.469 157.404 120.444 157.475 120.405 157.539C120.345 157.641 120.273 157.735 120.188 157.818C120.119 157.904 120.029 157.97 119.926 158.009C119.926 158.009 120.017 157.926 120.142 157.776C120.217 157.691 120.282 157.597 120.334 157.497C120.396 157.401 120.438 157.226 120.334 157.205C120.23 157.185 120.101 157.314 120.03 157.405C119.967 157.495 119.924 157.597 119.905 157.705C119.891 157.809 119.885 157.913 119.888 158.018Z" fill="#263238"/>
<path d="M127.653 157.435C127.653 157.435 127.444 157.435 127.123 157.46C126.701 157.512 126.302 157.682 125.973 157.951C125.643 158.22 125.396 158.577 125.26 158.98C125.156 159.292 125.148 159.496 125.131 159.496C125.124 159.448 125.124 159.399 125.131 159.35C125.144 159.219 125.17 159.09 125.206 158.963C125.329 158.539 125.578 158.163 125.92 157.883C126.261 157.604 126.679 157.434 127.119 157.397C127.251 157.384 127.384 157.384 127.515 157.397C127.563 157.403 127.609 157.416 127.653 157.435Z" fill="#263238"/>
<path d="M126.858 154.478C126.944 155.457 126.969 156.44 126.933 157.422C126.852 156.443 126.827 155.46 126.858 154.478Z" fill="#263238"/>
<path d="M124.21 158.851C123.523 158.989 122.818 159.004 122.126 158.896C122.126 158.871 122.597 158.896 123.176 158.896C123.756 158.896 124.206 158.826 124.21 158.851Z" fill="#263238"/>
<path d="M125.606 158.83C125.606 158.83 125.569 158.93 125.523 159.038C125.477 159.146 125.452 159.242 125.427 159.238C125.402 159.234 125.389 159.125 125.427 159.001C125.464 158.876 125.606 158.813 125.606 158.83Z" fill="#263238"/>
<path d="M126.136 158.163C126.157 158.163 126.111 158.255 126.036 158.33C125.961 158.405 125.89 158.455 125.874 158.438C125.857 158.422 125.899 158.347 125.974 158.272C126.049 158.197 126.119 158.147 126.136 158.163Z" fill="#263238"/>
<path d="M126.889 157.851C126.889 157.876 126.789 157.876 126.685 157.914C126.581 157.951 126.506 158.009 126.485 157.993C126.465 157.976 126.527 157.88 126.656 157.834C126.785 157.789 126.898 157.83 126.889 157.851Z" fill="#263238"/>
<path d="M127.432 157.701C127.432 157.726 127.398 157.764 127.34 157.784C127.282 157.805 127.223 157.814 127.215 157.784C127.207 157.755 127.248 157.726 127.307 157.701C127.365 157.676 127.419 157.68 127.432 157.701Z" fill="#263238"/>
<path d="M157.161 155.898L155.989 152.249L149.142 154.394L150.809 159.746L151.226 159.642C153.151 159.155 160.97 157.03 162.116 156.252C163.391 155.385 157.161 155.898 157.161 155.898Z" fill="#192BC2"/>
<path d="M153.261 158.917C152.981 158.37 152.507 157.947 151.932 157.73C151.366 157.51 150.738 157.51 150.173 157.73L150.773 159.642L153.261 158.917Z" fill="#192BC2"/>
<path d="M160.238 155.748C160.238 155.748 162.463 155.698 162.322 156.114C162.18 156.531 154.349 158.971 150.802 159.746L150.769 159.592L159.917 156.818C159.917 156.818 159.846 155.889 160.238 155.748Z" fill="#192BC2"/>
<path d="M150.647 159.621L150.773 159.596L151.114 159.509L152.365 159.175C153.427 158.884 154.894 158.463 156.499 157.963C158.104 157.464 159.55 156.976 160.592 156.614L161.821 156.172L162.155 156.048C162.194 156.035 162.232 156.019 162.267 155.998L162.147 156.031L161.809 156.139L160.559 156.556C159.512 156.905 158.058 157.389 156.462 157.88C154.865 158.372 153.394 158.809 152.335 159.13L151.085 159.492L150.747 159.592C150.713 159.599 150.68 159.609 150.647 159.621Z" fill="#263238"/>
<path d="M159.937 156.926C159.93 156.703 159.947 156.48 159.987 156.26C160.055 156.047 160.147 155.843 160.262 155.652C160.072 155.795 159.942 156.005 159.9 156.239C159.831 156.465 159.844 156.709 159.937 156.926Z" fill="#263238"/>
<path d="M157.593 156.531C157.618 156.531 157.677 156.389 157.731 156.202C157.785 156.014 157.802 155.856 157.777 155.848C157.71 155.948 157.664 156.062 157.643 156.181C157.601 156.292 157.584 156.412 157.593 156.531Z" fill="#263238"/>
<path d="M156.949 156.414C156.97 156.414 157.057 156.318 157.141 156.177C157.224 156.035 157.278 155.906 157.257 155.894C157.236 155.881 157.153 155.989 157.066 156.131C156.978 156.273 156.928 156.402 156.949 156.414Z" fill="#263238"/>
<path d="M156.398 155.877C156.525 155.88 156.651 155.858 156.768 155.81C156.893 155.784 157.01 155.733 157.114 155.66C156.987 155.651 156.86 155.674 156.743 155.727C156.544 155.785 156.389 155.852 156.398 155.877Z" fill="#263238"/>
<path d="M156.136 155.456C156.271 155.5 156.417 155.5 156.552 155.456C156.699 155.436 156.837 155.372 156.948 155.273C156.806 155.293 156.667 155.327 156.531 155.373C156.397 155.39 156.265 155.418 156.136 155.456Z" fill="#263238"/>
<path d="M157.64 155.86C157.794 155.843 157.944 155.796 158.081 155.723C158.234 155.652 158.38 155.569 158.519 155.473C158.603 155.416 158.681 155.351 158.752 155.277C158.793 155.23 158.817 155.169 158.818 155.106C158.815 155.071 158.801 155.038 158.779 155.011C158.756 154.984 158.727 154.963 158.693 154.952C158.5 154.92 158.301 154.956 158.132 155.056C157.962 155.156 157.834 155.313 157.769 155.498C157.73 155.607 157.713 155.723 157.719 155.839C157.717 155.881 157.726 155.923 157.744 155.96C157.745 155.811 157.773 155.662 157.827 155.523C157.89 155.376 157.994 155.25 158.127 155.161C158.204 155.105 158.291 155.065 158.383 155.042C158.475 155.02 158.571 155.017 158.664 155.031C158.748 155.065 158.748 155.152 158.685 155.223C158.62 155.292 158.547 155.353 158.469 155.406C158.336 155.504 158.197 155.592 158.052 155.669C157.806 155.798 157.636 155.848 157.64 155.86Z" fill="#263238"/>
<path d="M157.76 155.848C157.786 155.739 157.771 155.625 157.719 155.527C157.67 155.416 157.594 155.318 157.498 155.244C157.443 155.193 157.376 155.156 157.303 155.136C157.231 155.117 157.155 155.115 157.081 155.131C157.06 155.143 157.042 155.158 157.027 155.177C157.012 155.195 157.001 155.217 156.994 155.239C156.988 155.262 156.986 155.286 156.989 155.31C156.991 155.334 156.999 155.356 157.011 155.377C157.041 155.445 157.087 155.505 157.144 155.552C157.233 155.63 157.331 155.697 157.435 155.752C157.527 155.812 157.634 155.846 157.744 155.852C157.744 155.852 157.631 155.802 157.464 155.698C157.369 155.639 157.28 155.57 157.198 155.494C157.11 155.419 157.015 155.265 157.119 155.211C157.181 155.199 157.244 155.202 157.305 155.218C157.365 155.235 157.421 155.265 157.469 155.306C157.556 155.372 157.629 155.456 157.681 155.552C157.719 155.647 157.746 155.746 157.76 155.848Z" fill="#263238"/>
<path d="M150.198 157.701C150.198 157.701 150.39 157.622 150.711 157.564C151.128 157.481 151.561 157.518 151.958 157.672C152.355 157.825 152.7 158.088 152.953 158.43C153.149 158.692 153.22 158.888 153.237 158.88C153.229 158.832 153.215 158.786 153.195 158.742C153.143 158.621 153.079 158.505 153.003 158.396C152.754 158.032 152.401 157.752 151.99 157.592C151.578 157.432 151.128 157.401 150.698 157.501C150.57 157.532 150.444 157.575 150.323 157.63C150.278 157.647 150.236 157.671 150.198 157.701Z" fill="#263238"/>
<path d="M150.021 154.632C150.24 155.589 150.518 156.532 150.853 157.455C150.752 156.974 150.624 156.499 150.47 156.031C150.349 155.556 150.198 155.089 150.021 154.632Z" fill="#263238"/>
<path d="M153.916 157.98C154.268 157.952 154.615 157.881 154.949 157.768C155.29 157.678 155.618 157.545 155.924 157.372C155.924 157.351 155.474 157.518 154.924 157.684C154.374 157.851 153.911 157.955 153.916 157.98Z" fill="#263238"/>
<path d="M152.571 158.397C152.571 158.397 152.638 158.48 152.713 158.567C152.788 158.655 152.846 158.738 152.867 158.73C152.888 158.722 152.867 158.613 152.78 158.509C152.692 158.405 152.58 158.376 152.571 158.397Z" fill="#263238"/>
<path d="M151.864 157.926C151.864 157.947 151.918 158.005 152.014 158.055C152.11 158.105 152.193 158.126 152.202 158.105C152.21 158.084 152.147 158.026 152.056 157.976C151.964 157.926 151.864 157.905 151.864 157.926Z" fill="#263238"/>
<path d="M151.055 157.864C151.055 157.884 151.155 157.864 151.268 157.864C151.38 157.864 151.472 157.901 151.484 157.864C151.497 157.826 151.409 157.768 151.272 157.764C151.135 157.759 151.03 157.843 151.055 157.864Z" fill="#263238"/>
<path d="M150.497 157.888C150.497 157.913 150.547 157.934 150.61 157.938C150.672 157.943 150.726 157.938 150.726 157.905C150.726 157.872 150.68 157.859 150.614 157.855C150.547 157.851 150.497 157.863 150.497 157.888Z" fill="#263238"/>
<path d="M115.591 81.822L118.942 156.227L130.12 156.46L128.266 94.1707L148.521 157.201L157.657 154.702L137.272 81.822" fill="#263238"/>
<path d="M148.042 156.781L148.563 157.78L158.245 154.961L157.657 153.336L148.042 156.781Z" fill="#455A64"/>
<path d="M156.54 152.966C156.598 152.966 156.686 153.07 156.735 153.232C156.785 153.395 156.777 153.549 156.735 153.565C156.694 153.582 156.594 153.461 156.544 153.295C156.494 153.128 156.481 152.982 156.54 152.966Z" fill="#455A64"/>
<path d="M155.816 150.55C155.874 150.55 156.003 150.787 156.103 151.121C156.203 151.454 156.236 151.741 156.178 151.758C156.12 151.775 155.995 151.52 155.895 151.183C155.795 150.846 155.757 150.567 155.816 150.55Z" fill="#455A64"/>
<path d="M155.089 148.135C155.147 148.135 155.277 148.372 155.377 148.705C155.476 149.038 155.51 149.326 155.452 149.342C155.393 149.359 155.268 149.101 155.168 148.768C155.068 148.434 155.031 148.151 155.089 148.135Z" fill="#455A64"/>
<path d="M154.365 145.731C154.423 145.731 154.552 145.969 154.652 146.302C154.752 146.635 154.785 146.923 154.727 146.939C154.669 146.956 154.544 146.698 154.444 146.364C154.344 146.031 154.306 145.731 154.365 145.731Z" fill="#455A64"/>
<path d="M153.64 143.303C153.698 143.303 153.827 143.541 153.927 143.874C154.027 144.207 154.061 144.494 154.002 144.511C153.944 144.528 153.819 144.269 153.719 143.936C153.619 143.603 153.586 143.32 153.64 143.303Z" fill="#455A64"/>
<path d="M152.915 140.888C152.974 140.867 153.103 141.125 153.203 141.458C153.303 141.791 153.336 142.075 153.278 142.095C153.219 142.116 153.095 141.854 152.995 141.521C152.895 141.188 152.861 140.904 152.915 140.888Z" fill="#455A64"/>
<path d="M152.189 138.468C152.247 138.468 152.376 138.709 152.476 139.043C152.576 139.376 152.61 139.659 152.551 139.68C152.493 139.701 152.368 139.438 152.268 139.105C152.168 138.772 152.135 138.489 152.189 138.468Z" fill="#455A64"/>
<path d="M151.447 136.052C151.505 136.052 151.635 136.294 151.734 136.627C151.834 136.96 151.868 137.243 151.809 137.26C151.751 137.277 151.626 137.023 151.526 136.689C151.426 136.356 151.41 136.073 151.447 136.052Z" fill="#455A64"/>
<path d="M150.74 133.653C150.798 133.653 150.927 133.895 151.027 134.228C151.127 134.561 151.16 134.844 151.102 134.861C151.044 134.878 150.919 134.624 150.819 134.291C150.719 133.957 150.686 133.653 150.74 133.653Z" fill="#455A64"/>
<path d="M150.013 131.221C150.071 131.221 150.201 131.463 150.3 131.796C150.4 132.129 150.434 132.412 150.375 132.429C150.317 132.446 150.192 132.192 150.092 131.858C149.992 131.525 149.959 131.238 150.013 131.221Z" fill="#455A64"/>
<path d="M149.291 128.805C149.346 128.805 149.475 129.047 149.575 129.38C149.675 129.713 149.708 129.997 149.654 130.013C149.6 130.03 149.466 129.776 149.366 129.443C149.266 129.109 149.233 128.822 149.291 128.805Z" fill="#455A64"/>
<path d="M148.568 126.39C148.622 126.39 148.751 126.627 148.851 126.965C148.951 127.302 148.984 127.581 148.93 127.598C148.876 127.614 148.743 127.36 148.643 127.027C148.543 126.694 148.53 126.407 148.568 126.39Z" fill="#455A64"/>
<path d="M147.842 123.974C147.896 123.974 148.025 124.212 148.125 124.545C148.225 124.878 148.259 125.166 148.205 125.182C148.15 125.199 148.017 124.945 147.917 124.607C147.817 124.27 147.784 123.991 147.842 123.974Z" fill="#455A64"/>
<path d="M147.116 121.575C147.17 121.575 147.299 121.813 147.399 122.146C147.499 122.479 147.532 122.767 147.478 122.783C147.424 122.8 147.291 122.542 147.191 122.208C147.091 121.875 147.057 121.575 147.116 121.575Z" fill="#455A64"/>
<path d="M146.391 119.143C146.445 119.143 146.574 119.38 146.674 119.714C146.774 120.047 146.807 120.334 146.753 120.351C146.699 120.368 146.566 120.109 146.466 119.776C146.366 119.443 146.333 119.16 146.391 119.143Z" fill="#455A64"/>
<path d="M145.666 116.728C145.725 116.728 145.85 116.965 145.95 117.298C146.05 117.631 146.087 117.919 146.029 117.935C145.971 117.952 145.841 117.694 145.741 117.361C145.641 117.027 145.612 116.744 145.666 116.728Z" fill="#455A64"/>
<path d="M144.942 114.312C145 114.291 145.125 114.549 145.225 114.883C145.325 115.216 145.362 115.499 145.304 115.52C145.246 115.541 145.117 115.278 145.017 114.945C144.917 114.612 144.883 114.329 144.942 114.312Z" fill="#455A64"/>
<path d="M144.215 111.892C144.274 111.892 144.398 112.134 144.498 112.467C144.598 112.8 144.636 113.083 144.578 113.104C144.519 113.125 144.39 112.862 144.29 112.529C144.19 112.196 144.157 111.913 144.215 111.892Z" fill="#455A64"/>
<path d="M143.491 109.497C143.549 109.497 143.674 109.739 143.774 110.072C143.874 110.405 143.911 110.688 143.853 110.705C143.795 110.722 143.666 110.468 143.566 110.135C143.466 109.801 143.432 109.497 143.491 109.497Z" fill="#455A64"/>
<path d="M142.766 107.061C142.824 107.061 142.949 107.303 143.049 107.636C143.149 107.969 143.186 108.252 143.128 108.269C143.07 108.285 142.941 108.031 142.841 107.698C142.741 107.365 142.695 107.078 142.766 107.061Z" fill="#455A64"/>
<path d="M142.038 104.645C142.097 104.645 142.222 104.887 142.322 105.22C142.422 105.553 142.459 105.836 142.401 105.853C142.342 105.87 142.218 105.616 142.113 105.282C142.009 104.949 141.98 104.662 142.038 104.645Z" fill="#455A64"/>
<path d="M141.314 102.23C141.372 102.23 141.497 102.471 141.597 102.804C141.697 103.138 141.734 103.421 141.676 103.438C141.618 103.454 141.493 103.2 141.393 102.867C141.293 102.534 141.255 102.246 141.314 102.23Z" fill="#455A64"/>
<path d="M140.611 99.8142C140.669 99.8142 140.794 100.052 140.894 100.389C140.994 100.726 141.031 101.005 140.973 101.022C140.915 101.039 140.79 100.785 140.69 100.451C140.59 100.118 140.531 99.8309 140.611 99.8142Z" fill="#455A64"/>
<path d="M139.865 97.4194C139.923 97.4194 140.048 97.6568 140.152 97.99C140.256 98.3232 140.285 98.6106 140.227 98.6272C140.169 98.6439 140.044 98.3898 139.944 98.0525C139.844 97.7151 139.806 97.4194 139.865 97.4194Z" fill="#455A64"/>
<path d="M139.138 94.9829C139.196 94.9829 139.325 95.2203 139.425 95.5535C139.525 95.8867 139.559 96.174 139.5 96.1907C139.442 96.2074 139.317 95.9492 139.217 95.616C139.117 95.2828 139.08 94.9996 139.138 94.9829Z" fill="#455A64"/>
<path d="M138.413 92.5674C138.472 92.5674 138.601 92.8048 138.701 93.138C138.801 93.4711 138.834 93.7585 138.776 93.7752C138.717 93.7918 138.592 93.5336 138.493 93.2004C138.393 92.8672 138.355 92.584 138.413 92.5674Z" fill="#455A64"/>
<path d="M137.693 90.1519C137.751 90.1519 137.88 90.3893 137.98 90.7224C138.08 91.0556 138.114 91.343 138.055 91.3597C137.997 91.3763 137.872 91.1181 137.772 90.7849C137.672 90.4517 137.631 90.1685 137.693 90.1519Z" fill="#455A64"/>
<path d="M136.964 87.7363C137.022 87.7155 137.152 87.9737 137.252 88.3069C137.351 88.64 137.385 88.9233 137.327 88.9441C137.268 88.9649 137.143 88.7025 137.043 88.3693C136.943 88.0361 136.906 87.7529 136.964 87.7363Z" fill="#455A64"/>
<path d="M136.238 85.3164C136.296 85.3164 136.425 85.558 136.525 85.8912C136.625 86.2243 136.658 86.5075 136.6 86.5284C136.542 86.5492 136.417 86.2868 136.317 85.9536C136.217 85.6204 136.184 85.3414 136.238 85.3164Z" fill="#455A64"/>
<path d="M135.696 83.5129C135.754 83.5129 135.842 83.6129 135.892 83.7795C135.942 83.9461 135.933 84.0919 135.892 84.1085C135.85 84.1252 135.75 84.0086 135.7 83.842C135.65 83.6754 135.638 83.5296 135.696 83.5129Z" fill="#455A64"/>
<path d="M128.193 155.852C128.252 155.852 128.306 155.985 128.318 156.156C128.331 156.327 128.285 156.472 128.223 156.477C128.16 156.481 128.11 156.343 128.102 156.168C128.093 155.993 128.131 155.856 128.193 155.852Z" fill="#455A64"/>
<path d="M128.107 153.374C128.166 153.374 128.228 153.644 128.24 153.99C128.253 154.336 128.215 154.611 128.153 154.611C128.091 154.611 128.036 154.34 128.024 153.999C128.011 153.657 128.032 153.374 128.107 153.374Z" fill="#455A64"/>
<path d="M128.016 150.896C128.074 150.896 128.132 151.166 128.141 151.512C128.149 151.858 128.111 152.133 128.049 152.133C127.986 152.133 127.932 151.858 127.924 151.516C127.916 151.175 127.953 150.896 128.016 150.896Z" fill="#455A64"/>
<path d="M127.951 148.414C128.01 148.414 128.064 148.688 128.072 149.03C128.08 149.371 128.039 149.651 127.981 149.655C127.922 149.659 127.864 149.38 127.856 149.038C127.847 148.697 127.889 148.414 127.951 148.414Z" fill="#455A64"/>
<path d="M127.891 145.931C127.953 145.931 128.007 146.206 128.015 146.552C128.024 146.897 127.982 147.172 127.924 147.172C127.866 147.172 127.807 146.897 127.799 146.556C127.791 146.214 127.832 145.935 127.891 145.931Z" fill="#455A64"/>
<path d="M127.828 143.449C127.886 143.449 127.945 143.724 127.953 144.07C127.961 144.415 127.92 144.69 127.861 144.69C127.803 144.69 127.745 144.415 127.736 144.074C127.728 143.732 127.77 143.453 127.828 143.449Z" fill="#455A64"/>
<path d="M127.744 140.971C127.806 140.971 127.864 141.242 127.877 141.587C127.889 141.933 127.848 142.208 127.789 142.212C127.731 142.216 127.669 141.937 127.66 141.596C127.652 141.254 127.689 140.971 127.744 140.971Z" fill="#455A64"/>
<path d="M127.641 138.493C127.703 138.493 127.761 138.764 127.778 139.105C127.795 139.447 127.753 139.73 127.695 139.73C127.637 139.73 127.574 139.459 127.557 139.113C127.541 138.768 127.582 138.493 127.641 138.493Z" fill="#455A64"/>
<path d="M127.544 136.011C127.602 136.011 127.664 136.286 127.677 136.627C127.689 136.969 127.652 137.248 127.59 137.252C127.527 137.256 127.473 136.977 127.46 136.635C127.448 136.294 127.485 136.015 127.544 136.011Z" fill="#455A64"/>
<path d="M127.456 133.532C127.518 133.532 127.577 133.807 127.585 134.149C127.593 134.49 127.56 134.769 127.498 134.774C127.435 134.778 127.381 134.499 127.368 134.157C127.356 133.816 127.398 133.537 127.456 133.532Z" fill="#455A64"/>
<path d="M127.382 131.05C127.44 131.05 127.498 131.325 127.507 131.667C127.515 132.008 127.478 132.287 127.419 132.291C127.361 132.296 127.303 132.017 127.29 131.675C127.278 131.334 127.323 131.054 127.382 131.05Z" fill="#455A64"/>
<path d="M127.314 128.572C127.377 128.572 127.431 128.847 127.439 129.189C127.447 129.53 127.406 129.809 127.347 129.809C127.289 129.809 127.231 129.534 127.222 129.193C127.214 128.851 127.272 128.572 127.314 128.572Z" fill="#455A64"/>
<path d="M127.273 126.09C127.331 126.09 127.385 126.365 127.394 126.711C127.402 127.056 127.356 127.331 127.298 127.331C127.24 127.331 127.181 127.056 127.177 126.715C127.173 126.373 127.202 126.09 127.273 126.09Z" fill="#455A64"/>
<path d="M127.225 123.612C127.283 123.612 127.337 123.887 127.341 124.228C127.346 124.57 127.304 124.849 127.241 124.849C127.179 124.849 127.129 124.574 127.125 124.233C127.121 123.891 127.162 123.612 127.225 123.612Z" fill="#455A64"/>
<path d="M127.192 121.13C127.254 121.13 127.304 121.405 127.308 121.75C127.312 122.096 127.266 122.371 127.208 122.371C127.15 122.371 127.096 122.092 127.092 121.75C127.087 121.409 127.133 121.13 127.192 121.13Z" fill="#455A64"/>
<path d="M127.174 118.66C127.237 118.66 127.287 118.939 127.287 119.28C127.287 119.622 127.241 119.901 127.183 119.901C127.124 119.901 127.074 119.626 127.07 119.28C127.066 118.935 127.116 118.66 127.174 118.66Z" fill="#455A64"/>
<path d="M127.17 116.161C127.229 116.161 127.279 116.436 127.279 116.782C127.279 117.127 127.233 117.398 127.17 117.402C127.108 117.406 127.062 117.123 127.062 116.782C127.062 116.44 127.112 116.161 127.17 116.161Z" fill="#455A64"/>
<path d="M127.178 113.687C127.237 113.687 127.282 113.966 127.282 114.308C127.282 114.649 127.233 114.928 127.17 114.928C127.108 114.928 127.066 114.649 127.066 114.308C127.066 113.966 127.116 113.687 127.178 113.687Z" fill="#455A64"/>
<path d="M127.194 111.205C127.257 111.205 127.303 111.484 127.298 111.825C127.294 112.167 127.244 112.446 127.186 112.446C127.128 112.446 127.078 112.167 127.082 111.825C127.086 111.484 127.136 111.205 127.194 111.205Z" fill="#455A64"/>
<path d="M127.228 108.727C127.286 108.727 127.332 109.006 127.328 109.347C127.324 109.689 127.269 109.968 127.211 109.968C127.153 109.968 127.107 109.689 127.111 109.343C127.115 108.998 127.169 108.727 127.228 108.727Z" fill="#455A64"/>
<path d="M127.273 106.245C127.331 106.245 127.373 106.528 127.369 106.869C127.365 107.211 127.306 107.486 127.248 107.486C127.19 107.486 127.144 107.207 127.152 106.865C127.161 106.524 127.211 106.245 127.273 106.245Z" fill="#455A64"/>
<path d="M127.328 103.762C127.386 103.762 127.428 104.046 127.42 104.387C127.411 104.729 127.357 105.008 127.299 105.004C127.241 104.999 127.195 104.725 127.203 104.383C127.211 104.041 127.274 103.762 127.328 103.762Z" fill="#455A64"/>
<path d="M127.414 101.28C127.473 101.28 127.51 101.563 127.497 101.905C127.485 102.247 127.427 102.526 127.364 102.521C127.302 102.517 127.268 102.242 127.281 101.897C127.293 101.551 127.356 101.28 127.414 101.28Z" fill="#455A64"/>
<path d="M127.56 98.8063C127.619 98.8063 127.648 99.0895 127.627 99.4311C127.606 99.7726 127.54 100.047 127.477 100.043C127.415 100.039 127.39 99.7601 127.411 99.4144C127.431 99.0687 127.498 98.798 127.56 98.8063Z" fill="#455A64"/>
<path d="M127.785 96.3323C127.848 96.3323 127.864 96.6197 127.831 96.9612C127.798 97.3027 127.719 97.5734 127.66 97.5693C127.602 97.5651 127.581 97.2819 127.615 96.9404C127.648 96.5989 127.727 96.3282 127.785 96.3323Z" fill="#455A64"/>
<path d="M128.027 94.504C128.085 94.504 128.114 94.6581 128.089 94.8247C128.064 94.9913 127.998 95.1288 127.94 95.1204C127.881 95.1121 127.852 94.9663 127.873 94.7956C127.894 94.6248 127.969 94.479 128.027 94.504Z" fill="#455A64"/>
<path d="M118.651 156.589L130.471 156.781L130.38 154.811L118.651 154.873V156.589Z" fill="#455A64"/>
<path d="M126.402 82.7634C126.444 82.9114 126.468 83.0638 126.473 83.2174C126.502 83.5131 126.544 83.9379 126.586 84.4668C126.669 85.5205 126.773 86.9657 126.869 88.5817C126.919 89.3813 126.961 90.1477 127.003 90.8474C126.995 91.4581 127.068 92.0672 127.219 92.6591C127.342 93.0455 127.614 93.3675 127.974 93.5545C128.109 93.6074 128.248 93.6492 128.39 93.6794C128.351 93.689 128.309 93.689 128.27 93.6794C128.153 93.6796 128.037 93.6584 127.928 93.617C127.728 93.5311 127.548 93.4051 127.399 93.2467C127.25 93.0884 127.135 92.9011 127.061 92.6965C126.885 92.0944 126.794 91.4705 126.79 90.8432C126.744 90.1435 126.694 89.3772 126.644 88.5775C126.544 86.9699 126.465 85.5164 126.419 84.4627C126.394 83.9338 126.382 83.5089 126.377 83.2132C126.365 83.0629 126.374 82.9115 126.402 82.7634Z" fill="#455A64"/>
<path d="M127.549 83.7503C127.549 83.7795 127.457 83.8545 127.444 84.0294C127.441 84.0754 127.448 84.1216 127.463 84.1652C127.478 84.2089 127.501 84.2491 127.532 84.2834C127.572 84.3173 127.62 84.3392 127.672 84.3466C127.723 84.354 127.776 84.3465 127.823 84.3251C127.873 84.3078 127.917 84.2766 127.949 84.2353C127.982 84.194 128.002 84.1442 128.007 84.0918C128.005 84.0457 127.994 84.0005 127.973 83.959C127.953 83.9174 127.925 83.8804 127.89 83.8503C127.761 83.7295 127.628 83.7545 127.624 83.7212C127.619 83.6879 127.761 83.5962 127.982 83.7212C128.044 83.7603 128.097 83.8134 128.136 83.8762C128.175 83.939 128.199 84.0099 128.207 84.0835C128.207 84.1801 128.178 84.2744 128.124 84.3544C128.069 84.4343 127.993 84.4962 127.903 84.5321C127.813 84.5679 127.715 84.5761 127.621 84.5555C127.526 84.535 127.44 84.4866 127.374 84.4167C127.326 84.3596 127.293 84.292 127.277 84.2195C127.262 84.1471 127.263 84.0719 127.282 84.0002C127.365 83.7587 127.549 83.7253 127.549 83.7503Z" fill="#455A64"/>
<path d="M138.068 85.5163C137.79 85.7051 137.472 85.8263 137.139 85.8703C136.336 86.0316 135.504 85.9389 134.757 85.6053C134.01 85.2716 133.385 84.7135 132.971 84.0086C132.78 83.7315 132.657 83.4133 132.612 83.0798C132.65 83.0798 132.762 83.4297 133.1 83.9128C133.527 84.563 134.132 85.0775 134.842 85.3956C135.553 85.7137 136.339 85.822 137.109 85.7078C137.693 85.637 138.055 85.4829 138.068 85.5163Z" fill="#455A64"/>
<path d="M119.479 82.7634C119.534 83.0319 119.52 83.3099 119.438 83.5714C119.287 84.2176 118.937 84.8002 118.437 85.2373C117.935 85.6753 117.309 85.9461 116.645 86.012C116.376 86.0588 116.099 86.0359 115.841 85.9454C115.841 85.9079 116.153 85.9453 116.629 85.8579C117.246 85.7553 117.823 85.4844 118.296 85.0749C118.761 84.6576 119.105 84.1223 119.292 83.5256C119.433 83.0716 119.442 82.7634 119.479 82.7634Z" fill="#455A64"/>
<path d="M117.818 50.4152C117.818 50.4152 106.681 55.1214 106.327 54.9423C105.973 54.7632 105.723 45.8005 105.723 45.8005H100.184C100.184 45.8005 99.1332 59.0947 102.472 61.2104C107.035 64.1258 118.084 58.0618 118.084 58.0618L117.818 50.4152Z" fill="#FFBE9D"/>
<path d="M80.6278 34.3599L79.4858 39.3327L84.829 40.6029C84.829 40.6029 87.0254 41.0902 89.2094 44.2013C91.3933 47.3125 92.2394 48.691 92.2394 48.691L95.9404 30.4158L91.9226 33.2812C91.1261 33.8408 90.2414 34.2631 89.3053 34.5306C88.1591 34.8638 86.6295 35.2428 85.7751 35.2012C84.0426 35.0346 82.3231 34.7536 80.6278 34.3599Z" fill="#263238"/>
<path d="M140.582 55.5713L92.2397 48.691L95.9408 30.4158L142.946 41.7441C143.452 41.8656 143.893 42.1741 144.181 42.6076C144.468 43.0411 144.581 43.5674 144.496 44.0806L142.908 53.8596C142.817 54.3899 142.524 54.8643 142.09 55.1834C141.657 55.5025 141.116 55.6415 140.582 55.5713Z" fill="#192BC2"/>
<path d="M76.3137 34.593C76.2802 34.5869 76.2458 34.5891 76.2133 34.5993C76.1809 34.6096 76.1515 34.6276 76.1277 34.6519C76.1038 34.6761 76.0863 34.7058 76.0766 34.7384C76.0668 34.7709 76.0652 34.8054 76.0719 34.8387C76.2742 35.9196 76.54 36.9876 76.868 38.0373C76.9805 38.3247 79.6563 38.5829 79.6563 38.5829L80.394 35.3718L76.3137 34.593Z" fill="#192BC2"/>
<path d="M136.701 49.2783L137.439 46.3254L106.209 39.9949L105.572 42.9644L136.701 49.2783Z" fill="#263238"/>
<path d="M130.634 49.1783L123.732 48.6243C123.686 47.8205 123.732 44.7052 123.732 44.7052C123.732 44.7052 120.86 44.2596 120.814 41.3734C120.769 38.4872 121.277 31.9192 121.277 31.9192C122.908 31.2169 124.697 30.9625 126.459 31.1821C128.221 31.4018 129.893 32.0876 131.301 33.1687L131.717 33.4977L130.634 49.1783Z" fill="#FFBE9D"/>
<path d="M121.959 36.8629C122.034 36.7871 122.076 36.6858 122.078 36.5796C122.08 36.4734 122.042 36.3705 121.971 36.2917C121.899 36.213 121.801 36.1645 121.695 36.1561C121.589 36.1477 121.484 36.18 121.401 36.2465C121.36 36.2833 121.327 36.3278 121.303 36.3775C121.28 36.4272 121.266 36.4812 121.263 36.5362C121.26 36.5912 121.269 36.6461 121.287 36.6979C121.306 36.7497 121.335 36.7973 121.372 36.8379C121.447 36.9189 121.55 36.967 121.66 36.9717C121.771 36.9764 121.878 36.9373 121.959 36.8629Z" fill="#263238"/>
<path d="M121.264 36.1965C121.31 36.2465 121.593 36.0299 121.985 36.0299C122.377 36.0299 122.668 36.2298 122.714 36.1798C122.76 36.1299 122.689 36.0674 122.564 35.9716C122.395 35.8517 122.192 35.7876 121.985 35.7883C121.777 35.7904 121.575 35.8606 121.41 35.9882C121.285 36.0965 121.243 36.1965 121.264 36.1965Z" fill="#263238"/>
<path d="M125.818 36.5547C125.769 36.5822 125.726 36.6193 125.691 36.6638C125.657 36.7083 125.632 36.7592 125.618 36.8137C125.604 36.8681 125.601 36.9248 125.609 36.9804C125.618 37.0359 125.637 37.0892 125.667 37.1371C125.696 37.1849 125.735 37.2262 125.781 37.2586C125.827 37.291 125.879 37.3138 125.934 37.3255C125.989 37.3372 126.046 37.3377 126.101 37.327C126.156 37.3162 126.208 37.2943 126.255 37.2627C126.349 37.205 126.416 37.1127 126.441 37.0058C126.467 36.8989 126.449 36.7862 126.392 36.6922C126.364 36.6453 126.326 36.6045 126.282 36.5722C126.237 36.5398 126.187 36.5166 126.134 36.5039C126.08 36.4911 126.025 36.489 125.971 36.4977C125.916 36.5065 125.864 36.5258 125.818 36.5547Z" fill="#263238"/>
<path d="M125.56 36.559C125.602 36.6089 125.885 36.3924 126.281 36.3882C126.677 36.384 126.965 36.5923 127.007 36.5423C127.048 36.4923 126.986 36.4298 126.861 36.3341C126.691 36.2112 126.486 36.1469 126.277 36.1508C126.07 36.1535 125.868 36.222 125.702 36.3466C125.581 36.4465 125.535 36.5381 125.56 36.559Z" fill="#263238"/>
<path d="M123.97 39.8156C123.767 39.7361 123.552 39.691 123.333 39.6823C123.229 39.6823 123.15 39.649 123.142 39.5907C123.137 39.4875 123.162 39.3851 123.213 39.295C123.317 39.0368 123.421 38.7702 123.529 38.4912C123.824 37.813 124.05 37.107 124.204 36.3838C123.84 37.0282 123.543 37.7078 123.317 38.4121C123.217 38.6911 123.117 38.9577 123.021 39.245C122.958 39.3742 122.937 39.52 122.963 39.6615C122.978 39.7004 123.002 39.7353 123.033 39.7635C123.064 39.7916 123.101 39.8123 123.142 39.8239C123.199 39.8387 123.258 39.8471 123.317 39.8489C123.535 39.8767 123.756 39.8654 123.97 39.8156Z" fill="#263238"/>
<path d="M125.257 40.2529C125.674 40.0072 124.124 40.8568 123.319 40.8152C123.456 41.0201 123.658 41.1728 123.893 41.2485C124.127 41.3241 124.381 41.3182 124.611 41.2317C125.47 40.936 125.257 40.2529 125.257 40.2529Z" fill="white"/>
<path d="M123.739 44.6636C125.068 44.6909 126.374 44.3211 127.49 43.6016C127.49 43.6016 126.607 45.684 123.739 45.4091V44.6636Z" fill="#EB996E"/>
<path d="M131.757 36.2964C131.82 36.2755 133.895 36.1381 133.553 38.5537C133.212 40.9693 130.878 39.8281 130.882 39.7573C130.886 39.6865 131.757 36.2964 131.757 36.2964Z" fill="#FFBE9D"/>
<path d="M131.746 39.0119C131.746 39.0119 131.784 39.0494 131.85 39.091C131.897 39.1199 131.949 39.1391 132.004 39.1477C132.058 39.1563 132.113 39.154 132.167 39.141C132.337 39.0651 132.484 38.9446 132.592 38.7921C132.7 38.6396 132.764 38.4609 132.779 38.2747C132.814 38.0682 132.804 37.8566 132.75 37.6542C132.738 37.5758 132.707 37.5015 132.66 37.4377C132.612 37.3738 132.551 37.3224 132.479 37.2877C132.432 37.2683 132.38 37.2656 132.332 37.28C132.283 37.2944 132.241 37.3251 132.213 37.3668C132.171 37.4293 132.179 37.4793 132.167 37.4834C132.154 37.4876 132.121 37.4376 132.167 37.3377C132.188 37.2791 132.229 37.2302 132.283 37.2002C132.357 37.1604 132.444 37.15 132.525 37.1711C132.619 37.2037 132.703 37.2586 132.77 37.3312C132.838 37.4038 132.887 37.4918 132.912 37.5875C132.984 37.8121 133.001 38.0506 132.962 38.2831C132.944 38.5006 132.861 38.7078 132.724 38.8783C132.588 39.0488 132.404 39.175 132.196 39.241C132.128 39.2509 132.059 39.2452 131.994 39.2242C131.93 39.2033 131.87 39.1677 131.821 39.1202C131.742 39.0744 131.738 39.0161 131.746 39.0119Z" fill="#EB996E"/>
<path d="M121.306 31.8484C122.052 33.8184 124.911 34.5972 127.012 34.7138C126.041 33.86 126.641 34.0391 126.041 33.4394C127.661 34.8402 129.733 35.6106 131.875 35.6093C132.036 35.1228 132.098 34.609 132.056 34.0983C132.015 33.5876 131.872 33.0904 131.635 32.636C131.398 32.1817 131.072 31.7795 130.676 31.4532C130.281 31.1269 129.824 30.8832 129.333 30.7364C128.687 30.5407 127.999 30.524 127.341 30.3699C126.787 30.2408 126.253 30.0201 125.674 29.9534C123.982 29.7035 121.235 29.2454 121.281 31.8651" fill="#263238"/>
<path d="M130.606 34.5305C130.715 34.8096 131.319 38.0665 131.319 38.0665L132.053 34.9262L130.606 34.5305Z" fill="#263238"/>
<path d="M151.136 74.8085C152.246 73.5332 152.854 71.8985 152.848 70.2084C152.842 68.5184 152.222 66.8881 151.103 65.6209L139.958 52.9932L136.974 61.3228C137.178 61.4561 145.651 70.5354 145.651 70.5354L138.37 79.6064C137.817 80.2939 137.447 81.1102 137.296 81.9791C137.144 82.848 137.215 83.7411 137.503 84.575L139.449 89.3354L144.78 86.949L144.363 86.3284H140.366L140.129 85.3705L151.136 74.8085Z" fill="#FFBE9D"/>
<path d="M145.855 58.3324L138.816 51.2522C137.459 49.8357 135.791 48.7547 133.944 48.0953C132.964 47.7457 131.936 47.549 130.897 47.5122C128.503 48.2702 125.934 48.2702 123.541 47.5122C121.526 47.732 119.563 48.2955 117.739 49.1781L107.232 53.4387L110.604 62.7263L116.243 60.8313L116.576 69.5774L115.459 82.6425L137.278 82.8424L136.994 70.9893V62.4181L140.145 65.4793L145.855 58.3324Z" fill="#455A64"/>
</svg>
